<svg width="22" height="23" viewBox="0 0 22 23" fill="none" xmlns="http://www.w3.org/2000/svg">
<path d="M18.015 10.8422V11.0103V10.8422Z" fill="white"/>
<path d="M18.0151 12.0188V12.1868C16.2717 12.9993 14.8327 13.8957 13.6428 14.8482C12.4529 15.8007 11.4843 16.7252 10.7371 17.6497C9.98996 18.5742 9.24279 19.6387 8.49562 20.7873L10.9308 23.0005C11.8717 21.2356 12.8679 19.7228 13.8918 18.4621C14.9157 17.2015 16.078 16.0529 17.351 15.0443C18.6516 14.0358 20.1736 13.1113 22 12.2709V10.7301C20.2013 9.86163 18.6516 8.93715 17.351 7.95664C16.0503 6.94811 14.9157 5.82752 13.8918 4.53885C12.8679 3.27819 11.8994 1.76541 10.9308 0.000488281L8.49562 2.21364C9.24279 3.39025 9.98996 4.4268 10.7371 5.35128C11.4843 6.27576 12.4529 7.22826 13.6428 8.15274" fill="white"/>
<path d="M0 10.1698H16.2163L18.4025 8.62901V14.4L16.2163 12.8592H1.70422" fill="white"/>
</svg>
