<svg width="23" height="22" viewBox="0 0 23 22" fill="none" xmlns="http://www.w3.org/2000/svg">
<path d="M12.1573 3.98495L11.9892 3.98495L12.1573 3.98495Z" fill="#0B0B0B"/>
<path d="M10.9808 3.9849L10.8127 3.9849C10.0002 5.72829 9.10378 7.16728 8.15128 8.35722C7.19878 9.54715 6.2743 10.5157 5.34982 11.2629C4.42533 12.01 3.36078 12.7572 2.21218 13.5044L-0.000975133 11.0692C1.76394 10.1283 3.27674 9.13206 4.53739 8.10816C5.79805 7.08426 6.94665 5.922 7.95518 4.64905C8.96371 3.34842 9.88819 1.82641 10.7286 5.36356e-07L12.2694 4.69005e-07C13.1379 1.79874 14.0624 3.34842 15.0429 4.64905C16.0514 5.94967 17.172 7.08426 18.4607 8.10816C19.7213 9.13206 21.2341 10.1006 22.999 11.0692L20.7859 13.5044C19.6093 12.7572 18.5727 12.01 17.6482 11.2629C16.7237 10.5157 15.7713 9.54715 14.8468 8.35722" fill="#0B0B0B"/>
<path d="M12.8297 22L12.8297 5.78368L14.3705 3.59752L8.59949 3.59752L10.1403 5.78368L10.1403 20.2958" fill="#0B0B0B"/>
</svg>
