<svg width="23" height="22" viewBox="0 0 23 22" fill="none" xmlns="http://www.w3.org/2000/svg">
<path d="M12.1583 18.015L11.9902 18.015L12.1583 18.015Z" fill="white"/>
<path d="M10.9817 18.0151L10.8136 18.0151C10.0012 16.2717 9.10475 14.8327 8.15225 13.6428C7.19976 12.4528 6.27528 11.4843 5.35079 10.7371C4.42631 9.98996 3.36176 9.24279 2.21316 8.49562L1.42955e-06 10.9308C1.76492 11.8717 3.27771 12.8679 4.53837 13.8918C5.79903 14.9157 6.94763 16.078 7.95616 17.351C8.96468 18.6516 9.88916 20.1736 10.7296 22L12.2704 22C13.1389 20.2013 14.0633 18.6516 15.0439 17.351C16.0524 16.0503 17.173 14.9157 18.4616 13.8918C19.7223 12.8679 21.2351 11.8994 23 10.9308L20.7868 8.49562C19.6102 9.24279 18.5737 9.98996 17.6492 10.7371C16.7247 11.4843 15.7722 12.4529 14.8477 13.6428" fill="white"/>
<path d="M12.8307 -4.44515e-07L12.8307 16.2163L14.3715 18.4025L8.60047 18.4025L10.1413 16.2163L10.1413 1.70422" fill="white"/>
</svg>
