<svg width="404" height="319" viewBox="0 0 404 319" fill="none" xmlns="http://www.w3.org/2000/svg">
<path opacity="0.7" d="M119.838 314.394C119.728 313.523 119.562 312.989 119.468 313.208C119.373 313.427 119.023 312.639 118.689 311.456C118.336 310.208 117.923 309.325 117.705 309.352C117.408 309.389 117.362 309.21 117.482 308.498C117.599 307.805 117.559 307.542 117.31 307.363C117.056 307.18 117.028 306.88 117.181 305.958C117.33 305.064 117.302 304.732 117.063 304.56C116.89 304.436 116.715 304.063 116.673 303.73C116.632 303.398 116.719 303.284 116.867 303.477C117.022 303.678 117.028 303.424 116.882 302.883C116.742 302.363 116.743 301.924 116.884 301.906C117.071 301.883 117.033 301.546 116.744 300.666C116.426 299.695 116.418 299.449 116.702 299.413C116.988 299.377 116.982 299.216 116.67 298.574C116.272 297.752 115.803 298.59 116.022 299.734C116.079 300.03 116.022 300.407 115.895 300.572C115.745 300.77 115.652 300.398 115.624 299.486C115.601 298.723 115.508 298.258 115.419 298.453C115.33 298.648 115.029 298.628 114.75 298.409C114.349 298.092 114.43 297.891 115.142 297.439C115.702 297.084 115.998 296.54 115.93 295.995C115.869 295.514 116.016 295.096 116.256 295.066C116.496 295.035 116.762 294.449 116.848 293.763C117.001 292.532 117.94 290.761 118.34 290.949C118.453 291.002 119.067 290.576 119.704 290.003C120.341 289.429 121.469 288.685 122.211 288.348C122.953 288.011 123.585 287.477 123.615 287.161C123.645 286.845 123.89 286.553 124.16 286.511C124.43 286.469 125.153 285.536 125.768 284.436C126.382 283.337 127.055 282.41 127.263 282.376C127.471 282.342 127.668 282.028 127.702 281.678C127.735 281.327 127.649 281.055 127.509 281.073C127.198 281.112 126.962 278.328 127.269 278.228C127.389 278.189 127.887 277.752 128.374 277.256C128.862 276.761 129.529 276.495 129.857 276.666C130.184 276.837 130.739 276.663 131.089 276.281C131.44 275.898 132.252 275.21 132.894 274.751C134.657 273.493 135.56 272.514 135.487 271.938C135.412 271.341 123.946 273.202 121.182 274.26C119.726 274.818 119.14 274.789 118.428 274.124C117.931 273.66 117.468 273.247 117.4 273.205C117.332 273.164 116.939 272.83 116.526 272.465C116.114 272.099 115.638 271.991 115.47 272.224C115.301 272.458 112.347 273.104 108.904 273.66C105.462 274.216 102.225 275.006 101.712 275.415C101.199 275.824 99.6088 276.634 98.1787 277.215C96.7485 277.796 95.421 278.581 95.2285 278.959C95.036 279.338 94.3686 279.579 93.7453 279.494C93.122 279.41 92.5882 279.591 92.5589 279.897C92.5296 280.202 92.3915 280.304 92.2519 280.122C92.1123 279.941 92.0352 280.087 92.0805 280.448C92.1258 280.809 92.0802 281.058 91.9791 281.002C91.5713 280.776 89.7848 282.145 89.8465 282.636C89.9224 283.24 88.3525 284.458 87.6829 284.314C87.4366 284.261 87.1159 284.803 86.9701 285.519C86.8244 286.235 86.5364 286.876 86.3302 286.942C86.1239 287.009 85.3564 287.2 84.6247 287.366C83.8929 287.532 82.9304 288.041 82.4858 288.496C82.0412 288.952 81.3154 289.529 80.873 289.779C80.4305 290.029 80.1539 290.471 80.2585 290.761C80.5846 291.668 80.1164 291.975 76.3251 293.339C76.1236 293.412 76.01 293.733 76.0726 294.053C76.1352 294.372 76.0049 294.824 75.7831 295.055C75.5613 295.286 75.1848 295.986 74.9465 296.611C74.6347 297.427 73.8359 297.944 72.0988 298.453C70.7709 298.842 69.4472 299.161 69.1573 299.161C68.8673 299.161 68.3754 299.643 68.0641 300.231C67.7425 300.839 67.4073 301.063 67.288 300.751C66.9952 299.983 66.1091 299.321 66.3794 300.072C66.6642 300.864 66.4405 300.849 65.7303 300.03C64.297 298.378 58.7567 300.466 58.4417 302.777C58.3442 303.493 58.3827 303.962 58.5484 304.08C58.6909 304.182 58.8386 304.512 58.8764 304.813C58.9143 305.115 58.7852 305.229 58.5895 305.068C58.3937 304.907 58.2043 305.081 58.1685 305.455C58.0728 306.454 59.4008 306.145 59.9982 305.029C60.2726 304.516 60.926 303.835 61.4502 303.514C61.9745 303.194 62.5689 302.819 62.7711 302.681C62.9733 302.543 63.1847 302.796 63.2407 303.242C63.3128 303.816 63.6143 303.958 64.271 303.727C64.9887 303.475 65.1273 303.557 64.8817 304.087C64.7069 304.465 64.6428 304.993 64.7393 305.261C64.9473 305.839 63.767 306.594 61.3993 307.399C60.0699 307.851 59.6105 307.795 59.3765 307.156C59.1569 306.556 59.0996 306.541 59.1676 307.103C59.3058 308.244 57.933 308.229 57.2979 307.083C57.0012 306.547 56.7916 306.373 56.8321 306.695C56.8767 307.051 56.1558 307.205 54.9997 307.088C53.9514 306.981 52.3166 306.836 51.3668 306.764C50.417 306.693 49.2672 306.352 48.8118 306.007C48.3564 305.662 47.749 305.544 47.4619 305.744C47.1749 305.945 46.8405 305.833 46.719 305.495C46.5832 305.117 46.6355 305.06 46.8549 305.345C47.0769 305.634 47.1267 305.573 46.9867 305.184C46.7228 304.45 45.566 303.901 44.2782 303.898C43.5186 303.896 43.3335 303.673 43.1741 302.568C43.0028 301.381 43.1336 301.17 44.4068 300.58C45.1902 300.217 46.0913 299.948 46.4093 299.983L46.9875 300.046L46.2795 299.228C45.0518 297.809 43.9622 297.282 41.9456 297.131C40.8692 297.051 39.2745 296.612 38.4019 296.157C36.3949 295.109 29.9761 295.814 29.8534 297.096C29.8111 297.538 29.6322 297.711 29.4559 297.481C29.0004 296.889 24.8412 297.192 25.0605 297.802C25.2657 298.372 25.2335 298.386 22.327 299C20.2756 299.434 19.4271 299.755 16.4583 301.223C15.1046 301.892 14.2416 301.715 13.2758 300.567C12.8713 300.087 12.9069 299.781 13.5444 298.258C14.0585 297.029 14.7778 296.254 15.9383 295.679C17.9186 294.697 19.7803 293.54 21.0926 292.474C21.8775 291.837 22.0062 291.488 21.7987 290.558C21.6498 289.891 21.4324 289.575 21.2722 289.794C21.1221 289.999 20.9606 289.858 20.9132 289.481C20.8658 289.104 21.0034 288.769 21.2188 288.736C21.5537 288.686 21.5507 288.597 21.1984 288.12C20.9377 287.767 20.8863 287.545 21.0586 287.518C21.2088 287.493 21.2203 287.063 21.0842 286.558C20.9124 285.92 21.0602 285.286 21.5704 284.471L22.3035 283.3L20.0627 283.202C18.8302 283.148 17.2212 283.208 16.4871 283.335C15.753 283.462 15.148 283.531 15.1426 283.489C15.1373 283.446 15.2543 282.743 15.4026 281.927C15.5509 281.111 15.6959 280.631 15.7249 280.861C15.7538 281.092 15.9534 280.841 16.1683 280.303C16.3833 279.765 17.268 278.911 18.1343 278.404C19.0006 277.898 20.0607 277.044 20.49 276.506C20.9193 275.969 21.6356 275.473 22.0816 275.405C23.3279 275.214 26.194 272.56 25.2568 272.465C25.1404 272.453 24.8269 272.34 24.5602 272.215C24.2935 272.089 23.9425 271.927 23.7803 271.855C23.2275 271.608 23.119 271.01 23.5411 270.535C23.7727 270.275 24.1416 269.353 24.3607 268.488C24.5798 267.622 24.9846 266.886 25.2602 266.851C25.5358 266.817 25.8284 266.391 25.9105 265.905C26.0331 265.179 25.8198 264.978 24.7134 264.777C23.9728 264.643 23.0469 264.436 22.6557 264.317C21.7249 264.035 18.2246 264.532 18.0353 264.973C17.7799 265.568 15.2453 266.151 15.1799 265.63C15.1455 265.356 15.2253 264.766 15.3573 264.319C15.4893 263.872 15.5607 263.215 15.516 262.859C15.4713 262.504 15.3913 262.404 15.3382 262.639C15.2851 262.873 15.0671 262.771 14.8537 262.413C14.6388 262.052 14.4989 262.025 14.54 262.353C14.5809 262.678 14.4628 262.964 14.2776 262.987C13.7383 263.055 13.8029 262.373 14.4303 261.375C15.1359 260.253 14.9629 259.841 13.518 259.203C12.2 258.621 11.8214 257.496 12.5774 256.409C13.3598 255.284 17.4674 253.436 19.9074 253.111C21.0511 252.959 22.2317 252.615 22.5308 252.347L23.0747 251.86L22.2536 250.497C21.802 249.747 21.2603 249.145 21.05 249.159C20.5138 249.195 20.2283 248.23 20.3289 246.723C20.4352 245.132 22.0375 242.093 22.8223 241.995C23.1531 241.953 23.3109 241.662 23.1878 241.32C23.0686 240.989 22.7859 240.741 22.5594 240.77C22.1789 240.817 21.5617 239.324 21.5087 238.228C21.4547 237.114 18.0472 238.795 17.897 240.01C17.7823 240.938 12.3438 244.008 11.7078 243.504L11.1023 243.024L11.5276 242.188C11.7615 241.728 13.4893 240.397 15.3672 239.231C18.8034 237.096 19.5423 235.801 17.1526 236.101C16.4183 236.193 15.6983 235.924 15.416 235.452C15.0149 234.782 14.5806 234.816 12.8384 235.657C9.63487 237.204 7.78804 238.222 7.38068 238.665C7.11079 238.959 6.99689 238.787 6.95836 238.027C6.9022 236.919 7.43512 235.544 8.38945 234.335C9.21089 233.294 8.5259 232.553 7.39744 233.262C6.90819 233.569 6.07786 234.074 5.55226 234.383L4.59663 234.947L5.15907 232.615C5.46841 231.333 5.709 230.185 5.6937 230.063C5.67841 229.941 5.01476 229.725 4.21892 229.582C2.33724 229.244 1.19251 227.965 0.949615 225.931C0.821492 224.857 2.0934 223.237 3.41077 222.794C3.9531 222.612 5.14956 221.919 6.06956 221.254C6.98957 220.589 8.43399 219.83 9.27938 219.569C10.1248 219.307 11.3857 218.723 12.0815 218.272C16.4026 215.466 17.3692 214.788 17.5281 214.449C17.6258 214.241 17.2141 213.823 16.6132 213.521C16.0085 213.216 15.4751 212.608 15.4186 212.157C15.2876 211.115 17.2664 208.568 19.1932 207.297C20.1305 206.68 20.7777 205.854 20.9271 205.086C21.0608 204.399 21.7078 203.472 22.4008 202.975C23.9731 201.848 23.8184 200.985 21.7504 199.347C21.307 198.996 20.9492 198.38 20.9554 197.979C20.9694 197.067 21.8384 195.568 22.3939 195.499C22.6236 195.47 22.714 195.175 22.5949 194.844C22.4758 194.513 21.6264 194.337 20.7075 194.452C19.1934 194.642 18.5059 194.085 19.1355 193.179C19.698 192.369 16.4706 193.174 14.958 194.221C13.0744 195.525 11.9225 195.222 11.6889 193.363C11.5813 192.506 12.0264 191.307 13.3617 188.858C14.6196 186.55 15.0696 185.369 14.8197 185.031C14.3449 184.389 14.6391 183.635 15.9727 182.074C17.8551 179.871 19.1337 176.413 18.6951 174.712C18.3955 173.55 19.1431 172.802 22.3949 171.01C24.0112 170.119 25.5916 168.922 25.9069 168.35C26.2222 167.777 26.9546 167.084 27.5346 166.808C29.1337 166.047 32.0464 163.419 32.425 162.395C32.6097 161.896 33.0643 161.429 33.4352 161.358C33.8061 161.288 34.2815 160.965 34.4917 160.641C34.7961 160.172 34.6886 160.057 33.9643 160.074C32.026 160.12 30.945 159.727 30.5762 158.842C30.3243 158.238 30.0296 158.08 29.7201 158.382C29.3139 158.778 29.2914 158.74 29.5588 158.107C29.7298 157.702 30.0547 157.429 30.2807 157.499C30.5068 157.569 30.7982 157.375 30.9283 157.067C31.0682 156.735 31.4329 156.812 31.8213 157.255C32.3329 157.837 32.5513 157.829 32.8107 157.218C33.0213 156.721 33.2215 156.649 33.3557 157.022C33.4724 157.346 34.1442 157.549 34.8485 157.473C35.5529 157.397 36.4318 157.702 36.8017 158.15C37.6076 159.126 37.8429 159.175 37.7388 158.347C37.696 158.006 37.5034 157.747 37.3109 157.771C37.1184 157.795 36.9852 157.561 37.0149 157.251C37.0446 156.94 36.8382 156.56 36.5561 156.406C36.274 156.252 36.0411 155.754 36.0384 155.299C36.0335 154.459 36.9784 153.848 39.9993 152.738C42.7284 151.735 43.4663 151.287 43.3899 150.679C43.3498 150.36 43.1653 150.117 42.9801 150.14C42.793 150.164 42.5741 149.632 42.4877 148.944C42.3736 148.036 42.4818 147.687 42.8934 147.635C43.5393 147.554 43.5297 146.586 42.8794 146.231C42.6385 146.1 41.5041 146.261 40.3584 146.589C37.0217 147.546 35.6382 147.54 34.7927 146.567C34.3633 146.073 33.961 145.787 33.8989 145.932C33.8367 146.076 33.729 145.405 33.6595 144.44C33.508 142.334 33.1512 142.047 30.8237 142.161C29.4307 142.23 29.3118 142.149 29.7052 141.404C30.3525 140.177 33.043 138.196 34.7337 137.7C35.5978 137.447 36.367 136.834 36.5939 136.218C37.077 134.905 37.4595 134.842 38.0402 135.977C38.3014 136.488 38.8908 136.808 39.4303 136.733C41.0916 136.5 47.0821 133.98 47.8398 133.194C48.5473 132.461 48.5583 132.355 48.1371 130.345C47.8716 129.078 47.7593 127.994 47.8515 127.587C47.9561 127.126 47.8911 126.664 47.6425 126.103C46.8821 124.388 47.5181 123.933 50.8327 123.823C53.4082 123.737 54.1864 123.509 54.6118 122.718C55.0618 121.88 57.3931 120.511 59.0505 120.11C59.294 120.051 59.9672 119.69 60.5464 119.308L61.5996 118.614L60.5325 118.29C59.9456 118.112 58.2708 118.261 56.8106 118.62C55.3505 118.98 53.2417 119.351 52.1245 119.445C51.0074 119.539 48.8873 120.229 47.4132 120.977C44.4966 122.458 41.4431 123.621 40.0842 123.769C39.6103 123.82 39.1897 124.114 39.1495 124.421C39.1093 124.728 38.7654 125.055 38.3854 125.146C38.0053 125.238 37.7233 125.544 37.7587 125.826C37.7941 126.108 37.5736 126.191 37.2687 126.01C36.8346 125.753 36.8051 125.814 37.1327 126.29C37.4935 126.814 37.4972 126.906 37.1595 126.957C36.9441 126.99 36.8068 127.326 36.8545 127.706C36.9077 128.13 36.6792 128.038 36.2621 127.466C35.5079 126.432 35.2165 126.292 35.5081 127.102C35.6137 127.396 35.5173 127.806 35.294 128.014C35.0616 128.23 34.8494 128.086 34.7978 127.676C34.7457 127.261 34.3533 127.004 33.8658 127.065C33.3307 127.132 33.0771 127.44 33.17 127.909C33.2705 128.417 33.0462 128.588 32.4506 128.458C31.4743 128.245 30.3709 126.918 30.2224 125.778C30.1587 125.291 30.0874 125.361 30.0226 125.975C29.9442 126.717 29.8718 126.541 29.6991 125.188C29.4141 122.954 29.5446 121.002 29.9826 120.947C30.1708 120.924 30.2273 120.633 30.1082 120.302C29.9891 119.971 30.0718 119.656 30.2919 119.602C31.021 119.423 31.4438 118.989 31.8305 118.022C32.1773 117.155 33.2707 117.335 33.3892 118.278C33.4106 118.449 33.2748 118.462 33.0872 118.307C32.8998 118.153 32.6647 118.528 32.5649 119.142C32.4085 120.104 32.4183 120.179 32.6359 119.688C32.8299 119.249 32.8846 119.384 32.8728 120.273C32.8637 120.965 32.9988 121.617 33.2092 121.897C33.7332 122.595 34.0772 122.408 33.5901 121.69C33.2741 121.225 33.394 121.127 34.0742 121.294C34.5742 121.418 35.1219 121.178 35.2998 120.759C35.5433 120.185 35.7244 120.173 36.0449 120.712C36.3863 121.285 36.4752 121.206 36.5043 120.302C36.5241 119.685 36.498 118.973 36.4463 118.72C36.3946 118.467 36.4954 118.242 36.6704 118.22C36.8453 118.198 36.987 117.857 36.9851 117.461C36.9833 117.066 37.2672 116.618 37.6161 116.466C37.9651 116.314 38.3099 115.75 38.3825 115.212C38.4551 114.674 38.6221 114.429 38.7537 114.666C38.8852 114.904 38.8681 114.619 38.7156 114.032C38.3745 112.72 38.7883 112.541 39.1406 113.849C39.3645 114.68 39.4269 114.661 39.6829 113.683C39.9561 112.64 39.9804 112.644 40.1237 113.758C40.2507 114.746 40.2917 114.782 40.3763 113.981C40.5268 112.556 40.4426 112.26 39.7894 111.919C39.3751 111.703 39.1555 111.212 39.0663 110.301C38.9241 108.849 39.5704 107.67 40.49 107.703C41.3471 107.733 41.9885 106.843 41.858 105.805C41.774 105.136 41.9725 104.912 42.607 104.958C43.5349 105.027 44.9698 104.139 45.4111 103.223C45.6302 102.768 45.5949 102.661 45.2273 102.668C44.977 102.673 44.2506 102.609 43.613 102.527C41.6416 102.273 39.1038 102.607 38.2518 103.233C37.6668 103.662 37.4578 103.629 37.5072 103.112C37.5497 102.669 37.4715 102.538 37.3026 102.768C37.1425 102.987 36.7732 102.457 36.4109 101.49C35.9686 100.308 35.8608 99.7573 36.0321 99.5548C36.1931 99.3647 36.1027 99.0009 35.7569 98.4467C35.2875 97.6946 35.3052 97.6427 35.9562 97.8599C36.349 97.991 36.5234 97.9499 36.3438 97.7684C35.6822 97.1004 35.8998 96.3002 36.7728 96.1906C37.3398 96.1195 37.7081 96.3632 37.7716 96.8516C37.8456 97.421 37.8954 97.397 37.9598 96.7609C38.0148 96.2178 38.1292 96.1242 38.2677 96.509C38.5029 97.1628 38.7822 97.0746 39.3799 96.1578C39.5849 95.8435 40.0823 95.526 40.4854 95.4524C41.4095 95.2835 41.5185 93.7081 40.5981 93.8236C40.2341 93.8693 39.8489 93.5085 39.7096 92.9915C39.5436 92.3756 39.6038 92.0612 39.8945 92.0247C40.1315 91.995 40.3625 91.6122 40.4077 91.174C40.5258 90.0315 41.2756 88.6017 41.5617 88.9738C41.6952 89.1473 41.8323 88.9984 41.8663 88.6423C41.9004 88.2865 42.2071 87.9602 42.5479 87.9175C42.8887 87.8747 43.6595 87.3183 44.2608 86.6811C45.2099 85.6751 45.2798 85.4626 44.7911 85.0694C44.4815 84.8203 42.5822 84.8614 40.5704 85.1607C38.5588 85.4603 36.7525 85.4965 36.5566 85.2417C36.3537 84.9778 36.1713 85.0818 36.1328 85.4832C36.0536 86.311 29.1501 87.7971 28.8793 87.0446C28.7841 86.7801 28.5703 86.7493 28.4041 86.9762C28.1995 87.2556 28.2008 87.5173 28.4082 87.7869C28.5766 88.006 28.4073 88.2237 28.032 88.2708C27.6566 88.3179 27.316 88.0901 27.2751 87.7645C27.2342 87.439 27.091 87.5445 26.9569 87.999C26.8228 88.4534 26.6164 88.6361 26.4982 88.405C26.38 88.1739 26.4681 87.4261 26.6941 86.7433L27.1049 85.5018L26.5809 85.8699C26.1218 86.1923 26.1034 86.1581 26.4321 85.593C26.9731 84.6632 28.0484 84.6175 28.7921 85.4928C29.5169 86.3458 30.2396 85.9441 30.0921 84.7702C30.0242 84.2294 30.437 83.9309 31.4512 83.7876C32.3651 83.6584 32.9397 83.8352 32.9933 84.2621C33.0404 84.6364 33.1478 84.4701 33.232 83.8926C33.3427 83.1341 33.9013 82.6657 35.2439 82.2056C36.2662 81.8554 37.691 81.0956 38.4102 80.5173C39.1293 79.939 40.0365 79.3986 40.4261 79.3165C40.8157 79.2343 41.5919 78.7234 42.1509 78.1808C43.1041 77.2559 42.9813 77.2391 40.1785 77.9125C38.5346 78.3075 37.0386 78.6542 36.8541 78.6831C36.6695 78.7119 34.4282 79.6613 31.8732 80.7928C29.3183 81.9243 26.5163 83.0259 25.6465 83.2407C24.7767 83.4555 24.1376 83.8344 24.2262 84.0828C24.3148 84.3311 23.9521 84.5901 23.4201 84.6582C22.8879 84.7249 21.5942 85.3 20.5447 85.9328C18.745 87.0181 14.3711 88.4531 14.9054 87.783C15.0415 87.6123 15.0638 87.2249 14.9548 86.9221C14.8459 86.6194 15.0389 86.3227 15.3838 86.2628C15.7287 86.2033 16.298 85.5807 16.6491 84.8802C17.0001 84.1796 17.4568 83.3212 17.6639 82.9726C18.3445 81.8266 30.8287 74.1226 33.8568 72.98C34.755 72.641 37.3405 71.5707 39.6022 70.6017C41.8639 69.6326 44.8576 68.4217 46.2549 67.9107C47.6522 67.3996 49.231 66.5169 49.7632 65.9492C50.4624 65.2033 50.798 65.1032 50.9726 65.5883C51.1939 66.2035 53.5345 65.7338 56.2867 64.522C56.7027 64.3388 58.0317 63.8881 59.24 63.5204C61.408 62.8605 64.6228 61.1523 66.3643 59.7349C66.8561 59.3346 67.3733 59.1565 67.5136 59.339C67.654 59.5216 69.1615 58.8724 70.8637 57.8965C73.3823 56.4524 74.072 56.2512 74.5677 56.816C75.0662 57.3838 75.5915 57.2121 77.4589 55.8714C80.5674 53.6395 84.6247 50.7359 86.6475 49.2957C87.5686 48.6398 88.8997 47.6292 89.6054 47.05C90.311 46.4708 91.2215 45.9565 91.6285 45.9071C92.0354 45.856 92.773 45.359 93.2671 44.7987C94.0998 43.8545 95.9021 42.6962 100.759 39.9839C103.254 38.5904 103.753 38.2785 106.257 36.5452C107.411 35.7464 109.308 34.5062 110.473 33.7891C111.637 33.0719 112.875 32.309 113.225 32.0936C115.696 30.5696 116.198 30.5292 116.888 31.7987C117.259 32.4838 117.603 33.3606 117.652 33.7473C117.701 34.134 117.812 34.4078 117.9 34.3559C117.987 34.3044 118.294 34.2659 118.581 34.2704C119.018 34.2778 119.09 34.4735 119.024 35.4647C118.927 36.9158 119.243 37.6523 119.536 36.6588C119.866 35.541 119.881 36.5074 119.56 38.2638C119.392 39.1852 118.931 40.0502 118.445 40.3556C117.735 40.8016 117.673 41.006 118.015 41.778C118.529 42.9367 118.232 43.0499 132.018 36.4429C132.964 35.9893 134.682 35.364 135.835 35.0535C136.987 34.743 139.056 34.0498 140.431 33.5131C141.806 32.9764 143.625 32.3381 144.472 32.0947C145.32 31.8514 146.376 31.3134 146.82 30.8992C147.265 30.4851 149.164 29.9361 151.041 29.6794C152.918 29.4227 154.572 29.0716 154.716 28.8992C155.073 28.4739 160.24 27.0536 161.509 27.0318C162.07 27.0224 162.732 27.3806 162.98 27.8283C163.536 28.8314 164.627 28.8021 169.573 27.6511C171.847 27.122 173.894 26.3107 174.522 25.6899C175.341 24.8799 176.821 24.5007 180.819 24.0759C183.694 23.7708 188.445 23.0061 191.377 22.3773C197.318 21.1029 196.996 21.1373 203.305 21.1016C207.39 21.0786 209.714 20.8073 213.195 19.9473C213.804 19.797 214.109 19.5688 213.873 19.4401C213.637 19.3115 213.408 18.9149 213.363 18.5589C213.309 18.1318 213.928 17.9552 215.18 18.0399C216.223 18.1105 219.336 18.1718 222.096 18.1761C224.857 18.1804 228.414 18.3114 230.002 18.4672C236.38 19.0929 238.807 19.2909 242.1 19.4539C250.334 19.8617 254.652 19.8942 259.108 19.5817C261.16 19.4379 263.721 19.4024 264.8 19.5027C265.879 19.603 267.466 19.5714 268.327 19.4324C269.187 19.2939 270.936 19.3269 272.213 19.507C273.491 19.6872 277.54 19.5822 281.212 19.2738C284.885 18.9655 288.37 18.9289 288.957 19.1924C289.544 19.456 290.837 19.723 291.831 19.7857C292.824 19.8485 293.973 20.0033 294.383 20.1298C295.786 20.5624 297.91 20.7097 300.973 20.5869C303.671 20.4788 306.333 20.6976 310.307 21.3542C310.948 21.4599 311.835 21.5799 312.279 21.6207C312.724 21.6616 313.867 21.7787 314.821 21.8812C315.775 21.9836 317.385 22.1365 318.399 22.221C319.413 22.3053 320.304 22.4539 320.379 22.5511C320.454 22.6483 321.111 22.824 321.839 22.9419C322.568 23.0597 323.331 23.2942 323.536 23.463C323.741 23.6317 324.813 23.7406 325.919 23.705C328.955 23.6071 328.951 23.6059 329.076 24.6069C329.141 25.1178 329.3 25.5224 329.431 25.506C329.562 25.4895 329.555 25.1593 329.415 24.772C329.243 24.2919 329.303 24.1842 329.606 24.4335C329.85 24.6347 330.273 24.7713 330.546 24.7371C330.88 24.6952 331.102 25.0762 331.23 25.9093C331.457 27.3847 331.344 27.4711 330.737 26.2857C330.104 25.0484 329.591 25.2115 329.919 26.5456C330.08 27.2027 330.075 27.3564 329.905 26.9452C329.716 26.4898 329.073 26.4806 327.884 26.9164C325.838 27.6665 324.23 27.7324 321.19 27.1907C319.971 26.9734 318.399 26.7156 317.697 26.6176C316.995 26.5197 316.289 26.3481 316.128 26.2362C315.968 26.1243 315.831 26.4628 315.824 26.9884C315.814 27.6961 315.618 27.8578 315.067 27.6118C314.202 27.2255 313.661 27.1051 311.448 26.8052C310.555 26.6842 309.751 26.4902 309.661 26.3742C309.47 26.1271 306.461 26.46 302.372 27.1808C299.778 27.638 297.892 27.5145 296.406 26.7898C295.569 26.3815 290.127 26.8421 290.187 27.3163C290.217 27.5602 290.95 27.8754 291.814 28.0169C292.679 28.1585 293.602 28.3588 293.866 28.4622C295.717 29.1873 300.49 29.6615 304.259 29.4948C305.133 29.4563 305.978 29.5999 306.137 29.8141C306.403 30.1703 313.464 30.7865 313.801 30.4828C313.881 30.4104 314.729 30.4512 315.685 30.5733C317.163 30.762 320.913 31.0445 321.844 31.0373C322.181 31.0346 322.321 31.8292 322.081 32.3863C321.91 32.7862 320.228 33.0845 318.66 32.9932C318.182 32.9652 317.662 32.5859 317.505 32.1502C317.293 31.5608 316.895 31.5079 315.948 31.9438C315.249 32.266 314.623 32.6489 314.557 32.7948C314.491 32.9408 314.231 32.6566 313.979 32.1634C313.727 31.6703 313.497 31.5121 313.468 31.812C313.412 32.3939 308.85 32.7214 307.456 32.2437C306.997 32.0864 306.206 31.9515 305.698 31.9439C305.19 31.9363 304.51 31.6284 304.187 31.2599C303.717 30.7241 303.619 30.7555 303.702 31.4167C303.764 31.9034 303.515 32.348 303.097 32.4976C301.371 33.1154 298.881 33.3897 296.854 33.1854C295.396 33.0384 294.796 33.1549 295.067 33.5328C296.157 35.0563 294.598 36.0707 291.91 35.5864C289.527 35.1569 289.113 35.1706 288.174 35.7096C287.689 35.9878 286.967 36.032 286.568 35.808C285.517 35.218 280.36 34.5866 278.123 34.774C277.068 34.8624 275.524 34.8265 274.692 34.6944C273.86 34.5623 272.201 34.4315 271.006 34.4039C269.811 34.3762 266.962 34.1721 264.677 33.9502C262.391 33.7283 259.009 33.5461 257.162 33.5453C254.152 33.5441 253.803 33.6528 253.79 34.5933C253.778 35.4878 253.407 35.6851 251.272 35.9301C249.895 36.0884 248.341 36.5005 247.82 36.8465L246.873 37.4757L248.644 37.955C249.618 38.2186 250.767 38.3822 251.198 38.3187C251.629 38.2543 253.451 38.4572 255.246 38.7677C257.041 39.0782 260.419 39.4089 262.751 39.5026C265.084 39.5962 267.234 39.7779 267.529 39.9065C267.824 40.0351 270.148 40.1546 272.694 40.172C277.269 40.2034 280.484 40.2941 282.943 40.4614C283.639 40.5087 286.018 40.607 288.23 40.68C290.442 40.7528 292.413 40.9183 292.61 41.0477C292.807 41.177 293.196 41.4683 293.476 41.6949C293.755 41.9215 294.382 42.1355 294.868 42.1706C295.355 42.2057 295.926 42.6614 296.137 43.1835C296.442 43.9374 297.056 44.0991 299.122 43.969C300.553 43.8789 301.846 43.964 301.996 44.1579C302.146 44.3518 303.047 44.5789 303.998 44.6626C308.546 45.0626 313.07 45.2834 315.128 45.2058C316.377 45.1587 319.076 45.404 321.127 45.7509C323.178 46.0978 325.777 46.36 326.902 46.3337C334.693 46.151 340.961 46.3656 344.311 46.9297C345.465 47.1239 347.47 47.3317 348.767 47.3915C350.064 47.4513 351.209 47.7317 351.311 48.0147C351.412 48.2977 351.164 48.5938 350.759 48.6727C350.354 48.7519 349.744 48.9091 349.404 49.0227C349.065 49.1362 348.718 49.0387 348.634 48.8058C348.55 48.5729 348.144 48.7136 347.731 49.1183C347.313 49.5291 346.309 49.755 345.46 49.6298C344.623 49.5063 340.287 49.7527 335.824 50.1771C331.361 50.6015 326.02 50.978 323.955 51.0138C320.274 51.0774 319.274 51.4463 321.743 51.8304C322.428 51.937 323.054 52.1529 323.134 52.3101C323.35 52.7317 322.666 53.9275 322.017 54.2645C321.26 54.6572 321.108 55.4731 321.795 55.4552C322.097 55.4474 323.691 55.5358 325.336 55.6518C326.981 55.7679 330.192 55.7961 332.471 55.7146C336.218 55.5806 336.628 55.6704 336.752 56.6518C336.923 58.014 337.867 58.2227 343.388 58.1183C345.614 58.0763 347.517 58.2704 347.618 58.5497C347.718 58.829 348.243 59.0021 348.785 58.9342C350.629 58.7028 350.327 60.4777 348.236 62.1552C347.646 62.6286 346.821 63.0068 346.403 62.9956C343.616 62.9207 344.486 64.05 347.678 64.6496C348.963 64.891 350.738 65.1347 351.623 65.1913C352.509 65.2478 354.127 65.464 355.219 65.6718C356.311 65.8797 358.491 66.075 360.063 66.1059C361.999 66.144 363.027 66.415 363.248 66.9455C363.429 67.3795 364.298 67.8207 365.197 67.9349C366.089 68.0482 366.963 68.4685 367.139 68.8689C367.315 69.2693 368.22 69.6923 369.151 69.8089C370.082 69.9256 371.121 70.4019 371.461 70.8674C371.85 71.4009 372.876 71.7161 374.236 71.72C377.167 71.7283 379.515 72.1426 379.711 72.686C379.916 73.2571 378.056 74.3431 377.689 73.8662C377.539 73.6705 377.449 73.7747 377.489 74.0975C377.53 74.4203 377.94 74.8231 378.4 74.9925C379.309 75.3269 379.567 76.0771 379.029 76.8198C378.394 77.6964 379.576 78.8101 382.026 79.6415C384.083 80.3398 385.454 81.3497 384.568 81.5134C383.734 81.6673 385.167 82.5963 386.564 82.8078C387.394 82.9333 388.223 83.2901 388.408 83.6006C388.593 83.9112 389.419 84.3689 390.244 84.6179C392.535 85.3096 392.609 86.087 390.455 86.8447C389.65 87.1277 388.961 87.7538 388.804 88.3438C388.584 89.1716 388.205 89.3148 386.736 89.1267C383.746 88.7442 383.191 88.9612 382.957 90.6045C382.842 91.4088 382.816 92.2563 382.899 92.4879C382.982 92.7194 383.756 93.0185 384.618 93.1525C385.481 93.2865 386.315 93.6021 386.472 93.854C386.629 94.1059 387.262 94.4488 387.879 94.6161C389.572 95.0751 389.351 95.9914 387.492 96.2247C386.586 96.3384 385.795 96.6499 385.733 96.9171C385.672 97.1843 384.756 97.5115 383.699 97.6442C382.362 97.8119 381.776 98.1249 381.777 98.6716C381.777 99.2104 382.049 99.4249 382.639 99.3533C383.112 99.295 383.886 99.46 384.357 99.7182C384.829 99.9765 386.092 100.257 387.164 100.341C388.237 100.425 389.261 100.741 389.44 101.042C389.62 101.343 389.805 101.42 389.852 101.213C389.899 101.005 390.201 101.038 390.524 101.284C390.977 101.631 390.764 101.868 389.589 102.325C388.202 102.864 386.682 103.973 385.932 104.992C385.457 105.639 386.389 106.168 389.063 106.767C390.386 107.063 391.49 107.471 391.515 107.673C391.54 107.875 392.203 107.843 392.988 107.601C394.135 107.248 394.438 107.339 394.529 108.067C394.67 109.189 394.19 111.114 393.759 111.155C393.494 111.18 393.484 111.075 393.7 110.543C393.922 109.996 393.902 109.907 393.56 109.941C393.339 109.963 393.153 110.422 393.146 110.96C393.135 111.793 392.741 111.938 390.482 111.941C387.652 111.945 387.019 112.441 387.747 114.082C388.966 116.832 392.857 119.456 395.267 119.153C396.723 118.971 397.578 119.626 397.759 121.065C397.849 121.784 397.513 122.014 396.131 122.175C395.173 122.288 393.948 122.136 393.408 121.839C392.869 121.542 390.489 121.415 388.119 121.555C383.928 121.804 383.813 121.845 383.932 123.06C384.049 124.255 384.431 125.079 384.94 125.233C385.07 125.273 386.101 125.647 387.231 126.065C390.928 127.434 394.148 128.146 397.372 128.308C400.359 128.459 401.444 129.043 401.312 130.429C401.281 130.745 401.139 130.851 400.996 130.665C400.853 130.478 400.81 130.691 400.9 131.138C400.992 131.588 400.886 131.935 400.664 131.915C400.443 131.895 400.338 132.089 400.431 132.347C400.524 132.604 400.279 133.035 399.887 133.305C399.039 133.887 398.965 135.03 399.659 136.8C400.028 137.743 400.128 138.32 400.025 138.928C399.856 139.926 400.128 140.56 400.693 140.489C400.92 140.461 401.12 140.554 401.138 140.697C401.155 140.839 401.298 141.43 401.454 142.008C401.714 142.975 401.57 143.048 399.684 142.901C398.555 142.814 397.231 142.624 396.743 142.479C396.036 142.271 395.879 142.414 395.976 143.183C396.043 143.714 395.966 144.421 395.805 144.753C395.391 145.611 396.148 149.14 396.883 149.777C397.408 150.232 397.413 150.261 396.996 150.394C396.557 150.533 396.557 150.533 397.073 151.009C397.576 151.473 396.992 151.771 394.716 152.214C393.766 152.399 393.144 153.324 393.274 154.358C393.344 154.911 393.154 155.278 392.769 155.331C392.43 155.38 391.945 155.616 391.69 155.859C391.256 156.272 391.258 156.348 391.73 157.083C392.006 157.514 392.51 157.841 392.849 157.809C393.188 157.778 394.255 158.643 395.22 159.733C396.193 160.833 397.3 161.674 397.708 161.623C399.069 161.452 401.29 161.974 401.244 162.454C401.219 162.716 401.366 162.87 401.57 162.797C401.774 162.724 402.037 163.14 402.155 163.722C402.429 165.071 401.398 167.587 400.672 167.341C400.382 167.242 400.146 167.47 400.148 167.847C400.152 168.737 397.563 169.313 396.418 168.678C395.932 168.408 393.59 168.354 391.214 168.558C387.197 168.904 386.058 169.368 387.657 170.008C388.02 170.153 388.807 170.499 389.407 170.776C390.006 171.053 390.927 171.238 391.454 171.187C391.981 171.136 392.447 171.373 392.49 171.713C392.532 172.054 392.726 172.313 392.919 172.288C393.112 172.264 393.516 172.525 393.817 172.867C394.357 173.483 394.359 173.498 393.923 174.288C393.161 175.67 393.597 176.829 395.316 177.992C396.197 178.589 397.017 179.477 397.137 179.965C397.257 180.454 397.465 181.004 397.599 181.187C398.021 181.766 397.85 183.728 397.409 183.366C397.187 183.182 397.088 183.196 397.19 183.395C397.292 183.595 397.209 184.492 397.006 185.39C396.738 186.571 396.374 187.084 395.688 187.245C395.166 187.368 394.803 187.645 394.881 187.862C394.959 188.078 394.039 188.24 392.836 188.222C391.087 188.195 390.597 188.385 390.39 189.174C390.103 190.269 387.952 190.975 386.709 190.383C386.234 190.156 385.924 190.284 385.883 190.722C385.846 191.107 385.577 191.452 385.286 191.489C384.61 191.574 384.12 192.239 384.21 192.949C384.248 193.254 384.426 193.484 384.605 193.462C384.784 193.439 385.069 193.833 385.239 194.336C385.43 194.904 386.407 195.582 387.813 196.123C390.582 197.19 392.759 199.079 392.741 200.399C392.735 200.906 392.566 201.187 392.367 201.023C392.168 200.859 392.093 200.97 392.201 201.269C392.309 201.568 392.241 202.715 392.05 203.817C391.796 205.291 391.572 205.731 391.203 205.481C390.925 205.294 390.79 205.387 390.899 205.691C391.008 205.993 390.749 206.311 390.323 206.398C389.898 206.486 388.901 207.126 388.108 207.82L386.665 209.083L387.352 210.493C387.73 211.268 388.132 211.891 388.246 211.876C388.36 211.862 388.858 212.261 389.351 212.762C390.212 213.637 390.242 213.735 390.088 215.153C389.986 216.085 390.028 216.764 390.201 216.989C390.352 217.185 390.446 217.642 390.412 218.006C390.371 218.432 390.241 218.377 390.046 217.851C389.85 217.322 389.713 217.265 389.655 217.688C389.606 218.048 389.314 218.783 389.005 219.322L388.444 220.302L389.181 220.424C389.979 220.555 390.59 222.093 390.107 222.753C389.943 222.976 389.734 223.012 389.643 222.832C389.551 222.652 389.205 223.068 388.874 223.757C388.542 224.445 387.913 225.255 387.474 225.557C387.035 225.859 386.587 226.498 386.478 226.977C386.221 228.113 386.064 228.109 383.792 226.899C381.754 225.813 381.242 226.002 380.717 228.035C380.42 229.182 380.252 229.258 379.004 228.807C377.366 228.215 374.455 228.479 374.712 229.195C374.811 229.47 375.673 229.95 376.627 230.26C379.058 231.052 379.346 231.251 379.049 231.941C378.536 233.137 381.792 235.399 384.76 235.908C385.562 236.046 386.294 236.371 386.387 236.631C386.481 236.89 386.439 237.872 386.294 238.813C386.05 240.393 386.068 240.604 386.53 241.58C386.805 242.161 387.05 242.789 387.073 242.976C387.169 243.741 383.229 243.117 381.837 242.146C379.836 240.751 376.048 240.024 375.828 240.994C375.712 241.506 375.763 241.928 376.01 242.484C376.342 243.235 376.744 243.523 380.017 245.361C381.038 245.934 381.59 246.534 381.668 247.155C381.766 247.939 381.512 248.054 380.067 247.88C378.966 247.747 378.326 247.909 378.285 248.331C378.251 248.694 378.346 248.974 378.497 248.955C378.649 248.936 378.739 249.072 378.697 249.256C378.598 249.69 375.187 248.248 374.785 247.603C374.468 247.095 371.014 246.114 370.332 246.337C370.121 246.407 369.993 246.812 370.046 247.238C370.1 247.665 370.139 248.396 370.132 248.863C370.122 249.67 373.065 250.929 378.03 252.242C378.776 252.439 379.805 252.976 380.318 253.436C380.83 253.896 381.565 254.234 381.952 254.187C382.97 254.065 384.584 255.108 384.43 255.788C384.359 256.103 383.032 256.601 381.482 256.894C379.933 257.187 378.687 257.472 378.715 257.527C378.743 257.582 379.333 258.106 380.026 258.69C381.233 259.708 381.269 259.788 380.874 260.565C380.564 261.174 380.16 261.247 379.258 260.855C377.79 260.219 377.609 260.23 377.7 260.957C377.739 261.271 378.096 261.673 378.494 261.85C379.815 262.439 379.65 263.279 378.177 263.464C377.32 263.571 376.503 264.073 376.155 264.705C375.802 265.344 375.351 265.618 375.019 265.393C374.308 264.913 363.738 266.021 363.931 266.556C364.338 267.689 361.392 268.053 358.731 267.197C353.343 265.466 348.843 264.662 346.039 264.93C344.49 265.078 342.113 264.95 340.758 264.644C339.402 264.339 337.008 263.958 335.437 263.799C333.866 263.639 332.503 263.409 332.408 263.288C332.312 263.167 331.454 262.985 330.501 262.884C329.547 262.783 328.399 262.626 327.948 262.537C327.011 262.35 322.835 262.233 319.823 262.311C317.644 262.367 314.303 262.207 312.021 261.939C311.257 261.849 308.344 261.941 305.547 262.145C302.75 262.348 299.422 262.413 298.152 262.289C296.882 262.164 293.441 262.392 290.506 262.795C286.067 263.404 285.153 263.685 285.071 264.466C284.988 265.263 284.926 265.279 284.663 264.567C284.456 264.008 284.146 263.878 283.735 264.178C283.394 264.425 282.969 264.337 282.786 263.98C282.604 263.624 282.114 263.316 281.698 263.295C281.281 263.274 280.717 263.118 280.445 262.947C278.961 262.017 277.519 261.873 277.037 262.608C276.651 263.197 275.44 262.71 275.509 261.993C275.534 261.728 274.416 261.579 273.024 261.66C269.277 261.88 268.877 261.816 268.336 260.906C267.896 260.166 267.866 260.206 268.068 261.27C268.222 262.08 268.178 262.408 267.931 262.288C267.731 262.19 267.339 262.133 267.06 262.161C266.781 262.189 266.526 261.998 266.494 261.737C266.461 261.475 266.249 261.109 266.024 260.924C265.726 260.679 265.684 260.847 265.87 261.537C266.047 262.193 266.021 262.348 265.787 262.036C265.601 261.787 264.477 261.616 263.29 261.657C260.795 261.741 261.162 261.698 249.58 263.266C244.707 263.925 240.071 264.342 239.276 264.192C238.482 264.042 237.685 264.12 237.505 264.366C237.173 264.818 229.938 266.537 227.67 266.702C225.896 266.831 224.256 269.94 225.496 270.822C225.681 270.954 225.621 271.407 225.35 271.931C225.098 272.418 224.866 273.059 224.833 273.355C224.716 274.426 222.882 275.245 222.24 274.513C221.836 274.052 220.909 273.985 219.506 274.314C218.339 274.588 214.485 275.326 210.941 275.953C207.398 276.58 204.274 277.294 204 277.539C203.727 277.784 202.479 278.156 201.227 278.366C199.976 278.576 198.789 279.087 198.59 279.501C198.234 280.241 196.293 281.627 195.912 281.412C195.442 281.148 194.655 281.328 193.982 281.853C193.582 282.166 193.047 282.4 192.793 282.374C192.538 282.348 192.122 282.302 191.868 282.273C191.613 282.244 190.486 282.668 189.363 283.215C188.24 283.763 186.884 284.259 186.349 284.319C185.814 284.379 185.291 284.707 185.186 285.047C185.081 285.388 184.691 285.901 184.32 286.188C183.767 286.615 183.62 286.52 183.512 285.662C183.396 284.734 183.201 284.687 181.808 285.257C180.943 285.61 178.626 286.166 176.66 286.493C174.694 286.819 172.582 287.482 171.967 287.965C171.352 288.449 170.8 288.851 170.74 288.858C170.68 288.866 170.809 289.274 171.027 289.766C171.245 290.257 171.765 290.617 172.182 290.564C172.599 290.512 172.955 290.586 172.973 290.728C172.991 290.871 173.122 291.42 173.265 291.95C173.62 293.27 172.98 293.283 172.308 291.97C171.927 291.225 171.783 291.157 171.785 291.724C171.787 292.156 171.677 292.363 171.54 292.184C171.402 292.006 171.319 292.086 171.353 292.361C171.388 292.637 171.193 292.925 170.921 293.002C170.648 293.078 169.151 293.621 167.594 294.208C166.037 294.795 162.857 295.628 160.528 296.058C158.198 296.489 156.059 297.026 155.774 297.252C154.807 298.016 149.24 300.205 146.211 301.012C140.597 302.507 136.55 305.303 135.991 308.072C135.817 308.938 135.409 309.671 135.059 309.747C132.186 310.372 128.256 311.713 126.574 312.642C125.87 313.031 124.622 313.607 123.801 313.922C122.979 314.237 121.833 314.824 121.253 315.226C120.674 315.628 120.163 315.962 120.118 315.968C120.073 315.973 119.947 315.265 119.838 314.393L119.838 314.394ZM119.13 308.76C119.045 308.082 118.939 308.044 118.661 308.59C118.446 309.012 118.402 309.666 118.55 310.215C118.74 310.923 118.848 310.962 119.018 310.384C119.14 309.972 119.19 309.241 119.13 308.76ZM155.808 294.802C156.578 293.823 156.554 293.813 154.725 294.349C150.537 295.577 149.242 296.095 149.296 296.522C149.397 297.33 154.981 295.855 155.808 294.802ZM50.5683 300.408C50.5515 300.275 50.3862 300.184 50.2009 300.207C50.0157 300.231 49.898 300.52 49.9394 300.849C49.9809 301.179 50.1462 301.27 50.3068 301.051C50.4675 300.831 50.5851 300.542 50.5683 300.408ZM66.5837 296.265C66.6181 295.905 66.4004 295.659 66.0833 295.699C65.7746 295.737 65.4945 296.055 65.461 296.406C65.4265 296.765 65.6443 297.012 65.9614 296.972C66.2701 296.933 66.5502 296.615 66.5837 296.265ZM55.5198 294.434C55.4395 293.795 55.1631 293.769 54.7308 294.359C54.2422 295.026 54.4869 295.751 55.0644 295.348C55.3527 295.146 55.5576 294.735 55.5198 294.434ZM182.562 278.394C183.254 277.709 183.331 277.47 182.922 277.27C182.274 276.954 175.234 278.678 171.519 280.063C170.509 280.439 178.619 280.031 180.245 279.624C181.035 279.426 182.078 278.872 182.562 278.394ZM190.106 275.511C190.333 275.319 189.864 275.267 189.065 275.395C187.157 275.702 186.47 276.366 187.743 276.673C188.261 276.798 188.911 276.666 189.189 276.381C189.466 276.095 189.879 275.703 190.106 275.511ZM46.8324 293.671C47.2901 293.575 47.283 293.543 46.692 293.036C45.995 292.439 45.5121 292.841 45.646 293.907C45.6948 294.295 45.8729 294.423 46.0425 294.191C46.2119 293.96 46.5673 293.726 46.8324 293.671ZM193.414 274.573C193.454 274.4 193.031 274.267 192.475 274.279C191.92 274.291 191.434 274.62 191.397 275.012C191.349 275.512 191.628 275.6 192.336 275.306C192.89 275.076 193.375 274.746 193.414 274.573ZM368.083 245.23C368.121 244.836 367.737 244.673 367.074 244.802C366.123 244.987 366.085 245.054 366.736 245.399C367.805 245.965 368.015 245.939 368.083 245.23ZM20.8495 279.556C20.665 279.397 20.4741 279.444 20.4253 279.659C20.3766 279.874 20.5276 280.004 20.7609 279.947C21.0187 279.885 21.0535 279.731 20.8495 279.556ZM23.3995 278.408C23.8007 277.952 23.8101 277.849 23.4472 277.88C23.1989 277.9 22.8238 278.183 22.6136 278.506C22.1266 279.256 22.7169 279.182 23.3995 278.408ZM26.4431 278.273C26.6124 278.042 26.6881 277.352 26.6111 276.739C26.492 275.791 26.3361 275.692 25.5583 276.074C24.5712 276.56 24.0305 277.699 24.8354 277.598C25.0998 277.565 25.4136 277.809 25.5327 278.14C25.782 278.833 26.0088 278.866 26.4431 278.273ZM389.879 221.737C389.836 221.396 389.625 221.144 389.409 221.176C389.074 221.226 389.077 221.316 389.43 221.793C389.948 222.495 389.974 222.492 389.879 221.737ZM27.4864 241.609C27.3018 241.451 27.1109 241.497 27.0622 241.712C27.0134 241.927 27.1644 242.057 27.3977 242C27.6556 241.938 27.6903 241.784 27.4864 241.609ZM25.4209 240.033C25.2941 239.024 24.6554 238.988 23.943 239.952C23.1676 241 23.4623 241.633 24.5472 241.248C25.2064 241.014 25.494 240.614 25.4209 240.033ZM29.6479 239.956C29.298 238.984 28.4629 238.83 28.5797 239.759C28.6452 240.28 28.9196 240.601 29.2637 240.558C29.5797 240.518 29.7526 240.248 29.6479 239.956ZM27.8599 239.476C28.0543 238.998 27.9052 238.858 27.278 238.929C26.8142 238.982 26.4698 239.304 26.5126 239.645C26.6117 240.434 27.5164 240.32 27.8599 239.476ZM393.071 120.059C393.028 119.718 392.892 119.452 392.768 119.467C392.645 119.483 392.579 119.774 392.622 120.115C392.664 120.455 392.8 120.721 392.924 120.706C393.047 120.69 393.113 120.399 393.071 120.059ZM393.247 108.297C393.071 108.144 392.818 108.176 392.685 108.367C392.553 108.558 392.697 108.683 393.005 108.644C393.314 108.606 393.423 108.449 393.247 108.297ZM388.942 101.261C388.645 101.148 388.19 101.205 387.931 101.388C387.672 101.57 387.914 101.662 388.47 101.593C389.026 101.523 389.238 101.374 388.942 101.261ZM377.928 97.5645C377.895 97.2994 376.993 96.8565 375.923 96.5804C374.853 96.3043 373.711 95.9157 373.384 95.7169C373.015 95.4924 372.871 95.5811 373.004 95.9509C373.122 96.2784 374.151 96.7894 375.292 97.0865C376.433 97.3836 377.478 97.7023 377.615 97.7947C377.752 97.8873 377.892 97.9817 377.927 98.0047C377.961 98.0276 377.962 97.8296 377.928 97.5645ZM49.7144 132.94C50.0557 132.415 50.0314 132.355 49.4869 132.384C49.1516 132.402 48.8498 132.703 48.8163 133.053C48.7435 133.813 49.1835 133.758 49.7144 132.94ZM375.183 88.4225C375.147 88.13 374.062 87.6999 372.774 87.4667C369.872 86.9414 369.369 86.9866 369.753 87.738C369.915 88.0533 371.187 88.4202 372.581 88.5533C373.975 88.6864 375.146 88.8312 375.183 88.8749C375.22 88.9187 375.22 88.715 375.183 88.4225ZM35.7294 123.476C35.7573 123.185 35.6331 122.964 35.4533 122.987C35.2735 123.009 35.1555 123.26 35.1912 123.544C35.2268 123.828 35.3511 124.048 35.4673 124.034C35.5835 124.019 35.7015 123.768 35.7294 123.476ZM30.6785 122.118C30.6357 121.778 30.4244 121.525 30.2089 121.558C29.8741 121.608 29.8771 121.697 30.2294 122.174C30.748 122.877 30.7734 122.873 30.6785 122.118ZM31.4554 121.04C31.4365 120.89 31.32 120.78 31.1965 120.795C31.073 120.811 31.009 121.118 31.0544 121.479C31.0997 121.84 31.2162 121.95 31.3132 121.724C31.4103 121.498 31.4742 121.19 31.4554 121.04ZM43.7126 115.122C43.9915 114.846 44.8977 114.298 45.7265 113.905C46.5552 113.512 47.55 112.852 47.937 112.438C48.324 112.024 48.6436 111.708 48.6472 111.736C48.677 111.974 50.0486 110.456 50.6996 109.465C51.6874 107.961 51.6295 106.909 50.5663 107.042C50.0174 107.111 49.7452 106.86 49.6637 106.212C49.5441 105.259 50.5017 104.757 52.211 104.875C52.9557 104.926 54.8951 103.599 55.2743 102.778C55.5574 102.165 54.3437 101.667 52.8572 101.785C51.89 101.862 51.1254 102.401 50.2507 103.622C49.5698 104.572 48.8051 105.38 48.5513 105.417C48.1838 105.471 48.1708 105.592 48.4874 106.013C48.7061 106.303 48.9483 106.393 49.0258 106.213C49.1032 106.033 49.1997 106.149 49.2401 106.471C49.3098 107.025 48.8674 107.478 47.2544 108.505C46.868 108.751 46.5465 109.352 46.54 109.839C46.5304 110.564 46.4459 110.59 46.0764 109.98C45.6979 109.356 45.6659 109.391 45.8794 110.194C46.0658 110.896 46.0009 111.142 45.638 111.11C45.3652 111.087 44.8384 111.362 44.4674 111.723C43.9996 112.177 43.666 112.165 43.3789 111.682C43.1461 111.291 42.9986 111.254 43.0418 111.598C43.1276 112.281 41.6622 114.45 41.064 114.525C40.852 114.551 40.7264 114.954 40.7849 115.42C40.8641 116.05 41.1868 116.185 42.0485 115.946C42.6849 115.77 43.4338 115.399 43.7126 115.122ZM50.128 91.5041C49.9473 91.3755 49.7297 91.578 49.6444 91.9544C49.5355 92.4349 49.6333 92.5045 49.973 92.1882C50.2491 91.9312 50.3156 91.6377 50.128 91.5041ZM321.037 55.0245C321.005 54.7691 320.664 54.5393 320.28 54.5139C319.881 54.4875 319.672 54.7155 319.791 55.0471C320.035 55.726 321.123 55.7063 321.037 55.0245ZM49.9725 85.0683L50.5279 84.9502L49.9314 84.4369C49.2575 83.857 48.3031 84.4886 48.4221 85.4357C48.4655 85.781 48.7054 85.8648 48.9589 85.6233C49.2109 85.383 49.6671 85.1333 49.9725 85.0683ZM318.768 51.4825C318.732 51.1986 318.551 50.9854 318.366 51.0086C318.181 51.0319 318.058 51.2831 318.094 51.567C318.13 51.8508 318.311 52.064 318.496 52.0408C318.681 52.0175 318.803 51.7663 318.768 51.4825ZM319.72 51.4575C319.535 51.2989 319.344 51.3452 319.295 51.5603C319.247 51.7755 319.398 51.9052 319.631 51.8486C319.889 51.7862 319.924 51.6327 319.72 51.4575ZM53.7048 83.5726C53.5202 83.414 53.3293 83.4604 53.2805 83.6754C53.2318 83.8905 53.3828 84.0203 53.6161 83.9637C53.874 83.9012 53.9088 83.7478 53.7048 83.5726ZM28.4114 85.9174C28.3686 85.5768 28.2325 85.3108 28.109 85.3263C27.9855 85.3418 27.9195 85.6331 27.9623 85.9737C28.0051 86.3144 28.1411 86.5804 28.2646 86.5649C28.3881 86.5494 28.4542 86.258 28.4114 85.9174ZM34.0455 83.561C33.9583 82.8671 33.613 83.5284 33.6013 84.4117C33.5898 85.2764 33.6275 85.3107 33.8312 84.6203C33.9652 84.1663 34.0616 83.6895 34.0455 83.561ZM36.3004 83.3551C36.2362 82.8442 36.144 82.4311 36.0955 82.4372C36.0469 82.4433 36.0016 82.8736 35.9947 83.3934C35.9878 83.9133 36.08 84.3263 36.1996 84.3113C36.3193 84.2963 36.3646 83.866 36.3004 83.3551ZM327.61 25.3055C327.426 25.1469 327.235 25.1932 327.186 25.4082C327.137 25.6234 327.288 25.7532 327.522 25.6965C327.779 25.6341 327.814 25.4807 327.61 25.3055ZM119.291 38.7033C119.322 38.3773 119.236 37.9652 119.099 37.7874C118.963 37.6096 118.845 37.8879 118.838 38.4057C118.825 39.4266 119.198 39.6721 119.291 38.7033ZM46.1015 317.863C45.9188 317.454 45.8564 317.099 45.9628 317.075C46.0693 317.052 45.9294 316.753 45.652 316.412C44.9403 315.537 45.3629 314.657 46.5325 314.579C47.1433 314.538 47.3078 314.668 47.0387 314.978C46.6591 315.415 46.5382 317.032 46.8898 316.97C47.5449 316.854 47.9194 315.985 47.702 315.084C47.4897 314.205 47.5174 314.21 47.9183 315.119C48.4631 316.355 50.2015 316.377 50.1971 315.148C50.1949 314.524 50.2867 314.516 50.6432 315.113C51.2053 316.053 51.7669 318.437 51.3482 318.106C51.1851 317.977 51.0372 317.492 51.0195 317.028C50.9971 316.438 50.9017 316.512 50.7022 317.274C50.4744 318.144 50.0159 318.388 48.4254 318.486C47.1606 318.564 46.3125 318.336 46.1015 317.863ZM42.8476 316.885C42.4845 316.413 42.4554 315.018 42.8078 314.974C43.0639 314.942 43.5085 316.662 43.3434 317.047C43.2702 317.217 43.0471 317.144 42.8476 316.885ZM46.9725 311.306C46.5864 310.241 46.5931 310.085 47.0317 309.945C47.3041 309.858 47.6728 309.722 47.8511 309.644C48.4275 309.388 48.6113 309.94 48.3675 311.194C48.0595 312.777 47.5213 312.821 46.9725 311.306ZM182.415 289.633C182.396 289.483 182.46 289.175 182.557 288.949C182.654 288.723 182.77 288.834 182.816 289.194C182.861 289.555 182.797 289.863 182.674 289.878C182.55 289.894 182.434 289.784 182.415 289.633ZM184.996 288.88C185.095 288.438 185.253 288.224 185.346 288.406C185.439 288.588 185.358 288.95 185.165 289.211C184.888 289.587 184.853 289.519 184.996 288.88ZM64.2621 302.295C64.2246 301.996 64.3049 301.375 64.4406 300.915C64.6324 300.265 64.768 300.237 65.0499 300.788C65.3318 301.339 65.3543 301.636 65.1509 302.123C64.8203 302.914 64.3513 303.005 64.2621 302.295ZM317.062 264.841C317.019 264.5 317.13 264.203 317.308 264.181C317.486 264.159 317.729 264.411 317.848 264.742C317.967 265.073 317.856 265.37 317.602 265.402C317.348 265.434 317.105 265.181 317.062 264.841ZM313.162 264.662C313.073 263.957 313.668 263.809 313.908 264.477C314.002 264.739 313.889 265.019 313.657 265.098C313.425 265.178 313.202 264.981 313.162 264.662ZM90.3555 291.599C89.9709 290.172 90.2521 289.921 91.1607 290.878C91.6347 291.378 91.9267 291.841 91.8096 291.908C90.9126 292.419 90.556 292.343 90.3555 291.599ZM284.339 265.801C284.296 265.46 284.305 265.176 284.36 265.169C284.414 265.162 284.556 265.428 284.675 265.759C284.794 266.09 284.785 266.374 284.654 266.39C284.523 266.407 284.381 266.141 284.339 265.801ZM281.034 265.671C280.883 265.251 280.799 264.733 280.848 264.519C280.979 263.94 281.3 264.728 281.305 265.639C281.308 266.278 281.255 266.284 281.034 265.67L281.034 265.671ZM281.873 265.694C281.349 265.24 281.384 264.375 281.915 264.665C282.184 264.812 282.436 265.178 282.473 265.479C282.548 266.07 282.377 266.13 281.873 265.694ZM389.134 249.089C388.786 248.409 388.789 247.665 389.139 247.621C389.324 247.597 389.529 247.996 389.593 248.507C389.714 249.474 389.482 249.769 389.134 249.089ZM109.99 280.256C109.896 279.994 110.011 279.713 110.245 279.633C110.48 279.553 110.647 279.756 110.615 280.085C110.545 280.815 110.223 280.903 109.99 280.256ZM111.881 278.938C111.887 278.422 112.056 277.957 112.256 277.905C112.456 277.854 113.058 277.629 113.594 277.406C114.298 277.113 114.498 277.187 114.312 277.669C114.099 278.221 114.109 278.333 114.373 278.308C114.548 278.291 114.651 278.459 114.601 278.681C114.55 278.903 113.915 279.263 113.189 279.481C112.088 279.811 111.87 279.72 111.881 278.938ZM20.0562 288.935C19.797 288.215 20.1272 287.428 20.4903 287.9C20.7952 288.297 20.7703 289.431 20.4558 289.471C20.3469 289.484 20.167 289.244 20.0562 288.935ZM20.1561 272.561C20.1158 272.241 20.1614 271.796 20.2573 271.572C20.3574 271.339 20.4262 271.583 20.4188 272.144C20.4043 273.235 20.268 273.452 20.1561 272.561ZM21.7627 272.036C21.7004 271.54 21.7536 271.269 21.881 271.435C22.0084 271.601 22.0871 272.003 22.0559 272.329C21.9761 273.162 21.8939 273.08 21.7627 272.036ZM402.91 142.099C402.683 141.792 402.599 141.528 402.723 141.513C402.846 141.497 403.133 141.736 403.359 142.043C403.586 142.35 403.671 142.613 403.547 142.629C403.424 142.644 403.137 142.406 402.91 142.099ZM28.2116 142.423C28.1779 142.155 28.3525 141.911 28.5995 141.88C28.8465 141.849 29.0814 142.085 29.1215 142.404C29.1616 142.723 28.9871 142.968 28.7337 142.948C28.4802 142.927 28.2453 142.692 28.2116 142.423ZM36.4722 132.149L35.7979 131.039L37.0798 130.378C37.7848 130.015 38.89 129.635 39.5358 129.535C40.1816 129.434 40.6863 129.162 40.6573 128.931C40.597 128.448 42.0551 129.241 42.3433 129.847C42.448 130.067 42.2015 130.123 41.7954 129.972C41.3409 129.802 40.8517 130.094 40.5225 130.732C40.2284 131.302 39.4607 131.862 38.8165 131.976C38.1722 132.091 37.6733 132.408 37.7077 132.682C37.8192 133.57 37.1636 133.287 36.4722 132.149ZM33.6645 132.686C33.7133 132.471 33.9042 132.425 34.0888 132.584C34.2927 132.759 34.2579 132.912 34.0001 132.975C33.7668 133.031 33.6158 132.901 33.6645 132.686ZM28.505 124.645C28.4133 123.993 28.4204 123.621 28.5208 123.817C28.6213 124.014 28.6964 124.547 28.6877 125.002C28.6781 125.505 28.6064 125.365 28.505 124.645ZM33.9835 118.67C34.0111 118.383 33.7655 117.685 33.4378 117.12C32.8515 116.109 32.8606 116.06 34.0037 114.106C35.3804 111.752 35.5259 111.684 35.7297 113.307C35.8256 114.07 35.7349 114.568 35.4935 114.604C35.176 114.652 35.1752 114.76 35.4891 115.178C35.7022 115.461 36.0496 115.57 36.2611 115.422C36.4726 115.273 36.6813 115.435 36.725 115.782C36.7686 116.129 36.4696 116.405 36.0607 116.395C35.6517 116.385 35.1191 116.434 34.8771 116.505C34.5105 116.612 34.5058 116.727 34.8493 117.192C35.2016 117.669 35.2045 117.758 34.8697 117.808C34.6543 117.841 34.513 118.146 34.5558 118.487C34.5986 118.827 34.4761 119.126 34.2835 119.15C34.091 119.174 33.956 118.958 33.9835 118.67ZM36.2268 113.313C35.9528 112.956 35.9291 112.697 36.1136 112.072C36.3725 111.194 36.7533 111.884 36.6434 113.032C36.6043 113.441 36.4205 113.565 36.2268 113.313ZM25.1643 88.2118C25.0452 87.8808 25.0994 87.5909 25.2846 87.5677C25.4698 87.5445 25.7189 87.7963 25.838 88.1273C25.9571 88.4584 25.903 88.7482 25.7177 88.7715C25.5325 88.7947 25.2835 88.5429 25.1643 88.2118ZM29.4149 84.8622C29.6033 83.7471 29.7192 83.6189 29.8192 84.4153C29.8575 84.7195 29.7449 85.1647 29.5692 85.4046C29.3019 85.7695 29.2767 85.6806 29.4149 84.8622ZM345.507 35.0551C345.679 34.2961 347.045 33.5468 347.399 34.0174C347.602 34.2882 347.672 34.5544 347.553 34.6089C346.392 35.1427 345.44 35.3504 345.507 35.0551ZM344.047 34.462C343.82 34.1588 343.937 33.9614 344.377 33.9062C344.752 33.8591 345.088 34.0528 345.124 34.3366C345.207 34.9957 344.509 35.077 344.047 34.4614L344.047 34.462ZM338.175 34.3957C337.139 33.9228 334.752 33.7899 330.345 33.9597C328.835 34.0179 327.344 33.7737 327.031 33.4171C326.691 33.0291 325.658 32.9395 324.458 33.1941C323.356 33.4281 322.446 33.5561 322.436 33.4784C322.409 33.2629 323.487 31.2842 323.643 31.2648C323.718 31.2554 323.752 31.5342 323.718 31.8843C323.683 32.2558 323.944 32.4852 324.344 32.4349C324.722 32.3875 324.996 32.07 324.953 31.7294C324.911 31.3888 324.983 31.0967 325.113 31.0803C325.244 31.0639 325.319 31.4083 325.28 31.8457C325.227 32.4337 325.272 32.467 325.453 31.9732C325.588 31.6059 325.904 31.312 326.156 31.3202C326.408 31.3281 327.156 31.3087 327.818 31.2769C328.48 31.245 329.001 31.4339 328.976 31.6965C328.95 31.9592 329.547 32.0552 330.301 31.91C331.054 31.7643 331.881 31.8835 332.137 32.1736C332.447 32.5258 332.574 32.4759 332.517 32.0237C332.47 31.651 332.58 31.5389 332.761 31.7747C332.943 32.0104 333.964 32.171 335.03 32.1316C336.097 32.0922 336.973 32.093 336.978 32.1333C336.984 32.1738 337.504 32.2336 338.136 32.2666C338.767 32.2995 339.317 32.385 339.357 32.4566C339.426 32.5787 339.681 32.7373 340.099 32.9183C340.291 33.0013 339.463 34.9322 339.261 34.8723C339.196 34.8527 338.707 34.6387 338.175 34.3957ZM328.692 32.4403C328.654 32.1423 328.428 31.923 328.188 31.9531C327.948 31.9832 327.728 32.2585 327.699 32.5649C327.669 32.8713 327.896 33.0905 328.203 33.0521C328.509 33.0136 328.729 32.7383 328.692 32.4403ZM340.478 29.1429C340.357 28.8065 340.184 28.7033 340.093 28.9137C340.003 29.1241 339.894 29.0175 339.851 28.677C339.701 27.4779 340.061 27.4135 340.478 28.565C340.71 29.2054 340.854 29.7351 340.799 29.7421C340.743 29.749 340.599 29.4793 340.478 29.1429ZM335.368 27.3305C335.049 26.7073 334.757 26.3326 334.72 26.4977C334.683 26.6629 334.172 26.9531 333.585 27.1428C332.568 27.4713 331.116 26.3575 331.33 25.4131C331.501 24.6572 333.073 24.6319 333.511 25.3779C333.959 26.1418 334.594 26.0894 334.779 25.2728C334.935 24.5858 336.099 24.5862 336.346 25.2734C336.682 26.2089 336.629 28.3775 336.269 28.4227C336.092 28.4449 335.686 27.9536 335.368 27.3305ZM337.744 27.5117C337.595 27.0969 337.614 26.9719 337.79 27.2016C337.953 27.4134 338.114 27.2953 338.148 26.9394C338.24 25.9795 338.541 26.1158 338.675 27.1777C338.812 28.2686 338.108 28.5213 337.744 27.5117ZM74.6437 55.8332C74.6924 55.618 74.8833 55.5716 75.0679 55.7304C75.2719 55.9056 75.2371 56.059 74.9793 56.1215C74.7459 56.1781 74.5949 56.0484 74.6437 55.8332ZM117.731 32.5649C117.689 32.2244 117.698 31.9401 117.753 31.9333C117.807 31.9264 117.949 32.1917 118.068 32.5227C118.187 32.8538 118.178 33.138 118.047 33.1544C117.916 33.1708 117.774 32.9056 117.731 32.5649ZM122.975 31.9708C122.52 31.2817 122.475 30.2154 122.91 30.4531C123.187 30.6049 123.319 30.3317 123.265 29.715C123.219 29.1766 123.145 28.316 123.101 27.8025C123.058 27.289 123.203 26.8108 123.424 26.7398C123.645 26.6686 123.894 26.5437 123.978 26.4617C124.062 26.3797 124.405 26.05 124.741 25.7288C125.489 25.0147 125.821 24.0463 125.565 23.3333C125.459 23.0398 125.572 22.7746 125.816 22.744C126.06 22.7134 126.355 23.0302 126.471 23.4481C126.618 23.9761 126.713 23.998 126.784 23.5202C126.966 22.2981 127.607 21.8433 128.071 22.6076C128.444 23.221 128.469 23.2014 128.219 22.4929C127.989 21.8433 128.023 21.7256 128.36 22.0034C128.604 22.2046 128.941 22.352 129.108 22.331C129.274 22.3101 129.538 22.8141 129.694 23.451C129.875 24.1954 130.108 24.4869 130.344 24.2671C130.865 23.7818 130.613 22.258 130.072 22.6238C129.645 22.9127 129.643 22.9043 130.01 22.275C130.216 21.9203 130.724 21.5677 131.139 21.4913C131.554 21.4148 132.477 21.0016 133.191 20.5727C135.039 19.4614 139.769 17.3268 141.957 16.6166C142.982 16.2841 144.261 15.8445 144.8 15.6397C145.935 15.2083 148.189 14.4655 151.151 13.547C152.298 13.1913 153.874 12.6644 154.653 12.3761C156.526 11.6833 159.559 11.2686 160.035 11.6406C160.243 11.8035 160.871 12.097 161.428 12.2927C161.986 12.4884 162.468 12.8536 162.5 13.1042C162.531 13.3548 162.394 14.2802 162.194 15.1605C161.899 16.4637 161.62 16.7762 160.694 16.842C160.017 16.8896 159.619 17.1732 159.711 17.5405C159.796 17.8801 160.646 18.0833 161.6 17.992C163.099 17.8486 164.194 18.5251 163.966 19.4529C163.864 19.8681 160.936 20.633 160.89 20.2567C160.867 20.0725 160.177 20.0946 159.356 20.3057C158.536 20.5169 157.253 20.5093 156.506 20.2882C155.758 20.0673 155.115 20.0248 155.077 20.1938C155.039 20.3627 154.581 20.6141 154.061 20.7524C153.54 20.8907 152.862 21.2542 152.554 21.5602C152.221 21.8912 151.845 21.8667 151.626 21.4997C151.425 21.1604 150.274 20.941 149.07 21.012C147.58 21.1001 146.901 20.9227 146.942 20.4564C146.975 20.0799 146.879 20.1769 146.729 20.6722C146.54 21.2917 146.154 21.4828 145.491 21.2845C144.858 21.0952 144.603 21.2077 144.748 21.6123C144.996 22.3019 144.969 22.3192 142.953 22.7252C142.157 22.8854 141.307 23.2641 141.063 23.5668C140.819 23.8695 140.59 23.8894 140.555 23.611C140.52 23.3326 140.239 23.1365 139.93 23.1752C139.621 23.214 139.395 23.4547 139.427 23.7101C139.459 23.9656 139.328 24.1944 139.135 24.2185C138.943 24.2427 138.809 24.0205 138.837 23.7246C138.905 23.0096 136.727 24.3203 136.648 25.0419C136.502 26.3629 132.463 28.1898 132.314 27.0021C132.268 26.6396 132.124 26.3562 131.993 26.3726C131.863 26.389 131.846 26.6547 131.957 26.9628C132.274 27.8438 131.828 28.4667 131.397 27.7437C131.109 27.2587 131.007 27.3033 130.999 27.9186C130.992 28.45 130.653 28.7349 130.047 28.7177C129.529 28.7032 129.138 28.9515 129.178 29.2696C129.306 30.2938 128.068 29.7659 127.699 28.6393C127.503 28.0402 127.265 27.7287 127.172 27.947C127.078 28.1653 127.082 28.5678 127.18 28.8412C127.279 29.1147 127.231 29.5134 127.074 29.7271C126.918 29.941 126.695 29.8526 126.579 29.5307C126.451 29.1739 126.179 29.3362 125.883 29.9463C125.325 31.0944 123.319 32.4915 122.975 31.9708ZM119.407 29.5612C119.27 28.4734 119.385 28.2964 119.685 29.1312C119.796 29.4393 119.806 29.8794 119.707 30.1091C119.609 30.3388 119.474 30.0928 119.407 29.5612ZM120.119 28.3853C120.204 28.009 120.421 27.8064 120.602 27.935C120.79 28.0685 120.723 28.362 120.447 28.6191C120.107 28.9353 120.01 28.8657 120.119 28.3853ZM197.272 17.1098C196.976 16.997 196.706 16.692 196.674 16.4321C196.579 15.6742 197.606 15.9637 197.803 16.7503C197.902 17.1432 197.944 17.4309 197.896 17.3897C197.849 17.3483 197.569 17.2225 197.272 17.1098ZM192.434 16.2734C192.96 15.4645 193.314 15.42 192.996 16.203C192.852 16.5565 192.581 16.8494 192.393 16.8538C192.168 16.8593 192.182 16.6616 192.434 16.2734ZM193.802 16.1604C193.694 15.8603 193.826 15.7352 194.096 15.8825C194.667 16.1948 194.787 16.6073 194.322 16.6656C194.144 16.688 193.91 16.4606 193.802 16.1604ZM164.719 18.3855C164.242 17.4501 164.394 17.362 167.164 16.9677C168.788 16.7362 170.327 16.3989 170.584 16.2177C170.841 16.0364 171.132 16.1154 171.232 16.3932C171.332 16.6709 171.716 16.8004 172.085 16.6807C173.082 16.3575 173.2 17.2585 172.212 17.6553C171.746 17.8429 171.385 17.7759 171.41 17.5072C171.491 16.6614 171.184 17.01 170.954 18.0246C170.704 19.1261 169.78 19.4348 169.453 18.5258C169.308 18.1251 169.115 18.1591 168.877 18.627C168.472 19.4231 167.941 18.9832 168.042 17.9346C168.086 17.4761 168.025 17.4406 167.861 17.8291C167.725 18.1512 167.077 18.6326 166.421 18.8988C165.481 19.2797 165.119 19.1706 164.719 18.3855ZM182.813 16.8512C182.771 16.5106 182.78 16.2264 182.835 16.2196C182.889 16.2127 183.031 16.478 183.15 16.809C183.269 17.14 183.26 17.4243 183.129 17.4407C182.998 17.4571 182.856 17.1919 182.813 16.8512ZM173.676 16.7395C173.428 16.4042 173.37 16.1642 173.53 16.1383C173.676 16.1143 173.894 16.3662 174.013 16.6972C174.282 17.4445 174.204 17.4542 173.676 16.7395ZM261.369 5.65212C261.42 5.11907 260.488 4.61652 260.374 5.11614C260.217 5.81225 259.234 6.06325 259.154 5.42778C259.105 5.03473 258.454 5.02018 257.382 5.38823C256.067 5.83947 255.483 5.76526 254.774 5.05735C254.272 4.55558 254.048 4.25142 254.276 4.38147C254.503 4.51151 254.691 4.37162 254.693 4.07098C254.694 3.77023 254.836 3.41456 255.007 3.28057C255.179 3.14673 255.358 2.74909 255.406 2.39706C255.454 2.04505 255.571 2.36719 255.667 3.11334C255.831 4.39543 255.869 4.4167 256.347 3.50245C256.8 2.63486 256.898 2.64258 257.299 3.5775C257.724 4.56877 257.733 4.56758 257.475 3.55549C257.265 2.73223 257.327 2.47319 257.746 2.4206C258.045 2.38312 258.454 2.82724 258.654 3.40749C258.857 3.99301 258.979 4.11765 258.929 3.68759C258.834 2.87573 259.469 2.48482 259.57 3.29255C259.602 3.54801 260.391 3.64508 261.322 3.50828C262.253 3.37141 263.093 3.47829 263.19 3.74573C263.286 4.01312 263.581 4.20474 263.845 4.17156C264.23 4.12332 264.289 4.27314 264.143 4.92057C263.959 5.73092 261.294 6.43621 261.369 5.65465L261.369 5.65212ZM265.052 5.17105C265.017 4.88717 265.061 4.62665 265.151 4.59203C265.24 4.55741 265.622 4.37189 266 4.17979C266.848 3.74775 267.298 4.77049 266.497 5.31177C265.706 5.84692 265.13 5.79085 265.052 5.17105ZM248.626 5.13491C248.583 4.79434 248.169 4.56321 247.706 4.62132C247.243 4.67943 246.825 5.01496 246.777 5.36691C246.719 5.79359 246.662 5.80065 246.608 5.3881C246.505 4.61287 245.137 4.59811 245.235 5.37336C245.274 5.68518 245.194 5.79529 245.058 5.61805C244.798 5.28037 242.75 4.9429 240.612 4.88561C239.919 4.86706 239.345 4.78933 239.335 4.7128C239.283 4.29773 236.328 4.66197 236.191 5.10043C235.947 5.88302 233.767 6.68111 233.683 6.01841C233.644 5.70358 233.46 5.46506 233.275 5.48829C233.089 5.51153 232.972 5.79945 233.013 6.12818C233.06 6.5013 231.493 6.81407 228.841 6.96091C226.505 7.09028 224.351 7.22959 224.053 7.27053C223.756 7.31351 223.143 7.13034 222.691 6.86815C222.197 6.5815 221.898 6.61683 221.941 6.95656C222.012 7.51935 221.215 7.52672 220.928 6.9659C220.845 6.80414 219.819 6.89273 218.646 7.16283C217.233 7.48835 216.377 7.42246 216.106 6.96743C215.788 6.43274 215.721 6.46901 215.801 7.13132C215.866 7.66862 215.814 7.75115 215.658 7.35545C215.51 6.9796 214.197 6.85043 212.371 7.03246C210.698 7.19944 205.622 7.63882 201.09 8.00957C196.558 8.38038 190.748 8.90961 188.18 9.18575C185.612 9.46237 183.488 9.51349 183.461 9.30041C183.434 9.0872 182.856 8.98253 182.177 9.06771C181.498 9.1529 180.969 9.43161 181.001 9.68706C181.033 9.94252 180.952 10.165 180.822 10.1814C180.691 10.1978 180.611 9.92467 180.645 9.57447C180.678 9.22431 180.548 8.95757 180.356 8.98172C180.163 9.00616 179.971 8.74723 179.928 8.40666C179.885 8.06603 179.743 7.80076 179.612 7.81717C179.482 7.83358 179.472 8.11786 179.591 8.44892C179.719 8.8044 179.503 9.08508 179.063 9.13449C178.5 9.19719 178.383 9.062 178.581 8.57568C178.774 8.10108 178.764 7.94033 178.544 7.96081C178.315 7.98163 178.297 7.76529 178.466 7.01735C178.587 6.48321 178.896 6.0199 179.152 5.9878C179.407 5.95571 179.579 5.63198 179.534 5.2684C179.484 4.87628 179.666 4.75298 179.98 4.96531C180.337 5.2061 180.432 5.10519 180.27 4.65681C180.138 4.29025 180.09 3.98289 180.163 3.97373C180.236 3.96457 180.445 4.52057 180.627 5.20932L180.958 6.46163L181.388 5.1027C181.684 4.17126 181.896 3.95665 182.063 4.42058C182.235 4.90041 182.33 4.84601 182.389 4.2335C182.456 3.53146 183.977 3.18509 190.51 2.38461C194.931 1.84327 200.39 1.35038 202.64 1.29035C204.891 1.23028 208.622 1.10821 210.931 1.01909C219.271 0.697114 221.429 0.689627 221.653 0.981545C222.155 1.63381 224.042 2.03139 224.258 1.53002C224.39 1.22107 224.6 1.29915 224.755 1.71521C224.954 2.25214 225.049 2.19195 225.127 1.47805C225.184 0.951871 225.268 0.799837 225.313 1.14021C225.364 1.53076 226.778 1.55736 229.145 1.21238C232.887 0.667094 239.422 0.862717 239.505 1.52257C239.529 1.71386 240.328 1.74076 241.28 1.58248C242.912 1.3111 246.796 1.68466 247.54 2.18451C247.814 2.36893 247.847 2.59985 247.715 3.38401C247.582 4.17427 247.603 4.29713 247.829 4.04378C247.982 3.87259 248.368 3.52631 248.687 3.27434C249.043 2.99201 249.179 2.53225 249.041 2.0765C248.917 1.66969 248.988 1.75831 249.199 2.27329C249.51 3.03069 249.81 3.09064 250.771 2.58674C251.447 2.23242 252.161 2.19299 252.426 2.49534C252.683 2.78783 253.182 3.02933 253.536 3.03208C254.128 3.03664 254.139 3.06467 253.672 3.38659C253.28 3.65705 253.253 3.85233 253.553 4.24987C253.976 4.81237 253.694 4.92489 250.547 5.44796C249.449 5.63022 248.672 5.50376 248.626 5.13491ZM182.666 7.75222C182.531 7.25211 182.35 7.00854 182.263 7.21088C182.014 7.79104 182.218 8.74835 182.581 8.70279C182.781 8.67766 182.814 8.30449 182.666 7.75222ZM169.836 11.5122C169.917 10.2923 169.886 10.1588 169.611 10.535C169.336 10.9103 169.305 10.7765 169.385 9.57075L169.479 8.17075L169.875 9.52344C170.331 11.0754 170.823 11.2475 170.842 9.86103C170.849 9.34119 170.773 8.92604 170.674 8.93846C170.575 8.95088 170.441 8.53963 170.376 8.02449C170.281 7.26305 170.471 7.13669 171.394 7.34883C172.169 7.52703 172.501 7.38822 172.441 6.91072C172.393 6.52238 172.709 6.16702 173.153 6.11134C173.677 6.04561 173.929 6.25226 173.885 6.71131C173.837 7.20911 173.929 7.19346 174.201 6.65711C174.52 6.0302 174.583 6.06489 174.572 6.86231C174.565 7.39013 174.47 7.83333 174.359 7.84717C174.249 7.861 174.194 8.15101 174.236 8.49158C174.399 9.78251 174.711 8.98549 174.755 7.16849C174.806 5.04942 174.812 5.03698 175.479 5.7972C175.816 6.18071 175.986 6.82412 176.049 7.95352C176.099 8.83888 176.217 9.47099 176.313 9.35808C176.408 9.24526 176.571 9.41886 176.675 9.74405C176.786 10.0937 176.289 10.4508 175.457 10.6183C174.172 10.877 174.015 10.7765 173.62 9.44767C173.195 8.01492 172.284 7.4774 172.445 8.75348C172.49 9.11427 172.606 9.22655 172.702 9.00316C172.8 8.77388 172.871 9.00589 172.864 9.53503C172.856 10.0832 172.684 10.3355 172.449 10.1419C172.187 9.92659 172.133 10.0509 172.294 10.4972C172.576 11.2806 171.904 11.9695 171.005 11.8189C170.685 11.7653 170.269 11.9922 170.082 12.3232C169.777 12.8626 169.751 12.7783 169.836 11.5122ZM175.686 8.41459C175.714 8.12277 175.594 7.90192 175.42 7.92379C175.245 7.94567 175.184 8.18927 175.283 8.46512C175.382 8.74097 175.502 8.96185 175.549 8.95593C175.596 8.95001 175.658 8.70639 175.686 8.41459ZM166.826 12.009C166.72 11.7156 166.817 11.3051 167.041 11.0967C167.312 10.8443 167.36 10.3942 167.186 9.74883C167.043 9.21584 167.02 8.76783 167.136 8.75326C167.444 8.71462 167.649 10.7438 167.433 11.6966C167.214 12.663 167.085 12.7294 166.826 12.009ZM167.986 10.1144C167.992 9.65235 168.026 9.27066 168.062 9.26623C168.097 9.2618 168.224 9.62326 168.344 10.0695C168.465 10.5157 168.431 10.8974 168.269 10.9177C168.107 10.938 167.98 10.5765 167.986 10.1144ZM168.634 8.27083C168.811 7.74069 169.176 7.27028 169.445 7.22549C169.978 7.13642 170.437 8.03314 170.174 8.64722C170.083 8.85757 169.931 8.71442 169.834 8.32854C169.702 7.80164 169.561 7.81825 169.268 8.39393C168.705 9.49934 168.253 9.41023 168.634 8.26911L168.634 8.27083ZM165.64 8.56092C165.689 8.34577 165.88 8.29946 166.064 8.45813C166.268 8.63333 166.233 8.78676 165.975 8.84926C165.742 8.90577 165.591 8.77606 165.64 8.56092ZM177.449 6.83036C177.097 6.35346 177.094 6.26372 177.429 6.21348C177.644 6.18075 177.855 6.43338 177.898 6.77402C177.993 7.52933 177.968 7.53251 177.449 6.83036ZM176.125 6.03842C175.921 5.28223 175.972 5.22199 176.401 5.71129C177.018 6.41428 177.126 6.87092 176.687 6.92594C176.515 6.94753 176.262 6.54811 176.125 6.03842Z" fill="#9D9D9D"/>
</svg>
