<svg width="62" height="23" viewBox="0 0 62 23" fill="none" xmlns="http://www.w3.org/2000/svg">
<path d="M58.0154 10.8417V11.0098V10.8417Z" fill="white"/>
<path d="M58.0155 12.0183V12.1864C56.2721 12.9988 54.8331 13.8952 53.6432 14.8477C52.4532 15.8002 51.4847 16.7247 50.7375 17.6492C49.9903 18.5737 49.2432 19.6382 48.496 20.7868L50.9312 23C51.8721 21.2351 52.8683 19.7223 53.8922 18.4616C54.9161 17.201 56.0784 16.0524 57.3513 15.0438C58.652 14.0353 60.174 13.1108 62.0004 12.2704V10.7296C60.2016 9.86114 58.652 8.93666 57.3513 7.95615C56.0507 6.94762 54.9161 5.82703 53.8922 4.53836C52.8683 3.2777 51.8998 1.76492 50.9312 0L48.496 2.21315C49.2432 3.38977 49.9903 4.42631 50.7375 5.35079C51.4847 6.27528 52.4532 7.22777 53.6432 8.15225" fill="white"/>
<path d="M0.795898 10.1693H56.2167L58.4028 8.62852V14.3995L56.2167 12.8587H2.50012" fill="white"/>
</svg>
