<?xml version="1.0" encoding="utf-8"?>
<!-- Generator: Adobe Illustrator 24.3.0, SVG Export Plug-In . SVG Version: 6.00 Build 0)  -->
<svg version="1.1" id="Layer_1" xmlns="http://www.w3.org/2000/svg" xmlns:xlink="http://www.w3.org/1999/xlink" x="0px" y="0px"
	 viewBox="0 0 1439 224.3" preserveAspectRatio="none" style="enable-background:new 0 0 1439 224.3;" xml:space="preserve">
<style type="text/css">
	.stcolor{fill:#FFFFFF;}
</style>
<g>
	<path class="stcolor" d="M276.9,78.1c0.8-1.4,1.1-1.5,1.5-0.2c0.2,1,0.6,1.3,0.9,0.8c0.7-1.5-0.5-3.7-1.9-3.5c-0.7,0.1-1.7,1.3-2.1,2.6
		v0C274.3,80.6,275.5,80.9,276.9,78.1z"/>
	<path class="stcolor" d="M274.3,84.4c0.4-0.1,0.5-1,0.2-2.1c-0.3-1.1-0.6-2-0.7-2c-0.1,0-0.2,1-0.2,2.1
		C273.6,83.5,273.9,84.4,274.3,84.4z"/>
	<path class="stcolor" d="M287.9,97.2c-0.4,0.1-0.3,0.7,0.4,1.5c1.4,1.8,1.6,1.7,0.9-0.1C288.8,97.8,288.3,97.2,287.9,97.2z"/>
	<path class="stcolor" d="M280.6,79.4c0.3,0,0.4,1,0.4,2.3c-0.1,3.4-1.3,3-2.5-0.8l-1-3.3l-0.3,3.5c-0.2,3-0.1,3.3,0.6,2.4
		c0.7-0.9,0.8-0.6,0.6,2.4c-0.2,3.1-0.2,3.3,0.6,2c0.5-0.8,1.6-1.4,2.4-1.3c2.3,0.4,4.1-1.4,3.4-3.3c-0.4-1.1-0.3-1.4,0.4-0.9
		c0.6,0.5,1.1-0.2,1.1-1.5c0-1.3-0.2-1.9-0.4-1.3c-0.3,0.6-0.6,0.3-0.7-0.6c-0.4-3.2,2-1.8,3,1.7c1,3.3,1.4,3.5,4.8,2.9
		c2.2-0.4,3.5-1.3,3.2-2.2c-0.3-0.8-0.7-1.2-0.9-1c-0.3,0.3-0.5-1.3-0.7-3.5c-0.1-2.8-0.6-4.4-1.4-5.3c-1.7-1.9-1.7-1.8-1.9,3.4
		c-0.1,4.5-1,6.5-1.4,3.3c-0.1-0.8,0-1.6,0.3-1.6c0.3,0,0.5-1.1,0.6-2.4c0-2-0.1-2.1-1-0.5c-0.7,1.3-1,1.4-0.8,0.1
		c0.1-1.1-0.5-1.6-1.9-1.5c-1.2,0.1-2,1-1.9,2c0.1,1.2-0.7,1.5-2.7,1.1c-2.4-0.5-2.9-0.2-2.7,1.7C280,78.4,280.3,79.5,280.6,79.4z"
		/>
	<path class="stcolor" d="M272.1,86.3c0.6-2.4,0.1-7.4-0.7-7.3c-0.3,0-0.3,1.1,0.1,2.5c0.4,1.6,0.3,2.7-0.4,3.3
		c-0.6,0.5-0.8,1.5-0.6,2.3C271.2,88.9,271.5,88.7,272.1,86.3z"/>
	<path class="stcolor" d="M340.6,97c0.3,0.7,0.9,1.3,1.3,1.2c1.2-0.2,0.9-1.2-0.6-1.9C340.7,95.9,340.3,96.2,340.6,97z"/>
	<path class="stcolor" d="M348.1,97.6c0.1,0.6,0.8,1.4,1.5,1.7c0.8,0.3,1.5,0.6,1.6,0.7c0.1,0.1,0-0.6-0.2-1.6
		C350.5,96.4,347.8,95.7,348.1,97.6z"/>
	<path class="stcolor" d="M337,97.3c-0.7,1-0.7,1.5-0.1,1.4c0.5,0,1.2-0.7,1.6-1.6C339.3,95.2,338.4,95.3,337,97.3z"/>
	<path class="stcolor" d="M312.1,97.3c-0.1,0-0.2,0.7-0.1,1.6s0.5,1.5,0.8,1.5c0.3,0,0.4-0.7,0.1-1.6S312.2,97.3,312.1,97.3z"/>
	<path class="stcolor" d="M299.4,74c-0.1-0.8-0.7-1.5-1.2-1.4c-0.9,0.1-0.9,0.4,0,1.5C299.6,75.8,299.6,75.8,299.4,74z"/>
	<path class="stcolor" d="M296.2,74.4c1.1-0.1,0.9-1.3-0.7-3c-1.1-1.2-1.2-1.1-0.7,0.8C295.1,73.4,295.8,74.4,296.2,74.4z"/>
	<path class="stcolor" d="M31,197.9c0.7-0.2,0.8-0.5,0.2-1c-0.5-0.4-1-0.3-1.1,0.3C30,197.7,30.4,198.1,31,197.9z"/>
	<path class="stcolor" d="M147.7,132.7c0.3-0.6,0.2-1.7,0-2.4c-0.8-2.1-1.1-1.6-0.7,1.1C147.1,132.7,147.5,133.3,147.7,132.7z"/>
	<path class="stcolor" d="M143.4,140.3c0.3,0,0.4-0.7,0.1-1.6c-0.3-0.8-0.7-1.5-0.8-1.5c-0.1,0-0.2,0.7-0.1,1.6
		C142.7,139.7,143,140.3,143.4,140.3z"/>
	<path class="stcolor" d="M149.7,129c0.7-0.6,0.9-1.4,0.4-1.7c-0.5-0.3-1,0.2-1.3,1.1C148.5,129.6,148.8,129.8,149.7,129z"/>
	<path class="stcolor" d="M269.4,104.2c1.7-0.7,3.4-1.9,3.8-2.7c0.4-1,0.6-0.9,0.5,0.3c-0.3,2.6,1.1,3.7,2.2,1.7
		c0.6-1.2,1.1-1.3,1.5-0.3c0.8,2.2,3.2,1.5,3.9-1.3c0.6-2.5,1.4-3.4,1.2-1.3c-0.1,0.7,0.9,0.8,2.1,0.4c2.6-1,2.3-3.2-0.3-2.4
		c-1,0.3-2,0-2.2-0.7c-0.3-0.7-1-0.9-1.7-0.4c-0.7,0.5-4.7,1.3-8.9,1.9c-7.2,1-7.6,1.2-6.4,3.6C266,104.9,266.9,105.2,269.4,104.2z"
		/>
	<path class="stcolor" d="M163.8,132.2c0.8-1.5,1.5-1.9,1.8-1c0.3,0.8,0.9,1,1.3,0.5c0.4-0.5,0.5-1.5,0.3-2.2c-0.3-0.7-0.3-1.7,0-2.2
		c0.2-0.5,0.9,0.2,1.4,1.7c0.9,2.8,4.2,4.1,3.8,1.5c-0.1-0.8,0.9-1.4,2.3-1.4c1.6,0,2.5-0.7,2.5-2c0-1.5,0.3-1.6,1-0.4
		c1.1,1.8,2.3,0.2,1.5-1.9c-0.3-0.8-0.2-1.4,0.1-1.5c0.3,0,0.7,0.7,0.8,1.6c0.4,2.9,10.9-1.7,11.3-4.9c0.2-1.8,5.9-5.1,5.7-3.3
		c-0.1,0.7,0.3,1.3,0.8,1.2s0.8-0.6,0.8-1.3c-0.1-0.6,0.5-1.2,1.3-1.3c0.8-0.1,1.5,0.4,1.6,1.1c0.1,0.7,0.7,0.6,1.3-0.1
		c0.6-0.8,2.9-1.7,4.9-2.1c5.2-1,5.3-1.1,4.7-2.8c-0.4-1,0.3-1.3,1.9-0.8c1.7,0.5,2.7,0,3.2-1.5c0.4-1.2,0.7-1.5,0.6-0.5
		c-0.1,1.2,1.6,1.6,5.5,1.3c3.1-0.2,6.1,0.3,6.6,1.2c0.6,0.9,1.5,1,2.4,0.1c0.8-0.8,2.6-1.7,3.9-2c1.4-0.4,2.5-1,2.7-1.4
		c0.1-0.4,1.8-0.3,3.7,0.2c1.9,0.5,5.3,0.5,7.4,0c2.1-0.5,3.9-0.6,4-0.1c0.1,0.9,7.7-1,8-2c0.6-2.3-2.2-4-6.1-3.6
		c-2.5,0.2-4.7-0.2-4.9-1.1c-0.2-0.9,0.8-1.6,2.6-1.7c2.4-0.2,3.1-1,3.9-4.2c0.5-2.2,0.9-4.5,0.8-5.1c-0.1-0.6-1.3-1.5-2.8-2
		c-1.4-0.5-3.1-1.2-3.6-1.6c-1.2-0.9-9.1,0.2-14,1.9c-2,0.7-6.1,2.1-9.1,3c-7.7,2.3-13.6,4.2-16.5,5.3c-1.4,0.5-4.7,1.6-7.4,2.5
		c-5.7,1.8-18,7.2-22.9,9.9c-1.9,1.1-4.3,2.1-5.3,2.3c-1.1,0.2-2.4,1.1-2.9,2c-1,1.6-1,1.6,0.2,0.9c1.4-0.9,2,2.9,0.7,4.1
		c-0.6,0.5-1.2-0.2-1.7-2c-0.4-1.6-1.1-2.8-1.5-2.8c-0.4,0.1-1.3-0.3-1.9-0.8c-0.9-0.7-1-0.4-0.4,1.2c0.6,1.8,0.6,1.8-0.4,0.3
		c-1.2-1.9-2.9-0.8-3.4,2.3c-0.2,1.2-0.4,1.1-0.8-0.2c-0.3-1-1.1-1.8-1.7-1.7c-0.6,0.1-0.9,0.7-0.7,1.5c0.7,1.8-0.2,4.2-2.2,6
		c-0.9,0.8-1.8,1.6-2,1.8c-0.2,0.2-0.9,0.5-1.4,0.7c-0.6,0.2-1,1.4-0.9,2.6c0.1,1.3,0.3,3.4,0.4,4.7c0.1,1.5-0.2,2.2-0.9,1.8
		c-1.1-0.6-1,2.1,0.1,3.8C157.1,138.6,162.3,135.1,163.8,132.2z"/>
	<path class="stcolor" d="M301.1,76.9c0.6-0.1,0.6,0.3,0.1,1.5c-0.5,1.2-0.2,1.5,1.2,1.4c1.1-0.1,1.7-0.8,1.4-1.7
		c-0.3-0.8-0.3-1.5,0.1-1.6c0.3,0,0.7,0.6,0.8,1.5c0.1,0.8,0.6,1.5,1.1,1.4c0.5-0.1,0.8,0.6,0.7,1.5c-0.1,0.9,0.1,1.5,0.5,1.5
		c0.3,0,0.6-0.6,0.5-1.2c-0.1-0.6,1.3-1.3,3.1-1.6c1.8-0.2,3.3,0,3.3,0.6c0.1,0.5,5.6,0.4,12.3-0.4c6.7-0.7,21.8-2.1,33.6-3.1
		c11.8-1,25-2.2,29.3-2.6c4.7-0.5,8.2-0.2,8.5,0.7c0.4,1,0.5,0.8,0.4-0.6c-0.2-1.6,0-1.7,0.8-0.4c0.7,1.1,2.9,1.3,6.6,0.4
		c3.1-0.7,5.7-0.9,5.9-0.5c0.7,1.4,2.8,1.4,2.6,0c-0.1-0.8,0.7-0.9,2-0.2c1.2,0.6,2.8,1.1,3.5,1c0.8-0.1,6.4-0.5,12.5-0.8
		c6.9-0.4,11-1.2,10.9-2.1c-0.1-0.8,0.2-1.5,0.7-1.6c0.5-0.1,1,0.5,1.1,1.3c0.2,1.6,5.9-0.4,6.5-2.3c0.4-1.1,8.1-2,8.2-1
		c0,0.2,1.5,0.4,3.3,0.4c5.6,0.1,10.9,0.9,11.6,1.7c0.4,0.4,0.6,0.2,0.5-0.6c-0.2-1.9,3.3-1.9,3.6,0c0.1,1,0.3,1,0.4-0.1
		c0.1-0.9,1.2-1.7,2.4-1.9c1.2-0.2,2.3,0.4,2.4,1.3c0.1,0.9,2.1,1.2,5,0.7c8.2-1.3,8.9-1.6,7.8-3c-0.8-1-0.7-1.5,0.3-2.1
		c1.2-0.8,1.2-0.9-0.3-0.9c-0.9,0-2.2-0.6-2.9-1.3c-0.7-0.7-2.5-0.6-4.3,0.3c-2.5,1.3-3.3,1.1-4.1-0.8c-0.5-1.3-0.7-1.5-0.4-0.5
		c0.4,1.1,0,2.3-0.9,3c-0.8,0.6-1.8,1.5-2.2,1.9c-0.6,0.6-0.6,0.3-0.3-1.6c0.4-1.9,0.3-2.5-0.4-3c-1.9-1.2-12-2.1-16.3-1.4
		c-2.5,0.4-4.6,0.4-4.6-0.1c-0.2-1.6-17.2-2-26.9-0.6c-6.2,0.9-9.8,0.8-10-0.1c-0.1-0.8-0.3-0.5-0.5,0.8c-0.2,1.8-0.5,1.9-1,0.6
		c-0.4-1-0.9-1.2-1.3-0.5c-0.6,1.2-5.5,0.3-6.8-1.3c-0.6-0.7-6.2-0.7-27.9,0.3c-6,0.3-15.7,0.6-21.6,0.8c-5.9,0.2-20.1,1.5-31.6,2.9
		c-17,2.1-21,3-21.1,4.7c-0.2,1.5-0.4,1.7-0.9,0.5c-0.4-1.1-1-0.6-1.8,1.7l-1.1,3.4l-0.8-3.1c-0.5-1.7-1-3.1-1.2-3.1
		c-0.2,0-0.1,0.8,0.3,1.7c0.4,1.1,0.2,1.4-0.8,0.8c-0.8-0.5-1.3-0.2-1.2,0.8c0.1,0.9-0.3,1.7-1,1.8c-0.7,0.1-1.5,1.2-1.8,2.6
		C300.4,76.4,300.5,76.9,301.1,76.9z"/>
	<path class="stcolor" d="M499.3,68.5c1.8,1.7,3.3,1.9,6.8,0.8c2.8-0.9,4.5-0.9,4.6,0.1c0.2,1.6,2.8,0.9,3.2-0.8c0.3-1.2,2.7,0,2.6,1.3
		l0,0c-0.2,1.9,6.7,0.1,7.2-1.9c0.4-1.6,0.2-2-0.8-1.9c-0.7,0.1-1.5-0.4-1.7-1c-0.2-0.7-2.4-0.9-4.9-0.6c-2.4,0.4-4.5,0.1-4.6-0.5
		c-0.3-2-1.9-1-1.7,1c0.1,1.1-0.2,0.8-0.7-0.7c-0.5-1.4-1.6-2.5-2.3-2.4c-1.1,0.1-1.3,0.8-0.7,2.8c0.7,2.5,0.6,2.5-0.5,0.1
		c-1-2.3-1.3-2.3-2.5-0.2c-1.3,2.3-1.4,2.2-1.8-1c-0.2-1.8-0.5-2.6-0.7-1.8c-0.1,0.9-0.6,1.9-1.1,2.2c-0.4,0.3-0.8,1.2-0.8,2
		c0,0.7-0.5,1.1-1.1,0.8C497.4,66.5,498,67.3,499.3,68.5z"/>
	<path class="stcolor" d="M717.1,122c-0.3-2.6-1.1-3-1.4-0.6c-0.1,0.9-0.5,1.2-0.9,0.7c-0.5-0.6-0.5-0.3-0.1,0.8
		C715.6,125.4,717.5,124.7,717.1,122z"/>
	<path class="stcolor" d="M707.6,134.4c-2.8,0.1-5.4-0.3-5.9-0.8c-0.5-0.6-0.8-0.3-0.6,0.6c0.1,1.1-0.2,1.2-1,0.4
		c-0.7-0.7-2.8-1-4.8-0.6c-2,0.4-3.5,0.1-3.4-0.5c0.1-0.7-1.3-1.1-3-1c-1.7,0.1-3.7,0.1-4.3,0.1s-1.5,0.7-1.8,1.6
		c-0.5,1.2-0.6,1.1-0.5-0.3c0.1-1.1-0.1-1.9-0.4-1.9c-0.3,0-0.5,0.8-0.4,1.6c0.1,0.8-0.6,1.6-1.6,1.8c-1,0.1-1.7-0.4-1.6-1.4
		c0.1-0.9,0-1.6-0.2-1.5c-0.4,0.1-3.2,5-3.2,5.5c0,0.2,2.4-0.1,5.3-0.7c3.1-0.7,5.8-0.4,6.7,0.5c0.8,0.9,4.7,1.5,8.6,1.3
		c11.5-0.5,17.7-0.2,20.4,1c1.4,0.6,2.6,1.1,2.8,1.2c0.5,0.1,2.7-4.7,2.2-4.9c-1.1-0.4-1.7-0.8-1.9-1.1c-0.1-0.2-1.5-0.4-3.2-0.5
		c-1.6-0.1-3-0.2-3-0.3C712.6,134.2,710.3,134.3,707.6,134.4z"/>
	<path class="stcolor" d="M731,140c1.2,1.5,3,1.3,2.8-0.3c-0.1-0.7-1-1.2-1.9-1.1C730.7,138.8,730.4,139.3,731,140L731,140z"/>
	<path class="stcolor" d="M720.8,126.3c0.2-0.5,0.7-0.3,1,0.6c0.3,0.8,0.7,1.5,0.8,1.5c0.1,0-0.2-1.3-0.8-2.9c-1.1-2.8-2-2.7-1.6,0.3
		C720.3,126.6,720.6,126.8,720.8,126.3z"/>
	<path class="stcolor" d="M703.9,122c1.5-0.5,2.9-1.2,3-1.6c0.1-0.4,0.9,0.5,1.7,2.1c0.8,1.5,1.9,2.8,2.3,2.7c0.9-0.1,1.1-5.5,0.2-7.8
		c-0.6-1.7-3.7-1.7-4.1,0c-0.5,2-2.1,2.2-3.3,0.3c-1.1-1.8-5.2-1.8-5.7,0.1C697.5,120.1,701.2,122.9,703.9,122z"/>
	<path class="stcolor" d="M268.4,79.3c0.7-0.2,0.8-0.5,0.2-1c-0.5-0.4-1-0.3-1.1,0.3C267.4,79.1,267.8,79.4,268.4,79.3z"/>
	<path class="stcolor" d="M740.1,140.3c0.3-0.1,0.1-0.8-0.4-1.5c-0.9-1.2-4.5,0.7-4.9,2.6C734.6,142.2,737.1,141.7,740.1,140.3z"/>
	<path class="stcolor" d="M529.8,68.9c2.1-1.4,0.9-3.9-1.3-2.8c-1,0.5-2,0.9-2.2,1c-0.2,0.1-0.4,0.7-0.3,1.4
		C526.2,70.2,527.7,70.3,529.8,68.9z"/>
	<path class="stcolor" d="M1319.5,124.6c0.6-0.2,0.9-0.9,0.7-1.5c-0.6-1.6-1.4-1.4-1.6,0.4C1318.4,124.3,1318.9,124.8,1319.5,124.6z"/>
	<path class="stcolor" d="M1371.4,94.6c-0.5-1.8-1.4-2-3.8-0.7c-0.3,0.2,0.5,1.3,1.7,2.5C1371.6,98.8,1372.4,98.2,1371.4,94.6z"/>
	<path class="stcolor" d="M1308.1,127.1c-0.1,0.6,0.1,1,0.6,0.9c0.7-0.1,0.7,0.2,0.2,1.6c-0.5,1.2,0,1.4,1.9,0.6c1.4-0.6,3-1.1,3.5-1.3
		c0.5-0.1,1-1.3,1-2.6c0-1.9-0.5-2.2-3.4-1.3C1309.9,125.6,1308.3,126.5,1308.1,127.1z"/>
	<path class="stcolor" d="M1437.1,68.2c-0.5,1.2-0.5,1.9,0.2,3.3c0.7,1.4,1.1,1.3,1.6-0.3c0-0.1,0.1-0.2,0.1-0.3v-4.1
		C1438.5,66.2,1437.7,66.7,1437.1,68.2z"/>
	<path class="stcolor" d="M791.6,164.9c-0.1-0.8-0.7-1.3-1.3-1.1c-0.6,0.2-0.9,0.9-0.7,1.5C790.3,167,791.8,166.7,791.6,164.9z"/>
	<path class="stcolor" d="M780.8,166.2c0.5-0.1,0.8-0.8,0.7-1.6c-0.1-0.8-0.7-1.5-1.4-1.4s-1,0.8-0.7,1.6
		C779.7,165.6,780.4,166.2,780.8,166.2z"/>
	<path class="stcolor" d="M1131.6,102.7c0.3-0.6,0.4-1.3,0.4-1.7c-0.1-0.4-0.3-0.6-0.7-0.6c-0.3,0-0.5,0.8-0.4,1.7
		C1131.1,102.9,1131.3,103.2,1131.6,102.7z"/>
	<path class="stcolor" d="M866.5,163.2c0.1,0,0.2-0.7,0.1-1.6c-0.1-0.8-0.5-1.5-0.8-1.5c-0.3,0-0.4,0.7-0.1,1.6
		C866,162.6,866.4,163.2,866.5,163.2z"/>
	<path class="stcolor" d="M1125.3,102.9c0.4-1.6,0.3-1.8-0.4-0.8c-0.5,0.6-0.7,1.5-0.5,2C1124.6,104.5,1125,104,1125.3,102.9z"/>
	<path class="stcolor" d="M872.9,164.4c1.4,0.7,1.5-1.4,0.1-2.6c-1.3-1.1-1.7-0.9-1.6,0.5C871.5,163.2,872.2,164.1,872.9,164.4z"/>
	<path class="stcolor" d="M875.6,164.8c0.1-0.5-0.1-1.8-0.5-2.9v0c-0.6-1.5-0.7-1.5-0.7,0.1C874.5,164.3,875.3,166.2,875.6,164.8z"/>
	<path class="stcolor" d="M1433.9,73.3c0.7,1.9-1.6,0.2-2.3-1.7c-0.3-0.8-1.2-0.2-2,1.3c-0.8,1.5-2.1,2.7-2.8,2.7
		c-0.8,0-4.2,0.8-7.7,1.8c-4.5,1.3-6.6,2.6-7.4,4.6c-0.6,1.6-1.6,3.3-2.2,3.9c-0.6,0.6-0.9,1.7-0.8,2.5c0.2,0.8-0.1,1.6-0.7,1.8
		c-9.9,3.4-11.1,4.2-10.3,6.5c0.3,0.7-0.5,1.8-1.6,2.4c-1.2,0.6-3.1,2.1-4.2,3.2c-1.2,1.1-3.7,2.4-5.6,2.8c-1.9,0.4-3.9,0.9-4.4,1.1
		c-0.5,0.2-1.3,1.8-1.7,3.5c-0.4,1.8-1.2,3.1-1.9,3c-1.7-0.3-5.8,2.7-5.7,4.2c0.2,1.2-4.5,4.6-5.6,4.1c-0.3-0.1-0.4,0.5-0.3,1.4
		c0.1,0.9-0.1,1.3-0.4,0.8s-0.7-0.2-0.8,0.6c-0.1,0.8-1.5,1.2-3.1,1c-1.6-0.2-3.3,0.4-3.9,1.4c-0.5,0.9-4,2.9-7.7,4.4
		c-3.7,1.5-7.9,3.5-9.2,4.5c-1.3,1-9.8,3-18.7,4.5c-9,1.4-16.7,3.1-17.1,3.7c-0.4,0.6-1.7,0.3-2.7-0.6c-1.1-0.9-2.1-1.7-2.3-1.8
		c-0.2-0.1-1.4-1.1-2.7-2.3c-1.8-1.6-3.4-1.7-7.2-0.3c-7.2,2.7-37,7.5-37.2,6c-0.2-1.4,2.2-3.9,6.8-7c1.7-1.1,3.8-2.9,4.7-3.8
		c0.9-1,2.4-1.4,3.2-1c0.9,0.4,2.6-0.3,3.9-1.5c1.3-1.2,2.6-2.3,2.9-2.4c0.8-0.3,0.2-7.2-0.6-7c-0.4,0-0.6-0.6-0.5-1.5
		c0.1-0.9,0.6-1.7,1.2-1.7c0.5-0.1,2.3-2.4,3.9-5.1c1.6-2.7,3.5-5.1,4.2-5.2c0.7-0.1,1.3-0.8,1.4-1.6c0.1-0.8,1.7-2.1,3.7-3
		c1.9-0.8,4.9-2.7,6.5-4.1c1.7-1.4,3.3-2.5,3.6-2.4c1,0.5,3.5-3.9,3.9-7c0.2-1.7,0.9-3.2,1.6-3.2c0.6-0.1,1-1.1,0.9-2.3
		c-0.2-1.4,0.6-2.7,2.1-3.6c1.9-1.1,2.1-1.6,1-2.4c-0.7-0.5-1.5-0.6-1.7-0.1c-0.2,0.5-0.5-0.7-0.5-2.6c-0.1-2.3-0.3-3.2-0.7-2.7
		c-0.3,0.4-0.5,1.3-0.3,2.1c0.5,2.8-0.7,4.9-1.7,2.9c-0.8-1.6-0.8-2-0.1-2.1c0.7-0.1,0.7-0.7-0.1-3.1c-0.7-2.2-0.8-3-0.3-3.1
		c0.4,0,0.4-1.1,0-2.4c-0.4-1.3-0.3-2,0.1-1.5c0.4,0.5,0.6,0.2,0.5-0.6c-0.1-0.8-0.6-1.7-1-2.1c-0.6-0.4-0.7-1.2-0.3-3.5
		c0.4-2.3,0.3-3-0.3-3.5c-0.7-0.4-0.8-1.1-0.4-2.8c0.3-1.8,0.2-2.2-0.6-2.1c-0.6,0.1-1.6-2.1-2.5-5.2c-0.8-2.9-1.8-4.9-2-4.3
		c-0.2,0.5-0.7-0.8-1-2.9l0,0c-0.3-2.2-0.6-3.9-0.7-3.9c-0.1,0-1.4,0.9-3,1.9c-1.5,1-4.5,2.5-6.7,3.3c-2.1,0.8-5.4,2.2-7.2,3.2
		c-4.4,2.3-14.6,5.7-22.1,7.3c-0.9,0.2-2,2-2.5,4.2c-1.5,6.9-12.1,13.9-26.7,17.7c-7.9,2-22.4,7.6-24.9,9.5c-0.8,0.6-6.3,1.9-12.4,3
		c-6.1,1.1-14.3,3.2-18.4,4.7c-4,1.5-7.9,2.8-8.7,3c-0.7,0.2-1.2,0.9-1.1,1.6c0.1,0.7-0.1,0.9-0.5,0.4c-0.4-0.4-0.6,0.1-0.6,1.1
		c0,1.4-0.4,1.2-1.4-0.6c-1.7-3.2-3.4-3.2-2.5,0.1c0.4,1.3,0.7,2.7,0.7,3c0,0.4,1,0.5,2.1,0.4c1.1-0.1,2.4,0.7,3,2
		c0.6,1.2,0.9,2.2,0.7,2.2c-0.2,0-1.6,1-3.2,2.2c-1.6,1.2-7.1,2.9-12.2,3.7c-5.1,0.8-11.2,2.3-13.4,3.1c-3.6,1.4-4.1,1.3-4.4-1
		c-0.3-2.1-0.6-2.4-2.1-1.3c-1,0.7-2,2-2.3,2.8c-0.3,0.8-1.6,1.7-3,1.8c-1.4,0.2-4.9,1.4-7.9,2.8c-2.9,1.4-5.9,2.4-6.5,2.4
		c-0.7-0.1-1.7-0.2-2.4-0.2c-0.7-0.1-2.1,0.5-3.1,1.3c-1.8,1.3-3.8,1.8-5,1.1c-1-0.5-6.1,2.9-7,4.8c-0.5,1-3.6,2.3-6.9,2.9
		c-3.2,0.5-6.5,1.5-7.2,2.1c-0.7,0.6-8.9,2.4-18.1,4c-9.2,1.6-19.3,3.5-22.3,4.2c-3.7,0.8-6.1,0.7-7.1-0.5c-1.6-1.8-6.4,0.3-6.8,2.9
		c-0.1,0.7-0.7,2.3-1.4,3.5c-0.7,1.3-0.9,2.4-0.4,2.8c3.2,2.2-1.1,9.9-5.7,10.2c-5.9,0.4-24.7,4.8-25.6,5.9
		c-0.5,0.6-2.5,0.8-4.6,0.5c-2.1-0.4-14.1,0.7-26.8,2.5c-30.1,4.1-29.2,4-35.7,4.2c-3.1,0.1-6-0.3-6.5-0.9c-0.6-0.8-0.7-0.4-0.2,1.2
		c0.5,1.7,0.4,2.1-0.4,1.5c-0.6-0.5-1.1-1.4-1.2-2c-0.1-0.6-0.7-1.1-1.5-1c-0.7,0.1-1.7-0.1-2.3-0.3c-0.6-0.3-0.8,0.5-0.4,2.5
		c0.5,2.6,0.4,2.7-0.7,0.9c-1.4-2.2-2.4-2.4-12.2-1.8c-3.6,0.2-6.5-0.1-6.5-0.8c0.2-1.8-3-3-4-1.5c-1.3,1.8-5,1.5-8.9-0.8
		c-0.7-0.4-2.2-0.8-3.3-0.8c-1.1,0-2.4-0.8-2.8-1.7c-0.5-0.9-1.6-1.1-2.5-0.5c-1.1,0.7-1.9,0.4-2.4-1c-0.7-1.8-0.8-1.7-1.1,0.3
		c-0.2,1.9-2.6,2.6-14.2,4.2c-7.6,1-16.6,1.7-19.9,1.4c-3.3-0.3-12-0.1-19.2,0.5c-7.3,0.5-14.9,0.8-16.8,0.6
		c-5.9-0.6-14.6-1-20.3-0.8c-7.8,0.2-18.7,0-21.1-0.4c-1.2-0.2-4.2-0.6-6.6-0.8c-2.5-0.2-4.7-0.7-5-1c-0.2-0.3-3.8-0.8-7.9-1.2
		c-4.1-0.4-10.3-1.3-13.8-2c-3.5-0.7-9.7-1-13.7-0.6c-7.3,0.7-19-1.2-33-5.4c-6.9-2.1-14.6-1.1-13.5,1.7c0.5,1.3-27,4.2-28.8,3.1
		c-0.9-0.6-2,0.1-3,1.7c0,0.1-0.1,0.1-0.1,0.2c-0.3,0-0.7,0-1-0.1c-2.5-0.2-4.8-0.7-5.2-1.2c-0.4-0.5-3.7-0.7-7.5-0.4
		c-5.4,0.4-7,0-7.8-1.9c-0.5-1.3-2-2.4-3.3-2.5c-1.3-0.1-2.9-0.6-3.6-1.2c-0.7-0.6-1.7-1.3-2.2-1.6c-0.5-0.3-5.6-0.7-11.4-0.8
		c-5.8-0.1-11.9-0.4-13.7-0.5c-6.4-0.4-14.7-0.6-26.6-0.6c-6.6,0-12.7-0.3-13.4-0.6c-0.8-0.3-6.4-0.7-12.4-0.9
		c-6.1-0.2-14.8-1-19.5-1.7s-9.4-1.2-10.5-1c-1.1,0.2-4.1-0.2-6.6-0.9l-4.6-1.2l2.5-1.6c1.4-0.9,5.4-1.9,9-2.3
		c5.6-0.6,6.5-1.1,6.6-3.4c0-2.3,1-2.6,8.8-2.7c4.8,0,13.6,0.4,19.5,0.9c5.9,0.5,13.3,1,16.4,1c3.1,0.1,7.4,0.3,9.6,0.7
		c2.2,0.3,6.2,0.4,8.9,0.1c5.8-0.5,19.2,1,21.9,2.4c1,0.5,2.9,0.4,4.2-0.3c2.4-1.4,3.5-1.4,9.7-0.4c7,1.2,11.1-1.4,8.2-5.1
		c-0.7-0.9,0.9-1.2,4.7-0.9c5.3,0.5,11.7-0.2,16.2-1.8c1.1-0.4,1.7-1.5,1.6-2.7c-0.2-1.6,0-1.7,1.3-0.4c0.8,0.9,2.6,1.7,3.9,1.7
		c1.3,0,3.4,0.3,4.6,0.7c3.6,1.2,15.5,0.3,15.6-1.2c0.1-0.7,0.7-0.4,1.3,0.9c0.6,1.2,1.3,1.9,1.5,1.6c0.2-0.4,1.8-1.3,3.6-2.1
		c2.5-1.1,3.5-1,4,0.5c0.4,1.1,1.7,2,3,2.1c4.1,0.2,8.5-0.6,8.9-1.6c0.6-1.4,0.3-3.4-0.6-3.3c-2.4,0-12.2-0.6-16-1.1
		c-2.5-0.3-4.7-0.4-4.9-0.2c-0.9,0.8-19.2-0.7-19.9-1.5c-0.4-0.5-2.6-0.9-4.9-0.8c-9.8,0.5-22.2-0.6-27-2.4
		c-0.7-0.3-3.1-0.7-5.3-1.1c-2.2-0.3-4.1-1.1-4.2-1.7c-0.1-1.2,14-2.4,16.2-1.4c3.9,1.8,8.8,2,15.5,0.9c10.6-1.9,18.5-2.7,19-2.1
		c0.2,0.3,2.3,0.8,4.6,1c5.7,0.7,7.2,1,9.4,1.9c1.4,0.6,1.9,0.2,2-1.6c0-1.3,0.4-2.1,0.8-1.9c0.4,0.3,2.2,0.7,4.1,0.9
		c1.8,0.2,5.9,0.8,9.1,1.4c7.9,1.3,12.1,1.1,17.4-0.8c3.1-1.1,4.8-1.1,5.3,0c0.4,1,0.5,0.6,0-1c-0.8-3.3,0.5-3.7,2.1-0.7
		c1.6,2.9,1.9,2.7,1.3-0.9c-0.3-2.1-0.9-3-1.8-2.9c-0.7,0.1-1.8-0.2-2.4-0.7c-0.8-0.6-0.9-0.3-0.5,0.8c0.4,1,0.4,1.8,0,1.8
		c-0.3,0-0.7-1-0.9-2.2c-0.3-2.5-0.3-2.5-8.2-2.2c-2.9,0.1-5.7-0.1-6.2-0.6c-0.5-0.4-2.5-1-4.4-1.3c-1.9-0.3-3.6-0.7-3.8-0.9
		c-0.2-0.2-2.5-0.6-5.1-0.8c-2.6-0.2-6.8-0.5-9.3-0.8c-2.5-0.2-5.5-0.5-6.6-0.6c-1.2-0.1-3.5-0.4-5.1-0.6
		c-10.3-1.6-17.2-2.1-24.3-1.8c-8,0.4-13.5,0-17.1-1c-1.1-0.3-4-0.7-6.6-0.8c-2.6-0.1-5.9-0.8-7.5-1.4c-1.5-0.6-10.6-0.5-20.1,0.3
		c-9.6,0.8-20.1,1.1-23.4,0.7c-3.3-0.4-7.9-0.5-10.1-0.1c-2.2,0.4-6.4,0.5-9.2,0.2c-2.8-0.2-9.5-0.1-14.8,0.3
		c-11.6,0.8-22.8,0.8-44.2-0.1c-8.6-0.4-14.9-0.8-31.4-2.3c-4.1-0.4-13.4-0.6-20.6-0.6c-7.2,0-15.3-0.1-18-0.2
		c-3.3-0.2-4.9,0.3-4.7,1.3c0.1,0.9,0.7,1.9,1.3,2.2c0.6,0.3-0.2,0.9-1.8,1.3c-9.1,2.2-15.1,2.9-25.7,3c-16.4,0.2-15.6,0.1-31,3.3
		c-7.6,1.6-20,3.6-27.5,4.4c-10.4,1.1-14.3,2.1-16.4,4.1c-1.6,1.5-7,3.6-12.9,4.9c-12.9,2.9-15.7,3-17.1,0.5c-0.6-1.1-2.4-2-3.8-2
		c-3.3,0.1-16.8,3.7-17.7,4.7c-0.4,0.4-4.7,1.3-9.6,2c-4.9,0.7-9.8,2.1-11,3.1c-1.2,1-3.9,2.4-6.1,3c-2.2,0.6-6.9,2.2-10.5,3.6
		c-3.6,1.4-9,3.1-12,3.9c-3,0.8-7.5,2.4-9.9,3.5c-35.9,16.6-35.2,16.3-36.5,13.4c-0.9-1.9-0.7-2.4,1.1-3.5c1.3-0.8,2.5-2.9,2.9-5.2
		c0.9-4.4,0.8-6.8,0-4c-0.8,2.5-1.6,0.6-1.3-3c0.2-2.5,0-2.9-1.1-3c-0.7,0-1.5,0.1-1.8,0.2c-0.2,0.1-0.5-0.5-0.6-1.5
		c-0.1-1-1-3.1-2-4.8c-1.8-3.1-3.1-3-9.5,0.8c-0.9,0.5-4.1,2.5-7.2,4.2c-3,1.8-8,4.9-11,6.9c-6.5,4.3-7.8,5.1-14.3,8.6
		c-12.7,6.8-17.4,9.7-19.6,12.1c-1.3,1.4-3.2,2.6-4.3,2.8c-1.1,0.1-3.4,1.4-5.3,2.9c-1.8,1.4-5.3,4-7.7,5.6
		c-5.3,3.6-15.9,10.9-24,16.4c-4.9,3.4-6.2,3.8-7.5,2.4c-1.3-1.4-3.1-0.9-9.6,2.7c-4.4,2.4-8.4,4.1-8.7,3.6c-0.4-0.5-1.7,0-3,1
		c-2.2,1.7-5.3,3.6-8.6,5.3v12h1439V74.8c-1.5-0.1-2.7-0.6-3.4-1.4C1433.7,71.3,1433.1,71.3,1433.9,73.3z"/>
	<path class="stcolor" d="M1438.2,60.4c0.2,0.7,0.1,2-0.4,2.9c-0.6,1.2-0.3,1.5,1.2,1v-5.6C1438.3,59.3,1438,59.9,1438.2,60.4z"/>
</g>
</svg>
