<?xml version="1.0" encoding="utf-8"?>
<!-- Generator: Adobe Illustrator 24.3.0, SVG Export Plug-In . SVG Version: 6.00 Build 0)  -->
<svg version="1.1" id="Layer_1" xmlns="http://www.w3.org/2000/svg" xmlns:xlink="http://www.w3.org/1999/xlink" x="0px" y="0px"
	 viewBox="0 0 1439 224.1" style="enable-background:new 0 0 1439 224.1;" xml:space="preserve">
<style type="text/css">
	.st0{fill:#FFFFFF;}
</style>
<g>
	<path class="st0" d="M276.9-573.8c0.8-1.4,1.1-1.5,1.5-0.2c0.2,1,0.6,1.3,0.9,0.8c0.7-1.5-0.5-3.7-1.9-3.5
		c-0.7,0.1-1.7,1.3-2.1,2.6v0C274.3-571.2,275.5-571,276.9-573.8z"/>
	<path class="st0" d="M274.3-567.5c0.4-0.1,0.5-1,0.2-2.1c-0.3-1.1-0.6-2-0.7-2c-0.1,0-0.2,1-0.2,2.1
		C273.6-568.3,273.9-567.4,274.3-567.5z"/>
	<path class="st0" d="M287.9-554.6c-0.4,0.1-0.3,0.7,0.4,1.5c1.4,1.8,1.6,1.7,0.9-0.1C288.8-554.1,288.3-554.7,287.9-554.6z"/>
	<path class="st0" d="M280.6-572.4c0.3,0,0.4,1,0.4,2.3c-0.1,3.4-1.3,3-2.5-0.8l-1-3.3l-0.3,3.5c-0.2,3-0.1,3.3,0.6,2.4
		c0.7-0.9,0.8-0.6,0.6,2.4c-0.2,3.1-0.2,3.3,0.6,2c0.5-0.8,1.6-1.4,2.4-1.3c2.3,0.4,4.1-1.4,3.4-3.3c-0.4-1.1-0.3-1.4,0.4-0.9
		c0.6,0.5,1.1-0.2,1.1-1.5c0-1.3-0.2-1.9-0.4-1.3c-0.3,0.6-0.6,0.3-0.7-0.6c-0.4-3.2,2-1.8,3,1.7c1,3.3,1.4,3.5,4.8,2.9
		c2.2-0.4,3.5-1.3,3.2-2.2c-0.3-0.8-0.7-1.2-0.9-1c-0.3,0.3-0.5-1.3-0.7-3.5c-0.1-2.8-0.6-4.4-1.4-5.3c-1.7-1.9-1.7-1.8-1.9,3.4
		c-0.1,4.5-1,6.5-1.4,3.3c-0.1-0.8,0-1.6,0.3-1.6c0.3,0,0.5-1.1,0.6-2.4c0-2-0.1-2.1-1-0.5c-0.7,1.3-1,1.4-0.8,0.1
		c0.1-1.1-0.5-1.6-1.9-1.5c-1.2,0.1-2,1-1.9,2c0.1,1.2-0.7,1.5-2.7,1.1c-2.4-0.5-2.9-0.2-2.7,1.7C280-573.4,280.3-572.4,280.6-572.4
		z"/>
	<path class="st0" d="M272.1-565.5c0.6-2.4,0.1-7.4-0.7-7.3c-0.3,0-0.3,1.1,0.1,2.5c0.4,1.6,0.3,2.7-0.4,3.3
		c-0.6,0.5-0.8,1.5-0.6,2.3C271.2-563,271.5-563.1,272.1-565.5z"/>
	<path class="st0" d="M340.6-554.9c0.3,0.7,0.9,1.3,1.3,1.2c1.2-0.2,0.9-1.2-0.6-1.9C340.7-555.9,340.3-555.6,340.6-554.9z"/>
	<path class="st0" d="M348.1-554.3c0.1,0.6,0.8,1.4,1.5,1.7c0.8,0.3,1.5,0.6,1.6,0.7c0.1,0.1,0-0.6-0.2-1.6
		C350.5-555.4,347.8-556.1,348.1-554.3z"/>
	<path class="st0" d="M337-554.6c-0.7,1-0.7,1.5-0.1,1.4c0.5,0,1.2-0.7,1.6-1.6C339.3-556.7,338.4-556.6,337-554.6z"/>
	<path class="st0" d="M312.1-554.6c-0.1,0-0.2,0.7-0.1,1.6s0.5,1.5,0.8,1.5c0.3,0,0.4-0.7,0.1-1.6S312.2-554.6,312.1-554.6z"/>
	<path class="st0" d="M299.4-577.9c-0.1-0.8-0.7-1.5-1.2-1.4c-0.9,0.1-0.9,0.4,0,1.5C299.6-576,299.6-576,299.4-577.9z"/>
	<path class="st0" d="M296.2-577.5c1.1-0.1,0.9-1.3-0.7-3c-1.1-1.2-1.2-1.1-0.7,0.8C295.1-578.4,295.8-577.5,296.2-577.5z"/>
	<path class="st0" d="M31-453.9c0.7-0.2,0.8-0.5,0.2-1c-0.5-0.4-1-0.3-1.1,0.3C30-454.1,30.4-453.8,31-453.9z"/>
	<path class="st0" d="M147.7-519.1c0.3-0.6,0.2-1.7,0-2.4c-0.8-2.1-1.1-1.6-0.7,1.1C147.1-519.2,147.5-518.6,147.7-519.1z"/>
	<path class="st0" d="M143.4-511.6c0.3,0,0.4-0.7,0.1-1.6c-0.3-0.8-0.7-1.5-0.8-1.5c-0.1,0-0.2,0.7-0.1,1.6
		C142.7-512.2,143-511.5,143.4-511.6z"/>
	<path class="st0" d="M149.7-522.8c0.7-0.6,0.9-1.4,0.4-1.7c-0.5-0.3-1,0.2-1.3,1.1C148.5-522.2,148.8-522.1,149.7-522.8z"/>
	<path class="st0" d="M269.4-547.7c1.7-0.7,3.4-1.9,3.8-2.7c0.4-1,0.6-0.9,0.5,0.3c-0.3,2.6,1.1,3.7,2.2,1.7
		c0.6-1.2,1.1-1.3,1.5-0.3c0.8,2.2,3.2,1.5,3.9-1.3c0.6-2.5,1.4-3.4,1.2-1.3c-0.1,0.7,0.9,0.8,2.1,0.4c2.6-1,2.3-3.2-0.3-2.4
		c-1,0.3-2,0-2.2-0.7c-0.3-0.7-1-0.9-1.7-0.4c-0.7,0.5-4.7,1.3-8.9,1.9c-7.2,1-7.6,1.2-6.4,3.6C266-547,266.9-546.7,269.4-547.7z"/>
	<path class="st0" d="M163.8-519.6c0.8-1.5,1.5-1.9,1.8-1c0.3,0.8,0.9,1,1.3,0.5c0.4-0.5,0.5-1.5,0.3-2.2c-0.3-0.7-0.3-1.7,0-2.2
		c0.2-0.5,0.9,0.2,1.4,1.7c0.9,2.8,4.2,4.1,3.8,1.5c-0.1-0.8,0.9-1.4,2.3-1.4c1.6,0,2.5-0.7,2.5-2c0-1.5,0.3-1.6,1-0.4
		c1.1,1.8,2.3,0.2,1.5-1.9c-0.3-0.8-0.2-1.4,0.1-1.5c0.3,0,0.7,0.7,0.8,1.6c0.4,2.9,10.9-1.7,11.3-4.9c0.2-1.8,5.9-5.1,5.7-3.3
		c-0.1,0.7,0.3,1.3,0.8,1.2s0.8-0.6,0.8-1.3c-0.1-0.6,0.5-1.2,1.3-1.3c0.8-0.1,1.5,0.4,1.6,1.1c0.1,0.7,0.7,0.6,1.3-0.1
		c0.6-0.8,2.9-1.7,4.9-2.1c5.2-1,5.3-1.1,4.7-2.8c-0.4-1,0.3-1.3,1.9-0.8c1.7,0.5,2.7,0,3.2-1.5c0.4-1.2,0.7-1.5,0.6-0.5
		c-0.1,1.2,1.6,1.6,5.5,1.3c3.1-0.2,6.1,0.3,6.6,1.2c0.6,0.9,1.5,1,2.4,0.1c0.8-0.8,2.6-1.7,3.9-2c1.4-0.4,2.5-1,2.7-1.4
		c0.1-0.4,1.8-0.3,3.7,0.2c1.9,0.5,5.3,0.5,7.4,0c2.1-0.5,3.9-0.6,4-0.1c0.1,0.9,7.7-1,8-2c0.6-2.3-2.2-4-6.1-3.6
		c-2.5,0.2-4.7-0.2-4.9-1.1c-0.2-0.9,0.8-1.6,2.6-1.7c2.4-0.2,3.1-1,3.9-4.2c0.5-2.2,0.9-4.5,0.8-5.1c-0.1-0.6-1.3-1.5-2.8-2
		c-1.4-0.5-3.1-1.2-3.6-1.6c-1.2-0.9-9.1,0.2-14,1.9c-2,0.7-6.1,2.1-9.1,3c-7.7,2.3-13.6,4.2-16.5,5.3c-1.4,0.5-4.7,1.6-7.4,2.5
		c-5.7,1.8-18,7.2-22.9,9.9c-1.9,1.1-4.3,2.1-5.3,2.3c-1.1,0.2-2.4,1.1-2.9,2c-1,1.6-1,1.6,0.2,0.9c1.4-0.9,2,2.9,0.7,4.1
		c-0.6,0.5-1.2-0.2-1.7-2c-0.4-1.6-1.1-2.8-1.5-2.8c-0.4,0.1-1.3-0.3-1.9-0.8c-0.9-0.7-1-0.4-0.4,1.2c0.6,1.8,0.6,1.8-0.4,0.3
		c-1.2-1.9-2.9-0.8-3.4,2.3c-0.2,1.2-0.4,1.1-0.8-0.2c-0.3-1-1.1-1.8-1.7-1.7c-0.6,0.1-0.9,0.7-0.7,1.5c0.7,1.8-0.2,4.2-2.2,6
		c-0.9,0.8-1.8,1.6-2,1.8c-0.2,0.2-0.9,0.5-1.4,0.7c-0.6,0.2-1,1.4-0.9,2.6c0.1,1.3,0.3,3.4,0.4,4.7c0.1,1.5-0.2,2.2-0.9,1.8
		c-1.1-0.6-1,2.1,0.1,3.8C157.1-513.3,162.3-516.8,163.8-519.6z"/>
	<path class="st0" d="M301.1-575c0.6-0.1,0.6,0.3,0.1,1.5c-0.5,1.2-0.2,1.5,1.2,1.4c1.1-0.1,1.7-0.8,1.4-1.7
		c-0.3-0.8-0.3-1.5,0.1-1.6c0.3,0,0.7,0.6,0.8,1.5c0.1,0.8,0.6,1.5,1.1,1.4c0.5-0.1,0.8,0.6,0.7,1.5c-0.1,0.9,0.1,1.5,0.5,1.5
		c0.3,0,0.6-0.6,0.5-1.2c-0.1-0.6,1.3-1.3,3.1-1.6c1.8-0.2,3.3,0,3.3,0.6c0.1,0.5,5.6,0.4,12.3-0.4c6.7-0.7,21.8-2.1,33.6-3.1
		c11.8-1,25-2.2,29.3-2.6c4.7-0.5,8.2-0.2,8.5,0.7c0.4,1,0.5,0.8,0.4-0.6c-0.2-1.6,0-1.7,0.8-0.4c0.7,1.1,2.9,1.3,6.6,0.4
		c3.1-0.7,5.7-0.9,5.9-0.5c0.7,1.4,2.8,1.4,2.6,0c-0.1-0.8,0.7-0.9,2-0.2c1.2,0.6,2.8,1.1,3.5,1c0.8-0.1,6.4-0.5,12.5-0.8
		c6.9-0.4,11-1.2,10.9-2.1c-0.1-0.8,0.2-1.5,0.7-1.6c0.5-0.1,1,0.5,1.1,1.3c0.2,1.6,5.9-0.4,6.5-2.3c0.4-1.1,8.1-2,8.2-1
		c0,0.2,1.5,0.4,3.3,0.4c5.6,0.1,10.9,0.9,11.6,1.7c0.4,0.4,0.6,0.2,0.5-0.6c-0.2-1.9,3.3-1.9,3.6,0c0.1,1,0.3,1,0.4-0.1
		c0.1-0.9,1.2-1.7,2.4-1.9c1.2-0.2,2.3,0.4,2.4,1.3c0.1,0.9,2.1,1.2,5,0.7c8.2-1.3,8.9-1.6,7.8-3c-0.8-1-0.7-1.5,0.3-2.1
		c1.2-0.8,1.2-0.9-0.3-0.9c-0.9,0-2.2-0.6-2.9-1.3c-0.7-0.7-2.5-0.6-4.3,0.3c-2.5,1.3-3.3,1.1-4.1-0.8c-0.5-1.3-0.7-1.5-0.4-0.5
		c0.4,1.1,0,2.3-0.9,3c-0.8,0.6-1.8,1.5-2.2,1.9c-0.6,0.6-0.6,0.3-0.3-1.6c0.4-1.9,0.3-2.5-0.4-3c-1.9-1.2-12-2.1-16.3-1.4
		c-2.5,0.4-4.6,0.4-4.6-0.1c-0.2-1.6-17.2-2-26.9-0.6c-6.2,0.9-9.8,0.8-10-0.1c-0.1-0.8-0.3-0.5-0.5,0.8c-0.2,1.8-0.5,1.9-1,0.6
		c-0.4-1-0.9-1.2-1.3-0.5c-0.6,1.2-5.5,0.3-6.8-1.3c-0.6-0.7-6.2-0.7-27.9,0.3c-6,0.3-15.7,0.6-21.6,0.8c-5.9,0.2-20.1,1.5-31.6,2.9
		c-17,2.1-21,3-21.1,4.7c-0.2,1.5-0.4,1.7-0.9,0.5c-0.4-1.1-1-0.6-1.8,1.7l-1.1,3.4l-0.8-3.1c-0.5-1.7-1-3.1-1.2-3.1
		c-0.2,0-0.1,0.8,0.3,1.7c0.4,1.1,0.2,1.4-0.8,0.8c-0.8-0.5-1.3-0.2-1.2,0.8c0.1,0.9-0.3,1.7-1,1.8c-0.7,0.1-1.5,1.2-1.8,2.6
		C300.4-575.5,300.5-574.9,301.1-575z"/>
	<path class="st0" d="M499.3-583.4c1.8,1.7,3.3,1.9,6.8,0.8c2.8-0.9,4.5-0.9,4.6,0.1c0.2,1.6,2.8,0.9,3.2-0.8c0.3-1.2,2.7,0,2.6,1.3
		l0,0c-0.2,1.9,6.7,0.1,7.2-1.9c0.4-1.6,0.2-2-0.8-1.9c-0.7,0.1-1.5-0.4-1.7-1c-0.2-0.7-2.4-0.9-4.9-0.6c-2.4,0.4-4.5,0.1-4.6-0.5
		c-0.3-2-1.9-1-1.7,1c0.1,1.1-0.2,0.8-0.7-0.7c-0.5-1.4-1.6-2.5-2.3-2.4c-1.1,0.1-1.3,0.8-0.7,2.8c0.7,2.5,0.6,2.5-0.5,0.1
		c-1-2.3-1.3-2.3-2.5-0.2c-1.3,2.3-1.4,2.2-1.8-1c-0.2-1.8-0.5-2.6-0.7-1.8c-0.1,0.9-0.6,1.9-1.1,2.2c-0.4,0.3-0.8,1.2-0.8,2
		c0,0.7-0.5,1.1-1.1,0.8C497.4-585.3,498-584.6,499.3-583.4z"/>
	<path class="st0" d="M717.1-529.8c-0.3-2.6-1.1-3-1.4-0.6c-0.1,0.9-0.5,1.2-0.9,0.7c-0.5-0.6-0.5-0.3-0.1,0.8
		C715.6-526.5,717.5-527.1,717.1-529.8z"/>
	<path class="st0" d="M707.6-517.5c-2.8,0.1-5.4-0.3-5.9-0.8c-0.5-0.6-0.8-0.3-0.6,0.6c0.1,1.1-0.2,1.2-1,0.4
		c-0.7-0.7-2.8-1-4.8-0.6c-2,0.4-3.5,0.1-3.4-0.5c0.1-0.7-1.3-1.1-3-1c-1.7,0.1-3.7,0.1-4.3,0.1s-1.5,0.7-1.8,1.6
		c-0.5,1.2-0.6,1.1-0.5-0.3c0.1-1.1-0.1-1.9-0.4-1.9c-0.3,0-0.5,0.8-0.4,1.6c0.1,0.8-0.6,1.6-1.6,1.8c-1,0.1-1.7-0.4-1.6-1.4
		c0.1-0.9,0-1.6-0.2-1.5c-0.4,0.1-3.2,5-3.2,5.5c0,0.2,2.4-0.1,5.3-0.7c3.1-0.7,5.8-0.4,6.7,0.5c0.8,0.9,4.7,1.5,8.6,1.3
		c11.5-0.5,17.7-0.2,20.4,1c1.4,0.6,2.6,1.1,2.8,1.2c0.5,0.1,2.7-4.7,2.2-4.9c-1.1-0.4-1.7-0.8-1.9-1.1c-0.1-0.2-1.5-0.4-3.2-0.5
		c-1.6-0.1-3-0.2-3-0.3C712.6-517.6,710.3-517.6,707.6-517.5z"/>
	<path class="st0" d="M731-511.9c1.2,1.5,3,1.3,2.8-0.3c-0.1-0.7-1-1.2-1.9-1.1C730.7-513.1,730.4-512.6,731-511.9L731-511.9z"/>
	<path class="st0" d="M720.8-525.5c0.2-0.5,0.7-0.3,1,0.6c0.3,0.8,0.7,1.5,0.8,1.5c0.1,0-0.2-1.3-0.8-2.9c-1.1-2.8-2-2.7-1.6,0.3
		C720.3-525.3,720.6-525,720.8-525.5z"/>
	<path class="st0" d="M703.9-529.8c1.5-0.5,2.9-1.2,3-1.6c0.1-0.4,0.9,0.5,1.7,2.1c0.8,1.5,1.9,2.8,2.3,2.7c0.9-0.1,1.1-5.5,0.2-7.8
		c-0.6-1.7-3.7-1.7-4.1,0c-0.5,2-2.1,2.2-3.3,0.3c-1.1-1.8-5.2-1.8-5.7,0.1C697.5-531.7,701.2-529,703.9-529.8z"/>
	<path class="st0" d="M268.4-572.6c0.7-0.2,0.8-0.5,0.2-1c-0.5-0.4-1-0.3-1.1,0.3C267.4-572.7,267.8-572.4,268.4-572.6z"/>
	<path class="st0" d="M740.1-511.5c0.3-0.1,0.1-0.8-0.4-1.5c-0.9-1.2-4.5,0.7-4.9,2.6C734.6-509.7,737.1-510.2,740.1-511.5z"/>
	<path class="st0" d="M529.8-582.9c2.1-1.4,0.9-3.9-1.3-2.8c-1,0.5-2,0.9-2.2,1c-0.2,0.1-0.4,0.7-0.3,1.4
		C526.2-581.7,527.7-581.6,529.8-582.9z"/>
	<path class="st0" d="M1319.5-527.2c0.6-0.2,0.9-0.9,0.7-1.5c-0.6-1.6-1.4-1.4-1.6,0.4C1318.4-527.5,1318.9-527,1319.5-527.2z"/>
	<path class="st0" d="M1371.4-557.2c-0.5-1.8-1.4-2-3.8-0.7c-0.3,0.2,0.5,1.3,1.7,2.5C1371.6-553.1,1372.4-553.7,1371.4-557.2z"/>
	<path class="st0" d="M1308.1-524.8c-0.1,0.6,0.1,1,0.6,0.9c0.7-0.1,0.7,0.2,0.2,1.6c-0.5,1.2,0,1.4,1.9,0.6c1.4-0.6,3-1.1,3.5-1.3
		c0.5-0.1,1-1.3,1-2.6c0-1.9-0.5-2.2-3.4-1.3C1309.9-526.3,1308.3-525.4,1308.1-524.8z"/>
	<path class="st0" d="M1437.1-583.7c-0.5,1.2-0.5,1.9,0.2,3.3c0.7,1.4,1.1,1.3,1.6-0.3c0-0.1,0.1-0.2,0.1-0.3v-4.1
		C1438.5-585.6,1437.7-585.1,1437.1-583.7z"/>
	<path class="st0" d="M791.6-486.9c-0.1-0.8-0.7-1.3-1.3-1.1c-0.6,0.2-0.9,0.9-0.7,1.5C790.3-484.8,791.8-485.2,791.6-486.9z"/>
	<path class="st0" d="M780.8-485.7c0.5-0.1,0.8-0.8,0.7-1.6c-0.1-0.8-0.7-1.5-1.4-1.4s-1,0.8-0.7,1.6
		C779.7-486.3,780.4-485.6,780.8-485.7z"/>
	<path class="st0" d="M1131.6-549.2c0.3-0.6,0.4-1.3,0.4-1.7c-0.1-0.4-0.3-0.6-0.7-0.6c-0.3,0-0.5,0.8-0.4,1.7
		C1131.1-548.9,1131.3-548.6,1131.6-549.2z"/>
	<path class="st0" d="M866.5-488.7c0.1,0,0.2-0.7,0.1-1.6c-0.1-0.8-0.5-1.5-0.8-1.5c-0.3,0-0.4,0.7-0.1,1.6
		C866-489.3,866.4-488.6,866.5-488.7z"/>
	<path class="st0" d="M1125.3-549c0.4-1.6,0.3-1.8-0.4-0.8c-0.5,0.6-0.7,1.5-0.5,2C1124.6-547.4,1125-547.9,1125.3-549z"/>
	<path class="st0" d="M872.9-487.4c1.4,0.7,1.5-1.4,0.1-2.6c-1.3-1.1-1.7-0.9-1.6,0.5C871.5-488.7,872.2-487.8,872.9-487.4z"/>
	<path class="st0" d="M875.6-487.1c0.1-0.5-0.1-1.8-0.5-2.9v0c-0.6-1.5-0.7-1.5-0.7,0.1C874.5-487.6,875.3-485.7,875.6-487.1z"/>
	<path class="st0" d="M1433.9-578.6c0.7,1.9-1.6,0.2-2.3-1.7c-0.3-0.8-1.2-0.2-2,1.3c-0.8,1.5-2.1,2.7-2.8,2.7
		c-0.8,0-4.2,0.8-7.7,1.8c-4.5,1.3-6.6,2.6-7.4,4.6c-0.6,1.6-1.6,3.3-2.2,3.9c-0.6,0.6-0.9,1.7-0.8,2.5c0.2,0.8-0.1,1.6-0.7,1.8
		c-9.9,3.4-11.1,4.2-10.3,6.5c0.3,0.7-0.5,1.8-1.6,2.4c-1.2,0.6-3.1,2.1-4.2,3.2c-1.2,1.1-3.7,2.4-5.6,2.8c-1.9,0.4-3.9,0.9-4.4,1.1
		c-0.5,0.2-1.3,1.8-1.7,3.5c-0.4,1.8-1.2,3.1-1.9,3c-1.7-0.3-5.8,2.7-5.7,4.2c0.2,1.2-4.5,4.6-5.6,4.1c-0.3-0.1-0.4,0.5-0.3,1.4
		c0.1,0.9-0.1,1.3-0.4,0.8s-0.7-0.2-0.8,0.6c-0.1,0.8-1.5,1.2-3.1,1c-1.6-0.2-3.3,0.4-3.9,1.4c-0.5,0.9-4,2.9-7.7,4.4
		c-3.7,1.5-7.9,3.5-9.2,4.5c-1.3,1-9.8,3-18.7,4.5c-9,1.4-16.7,3.1-17.1,3.7c-0.4,0.6-1.7,0.3-2.7-0.6c-1.1-0.9-2.1-1.7-2.3-1.8
		c-0.2-0.1-1.4-1.1-2.7-2.3c-1.8-1.6-3.4-1.7-7.2-0.3c-7.2,2.7-37,7.5-37.2,6c-0.2-1.4,2.2-3.9,6.8-7c1.7-1.1,3.8-2.9,4.7-3.8
		c0.9-1,2.4-1.4,3.2-1c0.9,0.4,2.6-0.3,3.9-1.5c1.3-1.2,2.6-2.3,2.9-2.4c0.8-0.3,0.2-7.2-0.6-7c-0.4,0-0.6-0.6-0.5-1.5
		c0.1-0.9,0.6-1.7,1.2-1.7c0.5-0.1,2.3-2.4,3.9-5.1c1.6-2.7,3.5-5.1,4.2-5.2c0.7-0.1,1.3-0.8,1.4-1.6c0.1-0.8,1.7-2.1,3.7-3
		c1.9-0.8,4.9-2.7,6.5-4.1c1.7-1.4,3.3-2.5,3.6-2.4c1,0.5,3.5-3.9,3.9-7c0.2-1.7,0.9-3.2,1.6-3.2c0.6-0.1,1-1.1,0.9-2.3
		c-0.2-1.4,0.6-2.7,2.1-3.6c1.9-1.1,2.1-1.6,1-2.4c-0.7-0.5-1.5-0.6-1.7-0.1c-0.2,0.5-0.5-0.7-0.5-2.6c-0.1-2.3-0.3-3.2-0.7-2.7
		c-0.3,0.4-0.5,1.3-0.3,2.1c0.5,2.8-0.7,4.9-1.7,2.9c-0.8-1.6-0.8-2-0.1-2.1c0.7-0.1,0.7-0.7-0.1-3.1c-0.7-2.2-0.8-3-0.3-3.1
		c0.4,0,0.4-1.1,0-2.4c-0.4-1.3-0.3-2,0.1-1.5c0.4,0.5,0.6,0.2,0.5-0.6c-0.1-0.8-0.6-1.7-1-2.1c-0.6-0.4-0.7-1.2-0.3-3.5
		c0.4-2.3,0.3-3-0.3-3.5c-0.7-0.4-0.8-1.1-0.4-2.8c0.3-1.8,0.2-2.2-0.6-2.1c-0.6,0.1-1.6-2.1-2.5-5.2c-0.8-2.9-1.8-4.9-2-4.3
		c-0.2,0.5-0.7-0.8-1-2.9l0,0c-0.3-2.2-0.6-3.9-0.7-3.9c-0.1,0-1.4,0.9-3,1.9c-1.5,1-4.5,2.5-6.7,3.3c-2.1,0.8-5.4,2.2-7.2,3.2
		c-4.4,2.3-14.6,5.7-22.1,7.3c-0.9,0.2-2,2-2.5,4.2c-1.5,6.9-12.1,13.9-26.7,17.7c-7.9,2-22.4,7.6-24.9,9.5c-0.8,0.6-6.3,1.9-12.4,3
		c-6.1,1.1-14.3,3.2-18.4,4.7c-4,1.5-7.9,2.8-8.7,3c-0.7,0.2-1.2,0.9-1.1,1.6c0.1,0.7-0.1,0.9-0.5,0.4c-0.4-0.4-0.6,0.1-0.6,1.1
		c0,1.4-0.4,1.2-1.4-0.6c-1.7-3.2-3.4-3.2-2.5,0.1c0.4,1.3,0.7,2.7,0.7,3c0,0.4,1,0.5,2.1,0.4c1.1-0.1,2.4,0.7,3,2
		c0.6,1.2,0.9,2.2,0.7,2.2c-0.2,0-1.6,1-3.2,2.2c-1.6,1.2-7.1,2.9-12.2,3.7c-5.1,0.8-11.2,2.3-13.4,3.1c-3.6,1.4-4.1,1.3-4.4-1
		c-0.3-2.1-0.6-2.4-2.1-1.3c-1,0.7-2,2-2.3,2.8c-0.3,0.8-1.6,1.7-3,1.8c-1.4,0.2-4.9,1.4-7.9,2.8c-2.9,1.4-5.9,2.4-6.5,2.4
		c-0.7-0.1-1.7-0.2-2.4-0.2c-0.7-0.1-2.1,0.5-3.1,1.3c-1.8,1.3-3.8,1.8-5,1.1c-1-0.5-6.1,2.9-7,4.8c-0.5,1-3.6,2.3-6.9,2.9
		c-3.2,0.5-6.5,1.5-7.2,2.1c-0.7,0.6-8.9,2.4-18.1,4c-9.2,1.6-19.3,3.5-22.3,4.2c-3.7,0.8-6.1,0.7-7.1-0.5c-1.6-1.8-6.4,0.3-6.8,2.9
		c-0.1,0.7-0.7,2.3-1.4,3.5c-0.7,1.3-0.9,2.4-0.4,2.8c3.2,2.2-1.1,9.9-5.7,10.2c-5.9,0.4-24.7,4.8-25.6,5.9
		c-0.5,0.6-2.5,0.8-4.6,0.5c-2.1-0.4-14.1,0.7-26.8,2.5c-30.1,4.1-29.2,4-35.7,4.2c-3.1,0.1-6-0.3-6.5-0.9c-0.6-0.8-0.7-0.4-0.2,1.2
		c0.5,1.7,0.4,2.1-0.4,1.5c-0.6-0.5-1.1-1.4-1.2-2c-0.1-0.6-0.7-1.1-1.5-1c-0.7,0.1-1.7-0.1-2.3-0.3c-0.6-0.3-0.8,0.5-0.4,2.5
		c0.5,2.6,0.4,2.7-0.7,0.9c-1.4-2.2-2.4-2.4-12.2-1.8c-3.6,0.2-6.5-0.1-6.5-0.8c0.2-1.8-3-3-4-1.5c-1.3,1.8-5,1.5-8.9-0.8
		c-0.7-0.4-2.2-0.8-3.3-0.8c-1.1,0-2.4-0.8-2.8-1.7c-0.5-0.9-1.6-1.1-2.5-0.5c-1.1,0.7-1.9,0.4-2.4-1c-0.7-1.8-0.8-1.7-1.1,0.3
		c-0.2,1.9-2.6,2.6-14.2,4.2c-7.6,1-16.6,1.7-19.9,1.4c-3.3-0.3-12-0.1-19.2,0.5c-7.3,0.5-14.9,0.8-16.8,0.6
		c-5.9-0.6-14.6-1-20.3-0.8c-7.8,0.2-18.7,0-21.1-0.4c-1.2-0.2-4.2-0.6-6.6-0.8c-2.5-0.2-4.7-0.7-5-1c-0.2-0.3-3.8-0.8-7.9-1.2
		c-4.1-0.4-10.3-1.3-13.8-2c-3.5-0.7-9.7-1-13.7-0.6c-7.3,0.7-19-1.2-33-5.4c-6.9-2.1-14.6-1.1-13.5,1.7c0.5,1.3-27,4.2-28.8,3.1
		c-0.9-0.6-2,0.1-3,1.7c0,0.1-0.1,0.1-0.1,0.2c-0.3,0-0.7,0-1-0.1c-2.5-0.2-4.8-0.7-5.2-1.2c-0.4-0.5-3.7-0.7-7.5-0.4
		c-5.4,0.4-7,0-7.8-1.9c-0.5-1.3-2-2.4-3.3-2.5c-1.3-0.1-2.9-0.6-3.6-1.2c-0.7-0.6-1.7-1.3-2.2-1.6c-0.5-0.3-5.6-0.7-11.4-0.8
		c-5.8-0.1-11.9-0.4-13.7-0.5c-6.4-0.4-14.7-0.6-26.6-0.6c-6.6,0-12.7-0.3-13.4-0.6c-0.8-0.3-6.4-0.7-12.4-0.9
		c-6.1-0.2-14.8-1-19.5-1.7s-9.4-1.2-10.5-1c-1.1,0.2-4.1-0.2-6.6-0.9l-4.6-1.2l2.5-1.6c1.4-0.9,5.4-1.9,9-2.3
		c5.6-0.6,6.5-1.1,6.6-3.4c0-2.3,1-2.6,8.8-2.7c4.8,0,13.6,0.4,19.5,0.9c5.9,0.5,13.3,1,16.4,1c3.1,0.1,7.4,0.3,9.6,0.7
		c2.2,0.3,6.2,0.4,8.9,0.1c5.8-0.5,19.2,1,21.9,2.4c1,0.5,2.9,0.4,4.2-0.3c2.4-1.4,3.5-1.4,9.7-0.4c7,1.2,11.1-1.4,8.2-5.1
		c-0.7-0.9,0.9-1.2,4.7-0.9c5.3,0.5,11.7-0.2,16.2-1.8c1.1-0.4,1.7-1.5,1.6-2.7c-0.2-1.6,0-1.7,1.3-0.4c0.8,0.9,2.6,1.7,3.9,1.7
		c1.3,0,3.4,0.3,4.6,0.7c3.6,1.2,15.5,0.3,15.6-1.2c0.1-0.7,0.7-0.4,1.3,0.9c0.6,1.2,1.3,1.9,1.5,1.6c0.2-0.4,1.8-1.3,3.6-2.1
		c2.5-1.1,3.5-1,4,0.5c0.4,1.1,1.7,2,3,2.1c4.1,0.2,8.5-0.6,8.9-1.6c0.6-1.4,0.3-3.4-0.6-3.3c-2.4,0-12.2-0.6-16-1.1
		c-2.5-0.3-4.7-0.4-4.9-0.2c-0.9,0.8-19.2-0.7-19.9-1.5c-0.4-0.5-2.6-0.9-4.9-0.8c-9.8,0.5-22.2-0.6-27-2.4
		c-0.7-0.3-3.1-0.7-5.3-1.1c-2.2-0.3-4.1-1.1-4.2-1.7c-0.1-1.2,14-2.4,16.2-1.4c3.9,1.8,8.8,2,15.5,0.9c10.6-1.9,18.5-2.7,19-2.1
		c0.2,0.3,2.3,0.8,4.6,1c5.7,0.7,7.2,1,9.4,1.9c1.4,0.6,1.9,0.2,2-1.6c0-1.3,0.4-2.1,0.8-1.9c0.4,0.3,2.2,0.7,4.1,0.9
		c1.8,0.2,5.9,0.8,9.1,1.4c7.9,1.3,12.1,1.1,17.4-0.8c3.1-1.1,4.8-1.1,5.3,0c0.4,1,0.5,0.6,0-1c-0.8-3.3,0.5-3.7,2.1-0.7
		c1.6,2.9,1.9,2.7,1.3-0.9c-0.3-2.1-0.9-3-1.8-2.9c-0.7,0.1-1.8-0.2-2.4-0.7c-0.8-0.6-0.9-0.3-0.5,0.8c0.4,1,0.4,1.8,0,1.8
		c-0.3,0-0.7-1-0.9-2.2c-0.3-2.5-0.3-2.5-8.2-2.2c-2.9,0.1-5.7-0.1-6.2-0.6c-0.5-0.4-2.5-1-4.4-1.3c-1.9-0.3-3.6-0.7-3.8-0.9
		c-0.2-0.2-2.5-0.6-5.1-0.8c-2.6-0.2-6.8-0.5-9.3-0.8c-2.5-0.2-5.5-0.5-6.6-0.6c-1.2-0.1-3.5-0.4-5.1-0.6
		c-10.3-1.6-17.2-2.1-24.3-1.8c-8,0.4-13.5,0-17.1-1c-1.1-0.3-4-0.7-6.6-0.8c-2.6-0.1-5.9-0.8-7.5-1.4c-1.5-0.6-10.6-0.5-20.1,0.3
		c-9.6,0.8-20.1,1.1-23.4,0.7c-3.3-0.4-7.9-0.5-10.1-0.1c-2.2,0.4-6.4,0.5-9.2,0.2c-2.8-0.2-9.5-0.1-14.8,0.3
		c-11.6,0.8-22.8,0.8-44.2-0.1c-8.6-0.4-14.9-0.8-31.4-2.3c-4.1-0.4-13.4-0.6-20.6-0.6c-7.2,0-15.3-0.1-18-0.2
		c-3.3-0.2-4.9,0.3-4.7,1.3c0.1,0.9,0.7,1.9,1.3,2.2c0.6,0.3-0.2,0.9-1.8,1.3c-9.1,2.2-15.1,2.9-25.7,3c-16.4,0.2-15.6,0.1-31,3.3
		c-7.6,1.6-20,3.6-27.5,4.4c-10.4,1.1-14.3,2.1-16.4,4.1c-1.6,1.5-7,3.6-12.9,4.9c-12.9,2.9-15.7,3-17.1,0.5c-0.6-1.1-2.4-2-3.8-2
		c-3.3,0.1-16.8,3.7-17.7,4.7c-0.4,0.4-4.7,1.3-9.6,2c-4.9,0.7-9.8,2.1-11,3.1c-1.2,1-3.9,2.4-6.1,3c-2.2,0.6-6.9,2.2-10.5,3.6
		c-3.6,1.4-9,3.1-12,3.9c-3,0.8-7.5,2.4-9.9,3.5c-35.9,16.6-35.2,16.3-36.5,13.4c-0.9-1.9-0.7-2.4,1.1-3.5c1.3-0.8,2.5-2.9,2.9-5.2
		c0.9-4.4,0.8-6.8,0-4c-0.8,2.5-1.6,0.6-1.3-3c0.2-2.5,0-2.9-1.1-3c-0.7,0-1.5,0.1-1.8,0.2c-0.2,0.1-0.5-0.5-0.6-1.5
		c-0.1-1-1-3.1-2-4.8c-1.8-3.1-3.1-3-9.5,0.8c-0.9,0.5-4.1,2.5-7.2,4.2c-3,1.8-8,4.9-11,6.9c-6.5,4.3-7.8,5.1-14.3,8.6
		c-12.7,6.8-17.4,9.7-19.6,12.1c-1.3,1.4-3.2,2.6-4.3,2.8c-1.1,0.1-3.4,1.4-5.3,2.9c-1.8,1.4-5.3,4-7.7,5.6
		c-5.3,3.6-15.9,10.9-24,16.4c-4.9,3.4-6.2,3.8-7.5,2.4c-1.3-1.4-3.1-0.9-9.6,2.7c-4.4,2.4-8.4,4.1-8.7,3.6c-0.4-0.5-1.7,0-3,1
		c-2.2,1.7-5.3,3.6-8.6,5.3v12h1439v-149.5c-1.5-0.1-2.7-0.6-3.4-1.4C1433.7-580.5,1433.1-580.6,1433.9-578.6z"/>
	<path class="st0" d="M1438.2-591.5c0.2,0.7,0.1,2-0.4,2.9c-0.6,1.2-0.3,1.5,1.2,1v-5.6C1438.3-592.6,1438-592,1438.2-591.5z"/>
</g>
<g>
	<path class="st0" d="M647.1,59.4c0.1,0.8,0.7,1.3,1.3,1.1c0.6-0.2,0.9-0.9,0.7-1.5C648.4,57.3,646.9,57.6,647.1,59.4z"/>
	<path class="st0" d="M657.9,58.1c-0.5,0.1-0.8,0.8-0.6,1.6c0.1,0.8,0.7,1.5,1.4,1.4c0.7-0.1,1-0.8,0.7-1.6
		C659,58.7,658.3,58.1,657.9,58.1z"/>
	<path class="st0" d="M572.2,61.1c-0.1,0-0.2,0.7-0.1,1.6c0.1,0.8,0.5,1.5,0.8,1.5c0.3,0,0.4-0.7,0.1-1.6
		C572.7,61.7,572.3,61.1,572.2,61.1z"/>
	<path class="st0" d="M565.8,59.9c-1.4-0.7-1.5,1.4-0.1,2.6c1.3,1.1,1.7,0.9,1.6-0.5C567.2,61.1,566.5,60.2,565.8,59.9z"/>
	<path class="st0" d="M130.6,97.2c0.1-0.6-0.1-1-0.6-0.9c-0.7,0.1-0.7-0.2-0.1-1.6c0.5-1.2,0-1.4-1.9-0.6c-1.4,0.6-3,1.1-3.5,1.3
		c-0.5,0.1-1,1.3-1,2.6c0,1.9,0.5,2.2,3.4,1.3C128.8,98.7,130.4,97.8,130.6,97.2z"/>
	<path class="st0" d="M307.1,121.6c-0.3,0.6-0.4,1.3-0.4,1.7c0,0.4,0.3,0.6,0.7,0.6c0.3,0,0.5-0.8,0.4-1.7
		C307.7,121.3,307.4,121.1,307.1,121.6z"/>
	<path class="st0" d="M563.1,59.5c-0.1,0.5,0.1,1.8,0.5,2.9v0c0.6,1.5,0.7,1.5,0.7-0.1C564.2,60,563.4,58.1,563.1,59.5z"/>
	<path class="st0" d="M119.2,99.7c-0.6,0.2-0.9,0.9-0.7,1.5c0.6,1.6,1.4,1.4,1.6-0.4C120.3,100,119.8,99.5,119.2,99.7z"/>
	<path class="st0" d="M0,152.6v5.2c0.5,0.1,1.1-0.4,1.6-1.6c0.5-1.2,0.5-1.9-0.2-3.3C0.8,151.7,0.4,151.6,0,152.6z"/>
	<path class="st0" d="M67.3,129.6c0.5,1.8,1.4,2,3.8,0.7c0.3-0.2-0.4-1.3-1.7-2.5C67.1,125.5,66.3,126.1,67.3,129.6z"/>
	<path class="st0" d="M313.4,121.4c-0.4,1.6-0.3,1.8,0.4,0.8c0.5-0.6,0.7-1.5,0.5-2C314.1,119.8,313.7,120.3,313.4,121.4z"/>
	<path class="st0" d="M1291,91.6c-0.3,0.6-0.2,1.7,0,2.4c0.8,2.1,1.1,1.6,0.7-1.1C1291.6,91.6,1291.2,91,1291,91.6z"/>
	<path class="st0" d="M1295.3,84c-0.3,0-0.4,0.7-0.1,1.6c0.3,0.8,0.7,1.5,0.8,1.5c0.1,0,0.2-0.7,0.1-1.6
		C1296.1,84.6,1295.7,84,1295.3,84z"/>
	<path class="st0" d="M1407.7,26.4c-0.7,0.2-0.8,0.5-0.2,1c0.5,0.4,1,0.3,1.1-0.3C1408.7,26.6,1408.3,26.2,1407.7,26.4z"/>
	<path class="st0" d="M1289,95.3c-0.7,0.6-0.9,1.4-0.4,1.7c0.5,0.3,1-0.2,1.3-1.1C1290.2,94.7,1289.9,94.5,1289,95.3z"/>
	<path class="st0" d="M1164.4,139.9c-0.4,0.1-0.5,1-0.2,2.1c0.3,1.1,0.6,2,0.7,2s0.2-1,0.2-2.1S1164.8,139.9,1164.4,139.9z"/>
	<path class="st0" d="M1170.3,145c-0.7,0.2-0.8,0.5-0.2,1c0.5,0.4,1,0.3,1.1-0.3C1171.3,145.2,1170.9,144.9,1170.3,145z"/>
	<path class="st0" d="M1166.6,138c-0.6,2.4-0.1,7.4,0.7,7.3c0.3,0,0.2-1.1-0.1-2.5c-0.4-1.6-0.3-2.7,0.4-3.3
		c0.6-0.5,0.9-1.5,0.6-2.3C1167.5,135.4,1167.2,135.6,1166.6,138z"/>
	<path class="st0" d="M1169.3,120.1c-1.7,0.7-3.4,1.9-3.8,2.7c-0.4,1-0.6,0.9-0.5-0.3c0.3-2.6-1.1-3.7-2.2-1.7
		c-0.6,1.2-1.1,1.3-1.5,0.3c-0.8-2.2-3.2-1.5-3.9,1.3c-0.6,2.5-1.4,3.4-1.2,1.3c0.1-0.7-0.9-0.8-2.1-0.4c-2.6,1-2.3,3.2,0.3,2.4
		c1-0.3,2,0,2.2,0.7c0.2,0.7,1,0.9,1.7,0.4c0.7-0.5,4.7-1.3,8.9-1.9c7.2-1,7.6-1.2,6.4-3.6C1172.7,119.4,1171.8,119.1,1169.3,120.1z
		"/>
	<path class="st0" d="M1274.9,92.1c-0.8,1.5-1.5,1.9-1.8,1c-0.3-0.8-0.9-1-1.3-0.5c-0.4,0.5-0.5,1.5-0.3,2.2c0.2,0.7,0.2,1.7,0,2.2
		c-0.2,0.5-0.9-0.2-1.4-1.7c-0.9-2.8-4.1-4.1-3.8-1.5c0.1,0.8-0.9,1.4-2.3,1.4c-1.6,0-2.5,0.7-2.5,2c0,1.5-0.3,1.6-1,0.4
		c-1.1-1.8-2.3-0.2-1.5,1.9c0.3,0.8,0.2,1.4-0.1,1.5c-0.3,0-0.7-0.7-0.8-1.6c-0.4-2.9-10.9,1.7-11.3,4.9c-0.2,1.8-5.9,5.1-5.7,3.3
		c0.1-0.7-0.3-1.3-0.8-1.2s-0.8,0.6-0.8,1.3c0.1,0.6-0.5,1.2-1.3,1.3c-0.8,0.1-1.5-0.4-1.6-1.1c-0.1-0.7-0.7-0.6-1.3,0.1
		c-0.6,0.8-2.9,1.7-4.9,2.1c-5.2,1-5.3,1.1-4.7,2.8c0.4,1-0.3,1.3-1.9,0.8c-1.7-0.5-2.7,0-3.2,1.5c-0.4,1.2-0.6,1.5-0.6,0.5
		c0.1-1.2-1.7-1.6-5.5-1.3c-3.1,0.2-6.1-0.3-6.6-1.2c-0.6-0.9-1.5-1-2.4-0.1c-0.8,0.8-2.6,1.7-3.9,2c-1.4,0.4-2.5,1-2.7,1.4
		c-0.1,0.4-1.8,0.3-3.7-0.2c-1.9-0.5-5.3-0.5-7.4,0c-2.1,0.5-3.9,0.6-4,0.1c-0.1-0.9-7.7,1-8,2c-0.6,2.3,2.2,4,6.1,3.6
		c2.5-0.2,4.7,0.2,4.9,1.1c0.2,0.9-0.8,1.6-2.6,1.7c-2.4,0.2-3.1,1-3.9,4.2c-0.5,2.2-0.9,4.5-0.8,5.1s1.3,1.5,2.8,2
		c1.4,0.5,3.1,1.2,3.6,1.6c1.2,0.9,9.1-0.2,14-1.9c2-0.7,6.1-2.1,9.1-3c7.7-2.3,13.6-4.2,16.6-5.3c1.4-0.5,4.7-1.6,7.4-2.5
		c5.7-1.8,18-7.2,22.9-9.9c1.9-1.1,4.3-2.1,5.3-2.3c1.1-0.2,2.4-1.1,2.9-2c1-1.6,1-1.6-0.2-0.9c-1.4,0.9-2-2.9-0.7-4.1
		c0.6-0.5,1.2,0.2,1.7,2c0.4,1.6,1.1,2.8,1.5,2.8c0.4-0.1,1.3,0.3,1.9,0.8c0.9,0.7,1,0.4,0.4-1.2c-0.6-1.8-0.6-1.8,0.4-0.3
		c1.2,1.9,2.9,0.8,3.4-2.3c0.2-1.2,0.4-1.1,0.8,0.2c0.3,1,1,1.8,1.7,1.7c0.6-0.1,0.9-0.7,0.7-1.5c-0.7-1.8,0.2-4.2,2.2-6
		c0.9-0.8,1.8-1.6,2-1.8c0.2-0.2,0.9-0.5,1.4-0.7c0.6-0.2,1-1.4,0.9-2.6c-0.1-1.3-0.3-3.4-0.4-4.7c-0.1-1.5,0.2-2.2,0.9-1.8
		c1.1,0.6,1-2.1-0.1-3.8C1281.6,85.7,1276.4,89.2,1274.9,92.1z"/>
	<path class="st0" d="M0,159.9v5.4c0.5-0.5,0.7-1,0.5-1.4c-0.2-0.7-0.1-2,0.4-2.9C1.4,159.9,1.2,159.6,0,159.9z"/>
	<path class="st0" d="M0,0v149.6c1.3,0.2,2.4,0.6,3.2,1.4c1.8,2,2.4,2.1,1.7,0.1c-0.7-1.9,1.6-0.2,2.4,1.7c0.3,0.8,1.2,0.2,2-1.3
		c0.8-1.5,2.1-2.7,2.9-2.7s4.2-0.8,7.7-1.8c4.5-1.3,6.6-2.6,7.4-4.6c0.6-1.6,1.6-3.3,2.2-3.9c0.6-0.6,0.9-1.7,0.8-2.5
		s0.1-1.6,0.7-1.8c9.9-3.4,11.1-4.2,10.3-6.5c-0.3-0.7,0.5-1.8,1.6-2.4c1.2-0.6,3.1-2.1,4.2-3.2c1.2-1.1,3.7-2.4,5.6-2.8
		c1.9-0.4,3.9-0.9,4.4-1.1c0.5-0.2,1.3-1.8,1.7-3.5c0.4-1.8,1.2-3.1,1.9-3c1.7,0.3,5.8-2.7,5.7-4.2c-0.2-1.2,4.5-4.6,5.6-4.1
		c0.3,0.1,0.4-0.5,0.3-1.4c-0.1-0.9,0.1-1.3,0.5-0.8s0.7,0.2,0.8-0.6c0.1-0.8,1.5-1.2,3.1-1c1.6,0.2,3.4-0.4,3.9-1.3
		c0.5-0.9,4-2.9,7.7-4.4c3.7-1.5,7.9-3.5,9.2-4.5c1.3-1,9.8-3,18.7-4.5c9-1.4,16.7-3.1,17.1-3.7c0.4-0.6,1.7-0.3,2.7,0.6
		c1.1,0.9,2.1,1.7,2.3,1.8c0.2,0.1,1.4,1.1,2.7,2.3c1.8,1.6,3.4,1.7,7.2,0.3c7.2-2.7,37-7.5,37.2-6c0.2,1.4-2.2,3.9-6.8,7
		c-1.7,1.1-3.8,2.9-4.7,3.8c-0.9,1-2.4,1.4-3.2,1s-2.6,0.3-3.9,1.5c-1.3,1.2-2.6,2.3-2.9,2.4c-0.8,0.3-0.2,7.1,0.6,7
		c0.4,0,0.6,0.6,0.5,1.5c-0.1,0.9-0.6,1.6-1.2,1.7c-0.5,0.1-2.3,2.4-3.9,5.1c-1.6,2.7-3.5,5.1-4.2,5.2c-0.7,0.1-1.3,0.8-1.4,1.6
		c-0.1,0.8-1.7,2.1-3.7,3c-1.9,0.8-4.9,2.7-6.5,4.1c-1.7,1.4-3.3,2.5-3.6,2.4c-1-0.5-3.5,3.9-3.9,7c-0.2,1.7-0.9,3.2-1.6,3.2
		c-0.6,0.1-1,1.1-0.9,2.3c0.2,1.4-0.6,2.7-2.1,3.6c-1.9,1.1-2.1,1.6-1,2.4c0.7,0.5,1.5,0.6,1.7,0.1c0.2-0.5,0.5,0.7,0.5,2.6
		c0.1,2.3,0.3,3.2,0.7,2.7c0.3-0.4,0.5-1.3,0.3-2.1c-0.6-2.8,0.7-4.9,1.7-2.9c0.8,1.6,0.8,2,0.1,2.1c-0.7,0.1-0.7,0.7,0.1,3.1
		c0.7,2.2,0.8,3,0.3,3.1c-0.4,0-0.4,1.1,0,2.4c0.4,1.3,0.4,2,0,1.5c-0.4-0.5-0.6-0.2-0.5,0.6c0.1,0.8,0.6,1.7,1,2.1
		c0.6,0.4,0.7,1.2,0.3,3.5c-0.4,2.3-0.3,3,0.3,3.5c0.6,0.4,0.7,1.1,0.4,2.8c-0.3,1.8-0.2,2.2,0.6,2.1c0.6-0.1,1.6,2.1,2.5,5.2
		c0.9,2.9,1.7,4.9,2,4.3c0.2-0.5,0.7,0.8,0.9,2.9l0,0c0.3,2.2,0.6,3.9,0.7,3.9c0.1,0,1.5-0.9,3-1.9c1.5-1,4.5-2.5,6.6-3.3
		c2.1-0.8,5.4-2.2,7.2-3.2c4.4-2.3,14.6-5.7,22.1-7.3c0.9-0.2,2-2,2.4-4.2c1.5-6.9,12.1-13.9,26.7-17.7c7.9-2,22.4-7.6,24.9-9.5
		c0.7-0.6,6.3-1.9,12.4-3c6.1-1.1,14.3-3.2,18.4-4.7c4.1-1.5,8-2.8,8.7-3c0.7-0.2,1.2-0.9,1.1-1.6c-0.1-0.7,0.1-0.9,0.5-0.4
		c0.4,0.4,0.6-0.1,0.6-1.1c0-1.4,0.4-1.2,1.4,0.6c1.7,3.2,3.4,3.2,2.5-0.1c-0.4-1.3-0.7-2.7-0.7-3c0-0.4-1-0.5-2.1-0.4
		c-1.1,0.1-2.4-0.7-3-2c-0.6-1.2-0.9-2.2-0.7-2.2c0.2,0,1.6-1,3.2-2.2c1.6-1.2,7.1-2.9,12.2-3.7s11.1-2.3,13.4-3.1
		c3.6-1.4,4.1-1.3,4.4,1c0.3,2.1,0.6,2.4,2.1,1.3c1-0.7,2-2,2.3-2.8c0.3-0.8,1.6-1.7,3-1.8c1.4-0.2,4.9-1.4,7.9-2.8
		c2.9-1.4,5.9-2.4,6.5-2.4c0.7,0.1,1.7,0.2,2.4,0.2c0.7,0.1,2.1-0.5,3.1-1.3c1.8-1.3,3.8-1.8,5-1.1c1,0.5,6.1-2.9,7-4.8
		c0.5-1,3.6-2.3,6.9-2.9c3.3-0.5,6.5-1.5,7.2-2.1c0.7-0.6,8.8-2.4,18.1-4s19.3-3.5,22.3-4.2c3.7-0.8,6.1-0.7,7.1,0.5
		c1.7,1.8,6.4-0.3,6.8-2.9c0.1-0.7,0.7-2.3,1.4-3.5c0.7-1.3,0.9-2.4,0.4-2.8c-3.2-2.2,1.1-9.9,5.7-10.2c5.9-0.4,24.7-4.8,25.6-5.9
		c0.5-0.6,2.5-0.8,4.6-0.5s14.1-0.7,26.8-2.5c30.1-4.1,29.2-4,35.7-4.2c3.1-0.1,6,0.3,6.5,0.9c0.6,0.8,0.7,0.4,0.2-1.2
		c-0.5-1.7-0.4-2.1,0.4-1.5c0.6,0.5,1.1,1.4,1.2,2c0.1,0.6,0.7,1.1,1.5,1c0.7-0.1,1.7,0.1,2.3,0.3c0.6,0.3,0.8-0.5,0.4-2.5
		c-0.5-2.6-0.4-2.7,0.7-0.9c1.4,2.2,2.4,2.4,12.2,1.8c3.6-0.2,6.5,0.1,6.5,0.8c-0.2,1.8,3,3,4,1.5c1.3-1.8,5-1.5,8.9,0.8
		c0.7,0.4,2.2,0.8,3.3,0.8s2.4,0.8,2.8,1.7c0.5,0.9,1.6,1.1,2.5,0.5c1.1-0.7,1.9-0.4,2.4,1c0.7,1.8,0.8,1.7,1.1-0.3
		c0.2-1.9,2.6-2.6,14.2-4.2c7.6-1,16.6-1.7,19.9-1.4c3.3,0.3,12,0.1,19.2-0.5c7.3-0.5,14.9-0.8,16.8-0.6c5.9,0.6,14.6,1,20.3,0.8
		c7.8-0.2,18.7,0,21.1,0.4c1.2,0.2,4.2,0.6,6.6,0.8s4.7,0.7,5,1c0.2,0.3,3.8,0.8,7.9,1.2c4.1,0.4,10.3,1.3,13.8,2s9.7,1,13.7,0.6
		c7.3-0.7,19,1.2,33,5.4c6.9,2.1,14.6,1.1,13.5-1.7c-0.5-1.3,27-4.2,28.9-3.1c0.9,0.6,2-0.1,3-1.7c0-0.1,0.1-0.1,0.1-0.2
		c0.3,0,0.7,0,1,0.1c2.5,0.2,4.8,0.7,5.2,1.2c0.4,0.5,3.7,0.7,7.5,0.4c5.4-0.4,7,0,7.8,1.9c0.5,1.3,2,2.4,3.3,2.5
		c1.3,0.1,2.9,0.6,3.6,1.2c0.7,0.6,1.7,1.3,2.2,1.6c0.5,0.3,5.6,0.7,11.4,0.8c5.8,0.1,11.9,0.4,13.7,0.5c6.4,0.4,14.7,0.6,26.6,0.6
		c6.6,0,12.7,0.3,13.4,0.6c0.8,0.3,6.4,0.7,12.4,0.9c6.1,0.2,14.8,1,19.5,1.7c4.7,0.7,9.4,1.2,10.5,1c1.1-0.2,4.1,0.2,6.6,0.9
		l4.6,1.2l-2.5,1.6c-1.4,0.9-5.4,1.9-9,2.3c-5.6,0.6-6.5,1.1-6.6,3.4c0,2.3-1,2.6-8.8,2.7c-4.8,0-13.6-0.4-19.5-0.9
		c-5.9-0.5-13.3-1-16.4-1c-3.1-0.1-7.4-0.3-9.6-0.7c-2.2-0.3-6.2-0.4-8.9-0.1c-5.8,0.5-19.2-1-21.9-2.4c-1-0.5-2.9-0.4-4.2,0.3
		c-2.5,1.4-3.5,1.4-9.7,0.4c-7-1.2-11.1,1.4-8.2,5.1c0.7,0.9-0.9,1.2-4.7,0.9c-5.3-0.5-11.7,0.2-16.2,1.8c-1.1,0.4-1.7,1.5-1.6,2.7
		c0.2,1.6,0,1.7-1.3,0.4c-0.8-0.9-2.6-1.7-3.9-1.7c-1.3,0-3.4-0.3-4.6-0.7c-3.6-1.2-15.5-0.3-15.6,1.2c-0.1,0.7-0.7,0.4-1.3-0.9
		c-0.6-1.2-1.3-1.9-1.5-1.6s-1.8,1.3-3.6,2.1c-2.5,1.1-3.5,1-4-0.5c-0.4-1.1-1.7-2-3-2.1c-4.1-0.2-8.5,0.6-8.9,1.6
		c-0.6,1.4-0.3,3.4,0.6,3.3c2.4,0,12.2,0.6,16,1.1c2.5,0.3,4.7,0.4,4.9,0.2c0.9-0.8,19.2,0.7,19.9,1.5c0.4,0.5,2.6,0.9,4.9,0.8
		c9.8-0.5,22.2,0.6,27,2.4c0.7,0.3,3.1,0.7,5.3,1.1c2.2,0.3,4.1,1.1,4.2,1.7c0.1,1.2-14,2.4-16.2,1.4c-3.9-1.8-8.8-2.1-15.5-0.9
		c-10.6,1.9-18.5,2.7-19,2.1c-0.2-0.3-2.3-0.8-4.6-1c-5.7-0.7-7.2-1-9.4-1.9c-1.4-0.6-1.9-0.2-2,1.6c0,1.3-0.4,2.1-0.8,1.9
		c-0.4-0.3-2.2-0.7-4.1-0.9c-1.8-0.2-5.9-0.8-9.1-1.4c-7.9-1.3-12.1-1.1-17.4,0.8c-3.1,1.1-4.8,1.1-5.3,0c-0.4-1-0.5-0.6,0,1
		c0.8,3.3-0.5,3.7-2.1,0.7c-1.6-2.9-1.9-2.7-1.3,0.9c0.3,2.1,0.9,3,1.8,2.9c0.7-0.1,1.8,0.2,2.4,0.7c0.8,0.6,0.9,0.3,0.5-0.8
		c-0.4-1-0.4-1.8,0-1.8c0.3,0,0.7,1,0.9,2.2c0.3,2.5,0.3,2.5,8.2,2.2c2.9-0.1,5.7,0.1,6.2,0.6c0.5,0.4,2.5,1,4.4,1.3
		c1.9,0.3,3.6,0.7,3.8,0.9c0.2,0.2,2.5,0.6,5.1,0.8c2.6,0.2,6.8,0.5,9.3,0.8c2.5,0.2,5.5,0.5,6.6,0.6c1.2,0.1,3.5,0.4,5.1,0.6
		c10.3,1.6,17.2,2.1,24.3,1.8c8-0.4,13.5,0,17.1,1c1.1,0.3,4,0.7,6.6,0.8c2.6,0.1,5.9,0.8,7.5,1.4c1.5,0.6,10.6,0.5,20.1-0.3
		c9.6-0.8,20.1-1.1,23.4-0.7c3.3,0.4,7.9,0.5,10.1,0.1c2.2-0.4,6.4-0.5,9.2-0.2c2.8,0.2,9.5,0.1,14.8-0.3
		c11.6-0.8,22.8-0.8,44.2,0.1c8.6,0.4,14.9,0.8,31.4,2.3c4.1,0.4,13.4,0.6,20.6,0.6c7.2,0,15.3,0.1,18,0.2c3.3,0.2,4.9-0.3,4.7-1.3
		c-0.1-0.9-0.7-1.9-1.3-2.2c-0.6-0.3,0.2-0.9,1.8-1.3c9.1-2.2,15.1-2.9,25.7-3c16.4-0.2,15.6-0.1,31-3.3c7.6-1.6,20-3.6,27.5-4.4
		c10.4-1.1,14.3-2.1,16.4-4.1c1.6-1.5,7-3.6,12.9-4.9c12.9-2.9,15.7-3,17.1-0.5c0.6,1.1,2.4,2,3.8,2c3.3-0.1,16.8-3.7,17.7-4.7
		c0.4-0.4,4.7-1.3,9.6-2c4.9-0.7,9.8-2.1,11-3.1c1.2-1,3.9-2.4,6.1-3c2.2-0.6,7-2.2,10.5-3.6c3.6-1.4,9-3.1,12-3.9
		c3-0.8,7.5-2.4,9.9-3.5c36-16.6,35.2-16.3,36.5-13.4c0.9,1.9,0.7,2.4-1.1,3.5c-1.3,0.8-2.5,2.9-2.9,5.2c-0.9,4.4-0.8,6.8,0,4
		c0.8-2.5,1.6-0.6,1.3,3c-0.2,2.5,0,2.9,1.1,3c0.8,0,1.6-0.1,1.8-0.2c0.2-0.1,0.5,0.5,0.6,1.5c0.1,1,1,3.1,1.9,4.8
		c1.8,3.1,3.1,3,9.5-0.8c0.9-0.5,4.2-2.5,7.2-4.2c3-1.8,8-4.9,11-6.9c6.5-4.3,7.8-5.1,14.3-8.6c12.7-6.8,17.4-9.7,19.6-12.1
		c1.3-1.4,3.2-2.6,4.3-2.8c1.1-0.1,3.4-1.4,5.3-2.9c1.8-1.4,5.3-4,7.7-5.6c5.3-3.6,15.9-10.9,24-16.4c4.9-3.4,6.2-3.8,7.5-2.4
		c1.3,1.4,3.1,0.9,9.6-2.7c4.4-2.4,8.4-4.1,8.7-3.6c0.4,0.4,1.7,0,3-1c2.3-1.8,5.5-3.7,8.9-5.4V0H0z"/>
	<path class="st0" d="M698.6,84c-0.3,0.1-0.1,0.8,0.4,1.5c0.9,1.2,4.5-0.7,4.9-2.6C704.1,82.1,701.6,82.6,698.6,84z"/>
	<path class="st0" d="M731.1,89.9c2.8-0.1,5.4,0.3,5.9,0.8c0.5,0.6,0.8,0.3,0.6-0.6c-0.1-1.1,0.2-1.2,1-0.4c0.7,0.7,2.8,1,4.8,0.6
		c2-0.4,3.5-0.1,3.4,0.5c-0.1,0.7,1.3,1.1,3,1c1.7-0.1,3.7-0.1,4.3-0.1s1.5-0.7,1.8-1.6c0.5-1.2,0.6-1.1,0.5,0.3
		c-0.1,1.1,0.1,1.9,0.4,1.9c0.3,0,0.5-0.8,0.4-1.6c-0.1-0.8,0.6-1.6,1.6-1.8c1-0.1,1.7,0.4,1.6,1.4c-0.1,0.9,0,1.6,0.2,1.5
		c0.4-0.1,3.2-5,3.2-5.5c0-0.2-2.4,0.1-5.3,0.7c-3.1,0.6-5.8,0.4-6.7-0.5c-0.8-0.9-4.7-1.5-8.6-1.3c-11.5,0.5-17.7,0.2-20.4-1
		c-1.4-0.6-2.6-1.1-2.8-1.2c-0.5-0.1-2.7,4.7-2.2,4.9c1.1,0.4,1.7,0.8,1.9,1.1c0.1,0.2,1.5,0.4,3.2,0.5c1.6,0.1,3,0.2,3,0.3
		C726.1,90,728.4,90,731.1,89.9z"/>
	<path class="st0" d="M734.8,102.3c-1.5,0.5-2.9,1.2-3,1.6c-0.1,0.4-0.9-0.5-1.7-2.1c-0.8-1.5-1.9-2.8-2.3-2.7
		c-0.9,0.1-1.1,5.5-0.2,7.8c0.6,1.7,3.7,1.7,4.1,0c0.5-2,2.1-2.2,3.3-0.3c1.1,1.8,5.2,1.8,5.7-0.1
		C741.2,104.2,737.5,101.4,734.8,102.3z"/>
	<path class="st0" d="M908.9,155.3c-2.1,1.4-0.9,3.9,1.3,2.8c1-0.5,2-0.9,2.2-1c0.2-0.1,0.4-0.7,0.3-1.4
		C912.5,154.1,911,154,908.9,155.3z"/>
	<path class="st0" d="M939.4,155.8c-1.8-1.7-3.3-1.9-6.8-0.8c-2.8,0.9-4.5,0.9-4.6-0.1c-0.2-1.6-2.8-0.9-3.2,0.8
		c-0.3,1.2-2.7,0-2.6-1.3l0,0c0.2-1.9-6.7-0.1-7.2,1.9c-0.4,1.6-0.2,2,0.8,1.9c0.7-0.1,1.5,0.4,1.7,1c0.2,0.7,2.4,0.9,4.9,0.6
		c2.4-0.4,4.5-0.1,4.6,0.5c0.3,2,1.9,1,1.7-1c-0.1-1.1,0.2-0.8,0.7,0.7c0.5,1.4,1.6,2.5,2.3,2.4c1.1-0.1,1.3-0.8,0.7-2.8
		c-0.7-2.5-0.6-2.5,0.5-0.1c1,2.3,1.3,2.3,2.5,0.2c1.3-2.3,1.4-2.2,1.8,1c0.2,1.8,0.5,2.6,0.7,1.8c0.1-0.9,0.6-1.9,1.1-2.2
		c0.4-0.3,0.8-1.2,0.8-2c0-0.7,0.5-1.1,1.1-0.8C941.3,157.8,940.7,157,939.4,155.8z"/>
	<path class="st0" d="M721.6,102.3c0.3,2.6,1.1,3,1.4,0.6c0.1-0.9,0.5-1.2,0.9-0.7c0.5,0.6,0.5,0.3,0.1-0.8
		C723.1,98.9,721.2,99.6,721.6,102.3z"/>
	<path class="st0" d="M717.9,98c-0.2,0.5-0.7,0.3-1-0.6c-0.3-0.8-0.7-1.5-0.8-1.5c-0.1,0,0.2,1.3,0.8,2.9c1.1,2.8,2,2.7,1.6-0.3
		C718.4,97.7,718.2,97.5,717.9,98z"/>
	<path class="st0" d="M707.7,84.3c-1.2-1.5-3-1.3-2.8,0.3c0.1,0.7,1,1.2,1.9,1.1C708,85.5,708.3,85,707.7,84.3L707.7,84.3z"/>
	<path class="st0" d="M1137.6,147.4c-0.6,0.1-0.6-0.3-0.1-1.5c0.5-1.2,0.2-1.5-1.2-1.4c-1.1,0.1-1.7,0.8-1.4,1.7
		c0.3,0.8,0.3,1.5-0.1,1.6c-0.3,0-0.7-0.6-0.8-1.5c-0.1-0.8-0.6-1.5-1.1-1.4c-0.5,0.1-0.8-0.6-0.7-1.5c0.1-0.9-0.1-1.5-0.4-1.5
		c-0.3,0-0.6,0.6-0.5,1.2c0.1,0.6-1.3,1.3-3.1,1.6c-1.8,0.2-3.3,0-3.3-0.6c-0.1-0.5-5.6-0.4-12.3,0.4c-6.7,0.7-21.8,2.1-33.6,3.1
		s-25,2.2-29.4,2.6c-4.8,0.5-8.2,0.2-8.5-0.7c-0.4-1-0.5-0.8-0.4,0.6c0.2,1.6,0,1.7-0.8,0.4c-0.7-1.1-2.9-1.3-6.6-0.4
		c-3,0.7-5.7,0.9-5.9,0.5c-0.7-1.4-2.8-1.4-2.6,0c0.1,0.8-0.7,0.9-2,0.2c-1.2-0.6-2.8-1.1-3.5-1c-0.8,0.1-6.4,0.5-12.5,0.8
		c-6.9,0.4-11,1.2-10.9,2.1c0.1,0.8-0.2,1.5-0.7,1.6c-0.5,0.1-1-0.5-1.1-1.3c-0.2-1.6-5.9,0.4-6.5,2.3c-0.4,1.1-8.1,2-8.2,1
		c0-0.2-1.5-0.4-3.3-0.4c-5.6-0.1-10.9-0.9-11.6-1.7c-0.4-0.4-0.6-0.2-0.5,0.6c0.2,1.9-3.3,1.9-3.6,0c-0.1-1-0.3-1-0.4,0.1
		c-0.1,0.9-1.2,1.7-2.4,1.9c-1.2,0.2-2.3-0.4-2.4-1.3c-0.1-0.9-2.1-1.2-5-0.7c-8.2,1.3-8.9,1.6-7.8,3c0.8,1,0.7,1.5-0.3,2.1
		c-1.2,0.8-1.2,0.9,0.3,0.9c0.9,0,2.2,0.6,2.9,1.3c0.7,0.7,2.5,0.6,4.3-0.3c2.5-1.3,3.3-1.1,4.1,0.8c0.5,1.3,0.7,1.5,0.4,0.5
		c-0.4-1.1,0-2.3,0.9-3c0.8-0.6,1.8-1.5,2.2-1.9c0.6-0.6,0.6-0.3,0.3,1.6c-0.4,1.9-0.3,2.5,0.4,3c1.9,1.2,12,2.1,16.3,1.4
		c2.5-0.4,4.6-0.4,4.6,0.1c0.2,1.6,17.2,2,26.9,0.6c6.2-0.9,9.8-0.8,10,0.1c0.1,0.8,0.3,0.5,0.5-0.8c0.2-1.8,0.5-1.9,1-0.6
		c0.4,1,0.9,1.2,1.3,0.5c0.6-1.2,5.5-0.3,6.8,1.3c0.6,0.7,6.2,0.7,27.9-0.3c6-0.3,15.7-0.6,21.6-0.8c5.9-0.2,20.1-1.5,31.6-2.9
		c17-2.1,21-3,21.1-4.7c0.2-1.5,0.4-1.7,0.9-0.5c0.4,1.1,1,0.6,1.8-1.7l1.1-3.4l0.9,3.1c0.5,1.7,1,3.1,1.2,3.1
		c0.2,0,0.1-0.8-0.3-1.7c-0.4-1.1-0.2-1.4,0.8-0.8c0.8,0.5,1.3,0.2,1.2-0.8c-0.1-0.9,0.3-1.7,1-1.8c0.7-0.1,1.5-1.2,1.8-2.6
		C1138.3,147.9,1138.2,147.3,1137.6,147.4z"/>
	<path class="st0" d="M1139.3,150.3c0.1,0.8,0.7,1.5,1.2,1.4c0.9-0.1,0.9-0.4-0.1-1.5C1139.1,148.5,1139.1,148.5,1139.3,150.3z"/>
	<path class="st0" d="M1158.1,144.9c-0.3,0-0.4-1-0.4-2.3c0.1-3.4,1.4-3,2.5,0.8l1,3.3l0.3-3.5c0.2-3,0.1-3.3-0.6-2.4
		c-0.7,0.9-0.8,0.6-0.6-2.4c0.2-3.1,0.2-3.3-0.6-2c-0.5,0.8-1.6,1.4-2.4,1.3c-2.3-0.4-4.1,1.4-3.4,3.3c0.4,1.1,0.3,1.4-0.4,0.9
		c-0.6-0.5-1.1,0.2-1.1,1.5c0,1.3,0.1,1.9,0.4,1.3c0.2-0.6,0.6-0.3,0.7,0.6c0.4,3.2-2,1.8-3.1-1.7c-1-3.3-1.4-3.5-4.8-2.9
		c-2.2,0.4-3.5,1.3-3.2,2.2c0.3,0.8,0.7,1.2,0.9,1s0.6,1.3,0.7,3.5c0.2,2.8,0.6,4.4,1.4,5.3c1.7,1.9,1.7,1.8,1.9-3.4
		c0.1-4.5,1-6.5,1.4-3.3c0.1,0.8,0,1.6-0.3,1.6c-0.3,0-0.5,1.1-0.6,2.4c0,2,0.1,2.1,1,0.5c0.7-1.3,1-1.4,0.8-0.1
		c-0.1,1.1,0.5,1.6,1.9,1.5c1.2-0.1,2-1,1.9-2c-0.2-1.2,0.7-1.5,2.7-1.1c2.4,0.5,2.9,0.2,2.6-1.7
		C1158.7,145.8,1158.4,144.8,1158.1,144.9z"/>
	<path class="st0" d="M1161.8,146.2c-0.8,1.4-1.1,1.5-1.5,0.2c-0.2-1-0.6-1.3-0.9-0.8c-0.7,1.5,0.5,3.7,1.9,3.5
		c0.7-0.1,1.7-1.3,2.1-2.6v0C1164.4,143.6,1163.2,143.4,1161.8,146.2z"/>
	<path class="st0" d="M1142.5,149.9c-1.1,0.1-0.9,1.3,0.7,3c1.1,1.2,1.2,1.1,0.7-0.8C1143.6,150.9,1142.9,149.9,1142.5,149.9z"/>
	<path class="st0" d="M1150.8,127.1c0.4-0.1,0.3-0.7-0.4-1.5c-1.4-1.8-1.6-1.7-0.9,0.1C1149.9,126.5,1150.4,127.1,1150.8,127.1z"/>
	<path class="st0" d="M1101.7,127c0.7-1,0.7-1.5,0.1-1.4c-0.5,0-1.2,0.7-1.6,1.6C1099.3,129.1,1100.3,129,1101.7,127z"/>
	<path class="st0" d="M1098.1,127.3c-0.3-0.7-0.9-1.3-1.3-1.2c-1.2,0.2-0.9,1.2,0.6,1.9C1098,128.4,1098.4,128.1,1098.1,127.3z"/>
	<path class="st0" d="M1126.6,127c0.1,0,0.2-0.7,0.1-1.6c-0.1-0.8-0.5-1.5-0.8-1.5c-0.3,0-0.4,0.7-0.1,1.6
		C1126.1,126.4,1126.5,127,1126.6,127z"/>
	<path class="st0" d="M1090.6,126.7c-0.1-0.6-0.8-1.4-1.6-1.7s-1.5-0.6-1.6-0.7c-0.1-0.1,0,0.6,0.2,1.6
		C1088.2,127.9,1090.9,128.6,1090.6,126.7z"/>
</g>
</svg>
