<?xml version="1.0" encoding="utf-8"?>
<!-- Generator: Adobe Illustrator 24.3.0, SVG Export Plug-In . SVG Version: 6.00 Build 0)  -->
<svg version="1.1" id="Layer_1" xmlns="http://www.w3.org/2000/svg" xmlns:xlink="http://www.w3.org/1999/xlink" x="0px" y="0px"
	 viewBox="0 0 1439 287.5" preserveAspectRatio="none" style="enable-background:new 0 0 1439 287.5;" xml:space="preserve">
<style type="text/css">
	.st0{fill:#0b0b0b;}
</style>
<g>
	<path class="st0" d="M679.6,31.1c-0.8,0-0.7,0.7,0.4,1.6c2.2,2,2.6,2,1.7,0C681.2,31.8,680.3,31.1,679.6,31.1z"/>
	<path class="st0" d="M665.5,12.6l-1.1-3.7l-1.3,3.7c-1.1,3.2-1.1,3.5,0.5,2.6c1.6-0.9,1.7-0.5,0.5,2.6c-1.2,3.3-1.1,3.5,0.7,2.2
		c1.1-0.8,3.3-1.3,4.9-1c4.4,0.7,8.1-0.9,7.2-3.1c-0.5-1.2-0.2-1.5,1-0.9c1,0.6,2.1,0,2.4-1.5c0.4-1.4,0.1-2-0.5-1.4
		c-0.6,0.6-1.1,0.2-1.1-0.7c0-3.4,4.2-1.7,5.4,2.2c1.1,3.6,1.9,3.9,8.4,3.6c4.2-0.2,6.9-1,6.5-1.9c-0.3-0.9-1-1.4-1.6-1.1
		c-0.5,0.3-0.7-1.4-0.5-3.8c0.4-3-0.1-4.7-1.5-5.9c-2.8-2.2-2.9-2.2-4.4,3.4c-1.3,4.8-3.3,6.8-3.4,3.3c0-0.9,0.4-1.7,1-1.7
		c0.6,0,1.3-1.1,1.7-2.5c0.5-2.1,0.2-2.2-1.7-0.7c-1.7,1.3-2.1,1.3-1.6,0c0.5-1.2-0.6-1.8-3.3-1.8c-2.2,0-4,0.9-4,1.9
		c0,1.3-1.7,1.5-5.4,0.8c-4.4-0.8-5.5-0.6-5.4,1.5c0,1.4,0.4,2.5,0.9,2.5c0.5,0,0.6,1.1,0.3,2.5C669.2,17.4,666.8,16.8,665.5,12.6z"
		/>
	<path class="st0" d="M656.7,15.8c0.8,0,1.2-1,0.9-2.2c-0.3-1.2-0.7-2.2-0.9-2.2c-0.2,0-0.6,1-0.9,2.2
		C655.5,14.8,655.9,15.8,656.7,15.8z"/>
	<path class="st0" d="M704.6,7.8c2.1,2,2.3,2,2.3,0c0-0.9-0.9-1.6-2-1.6C703.2,6.2,703.1,6.4,704.6,7.8z"/>
	<path class="st0" d="M700.8,7.8c2.2,0,1.9-1.2-0.7-3.3c-1.8-1.4-2.1-1.3-1.6,0.8C698.9,6.7,699.9,7.8,700.8,7.8z"/>
	<path class="st0" d="M663.2,9.4c1.8-1.4,2.5-1.4,2.8,0c0.2,1,0.9,1.5,1.5,0.9c1.7-1.5-0.1-4-2.7-4c-1.4,0-3.4,1.2-4.6,2.5v0
		C657.6,11.8,659.7,12.1,663.2,9.4z"/>
	<path class="st0" d="M409.5,47.9c1.5-0.6,2-1.3,1.2-1.8c-0.8-0.4-2,0.1-2.7,1C407.2,48.4,407.6,48.6,409.5,47.9z"/>
	<path class="st0" d="M652.1,17.5c1.6-2.4,1.9-7.8,0.3-7.8c-0.6,0-0.7,1.2-0.4,2.6c0.5,1.8,0,2.9-1.5,3.5c-1.2,0.5-2,1.5-1.6,2.3
		C649.8,20.2,650.4,20,652.1,17.5z"/>
	<path class="st0" d="M435.6,53c1.8-1.5,3.3-1.9,3.7-0.9c0.4,0.9,1.4,1.2,2.3,0.7c0.9-0.5,1.4-1.6,1.1-2.3c-0.3-0.7-0.1-1.8,0.5-2.4
		c0.6-0.5,1.6,0.3,2.2,2c1.1,3.1,6.9,4.8,6.9,2.1c0-0.8,2.1-1.4,4.6-1.2c3,0.2,4.8-0.4,5.2-1.8c0.4-1.6,0.9-1.7,2.1-0.3
		c1.7,2,4.3,0.5,3.2-1.9c-0.4-0.8-0.1-1.5,0.5-1.5c0.7,0,1.2,0.8,1.2,1.8c0,3.2,21.1-0.4,22.6-3.8c0.8-1.9,12.4-4.7,11.6-2.8
		c-0.3,0.8,0.2,1.4,1.2,1.4c1,0,1.8-0.6,1.8-1.3c0-0.7,1.3-1.2,2.8-1.3c1.5,0,2.8,0.6,2.8,1.3c0,0.7,1.1,0.8,2.5,0
		c1.4-0.7,5.8-1.5,9.9-1.6c10.2-0.5,10.4-0.5,9.6-2.4c-0.5-1.1,0.9-1.3,3.9-0.6c3.2,0.7,5.2,0.3,6.5-1.2c1-1.3,1.6-1.5,1.2-0.5
		c-0.5,1.2,2.8,1.9,10.2,2.1c6,0.2,11.6,1.1,12.3,2.1c0.9,1,2.7,1.2,4.5,0.4c1.7-0.7,5.3-1.5,7.9-1.7c2.7-0.2,5.1-0.7,5.4-1.2
		c0.3-0.4,3.4-0.1,7,0.7c3.6,0.8,9.9,1.2,14.1,0.9c4.2-0.3,7.6-0.2,7.6,0.3c0,1,14.9-0.1,15.7-1.2c1.7-2.4-3.3-4.5-10.8-4.6
		c-4.8,0-8.9-0.8-9.1-1.8c-0.2-1,1.9-1.6,5.3-1.5c4.6,0.1,6.2-0.6,8.4-4c1.5-2.3,2.8-4.7,2.8-5.3c0-0.7-2.2-1.8-4.8-2.5
		c-2.6-0.7-5.6-1.6-6.5-2.1c-2.1-1.1-17.4-0.9-27.1,0.3c-4,0.5-12.1,1.4-18,2c-15.2,1.5-26.8,2.8-32.7,3.6
		c-2.8,0.4-9.4,1.1-14.6,1.7c-11.2,1.2-35.9,5.4-45.8,7.8c-3.8,0.9-8.6,1.7-10.7,1.8c-2.1,0.1-4.8,0.9-6.1,1.7
		c-2.2,1.5-2.2,1.6,0.1,0.9c2.9-0.8,3.2,3.3,0.3,4.4c-1.3,0.5-2.3-0.3-2.7-2.3c-0.4-1.7-1.4-3.1-2.2-3.1c-0.8,0-2.4-0.5-3.5-1.1
		c-1.5-0.8-1.7-0.5-1,1.2c0.8,1.9,0.7,2-0.8,0.3c-1.8-2.2-5.3-1.1-6.9,2c-0.6,1.2-1.1,1.1-1.5-0.3c-0.3-1.1-1.6-2.1-2.8-2.1
		c-1.2,0-1.9,0.7-1.6,1.5c0.8,2-1.4,4.4-5.5,6.1c-1.9,0.7-3.8,1.5-4.2,1.7c-0.5,0.2-1.8,0.4-2.9,0.6c-1.1,0.1-2.1,1.3-2.2,2.7
		c-0.1,1.4-0.3,3.7-0.3,5.1c-0.1,1.6-0.9,2.3-2.2,1.8c-2-0.8-2.4,2.1-0.6,4C421.4,59,432.1,55.9,435.6,53z"/>
	<path class="st0" d="M725.5,34.1c-0.3,0-0.5,0.7-0.5,1.7c0,0.9,0.5,1.7,1.2,1.6c0.7,0,0.9-0.7,0.5-1.7
		C726.4,34.9,725.8,34.1,725.5,34.1z"/>
	<path class="st0" d="M642.7,36.2c3.4-0.5,6.9-1.6,7.8-2.4c1-1,1.3-0.9,0.8,0.3c-1.1,2.7,1.2,4,3.7,2.1c1.5-1.2,2.4-1.2,2.9-0.1
		c1.1,2.5,5.8,2,7.7-0.9c1.8-2.6,3.5-3.4,2.6-1.2c-0.3,0.7,1.5,1,3.9,0.6c5.1-0.7,5.1-3.2,0-2.6c-1.9,0.2-3.7-0.3-4-1
		c-0.3-0.8-1.7-1.1-3.1-0.7c-1.4,0.4-9.2,0.8-17.4,0.9c-13.9,0.2-14.7,0.4-13,3C636.1,36.5,637.9,36.9,642.7,36.2z"/>
	<path class="st0" d="M646.6,9.6c1.3-0.1,1.6-0.5,0.7-1c-0.8-0.5-1.8-0.4-2.2,0.1C644.8,9.3,645.5,9.7,646.6,9.6z"/>
	<path class="st0" d="M711.2,14.3c2.2,0,3.4-0.7,3-1.6c-0.4-0.9-0.2-1.7,0.5-1.7c0.7,0,1.2,0.7,1.2,1.6s0.8,1.6,1.8,1.6
		c1,0,1.4,0.7,1.1,1.6c-0.4,0.9-0.2,1.7,0.5,1.7s1.2-0.6,1.2-1.2c0-0.7,2.8-1.3,6.2-1.3c3.4,0,6.2,0.4,6.2,1
		c0,0.6,10.5,1.1,23.4,1.1c12.9,0.1,41.9,0.4,64.6,0.8c22.6,0.4,48,0.8,56.4,0.8c9.1,0.1,15.6,0.8,16.1,1.8c0.5,1.1,0.8,0.9,0.8-0.5
		c0-1.8,0.4-1.8,1.6-0.3c1.1,1.3,5.3,1.7,12.4,1.3c6-0.4,11.1-0.3,11.4,0.2c1.1,1.6,5,1.8,5,0.3c0-0.9,1.5-0.9,3.8,0
		c2.1,0.8,5,1.5,6.5,1.5c1.5,0,12.2,0.3,23.9,0.6c13.2,0.4,21.1,0.1,21.1-0.9c0-0.9,0.8-1.6,1.7-1.6c0.9,0,1.7,0.7,1.7,1.5
		c0,1.8,11.3,0.3,13-1.7c0.9-1.1,15.8-1.2,15.8-0.1c0,0.2,2.8,0.6,6.2,0.8c10.5,0.8,20.5,2.3,21.5,3.3c0.6,0.5,1,0.2,1-0.6
		c0-2.1,6.8-1.6,6.8,0.5c0,1.1,0.3,1.1,0.8,0c0.5-0.9,2.7-1.7,5.1-1.7c2.3,0,4.2,0.7,4.2,1.6c0,1,3.8,1.6,9.3,1.4
		c15.9-0.4,17.3-0.6,15.6-2.2c-1.2-1.1-1-1.6,1.1-2.2c2.5-0.7,2.5-0.8-0.5-1c-1.7-0.1-4.1-0.9-5.2-1.7c-1.1-0.9-4.7-1-8.2-0.3
		c-5.1,1-6.5,0.8-7.6-1.3c-0.7-1.4-1-1.7-0.7-0.6c0.4,1.2-0.6,2.4-2.5,3c-1.7,0.6-3.9,1.4-4.7,1.8c-1.3,0.6-1.3,0.3-0.2-1.8
		c1.1-2,1.1-2.6-0.1-3.2c-3.4-1.5-22.4-3.7-30.6-3.5c-4.8,0.1-8.7-0.2-8.7-0.7c0-1.8-32.2-4.3-51-4c-11.9,0.2-18.9-0.3-18.9-1.3
		c0-0.9-0.5-0.5-1.1,0.8c-0.8,1.9-1.3,2-2,0.5c-0.5-1.1-1.5-1.4-2.3-0.6c-1.4,1.3-10.5-0.4-12.5-2.2c-0.9-0.8-11.6-1.5-53-3.1
		c-11.5-0.5-30-1.3-41.2-1.8c-11.2-0.5-38.5-0.9-60.6-0.8c-32.8,0.1-40.5,0.6-41.3,2.4c-0.7,1.6-1.2,1.7-1.7,0.4
		c-0.5-1.3-1.7-0.8-3.7,1.6l-3,3.4l-0.9-3.4c-0.5-1.9-1.2-3.4-1.5-3.4c-0.4,0-0.3,0.8,0.1,1.8c0.5,1.2,0,1.5-1.6,0.7
		c-1.4-0.7-2.4-0.4-2.4,0.7c0,1-1,1.8-2.3,1.8c-1.3,0-3.1,1.1-4,2.5c-1.3,1.9-1.3,2.5-0.2,2.5c1.1,0,1,0.4-0.2,1.6
		C707.9,13.9,708.4,14.3,711.2,14.3z"/>
	<path class="st0" d="M1433.4,117.6c-3.3-0.1-7-0.3-8.2-0.4c-1.2-0.1-3,0.6-3.9,1.5c-1.2,1.2-1.4,1.1-0.8-0.4
		c0.5-1.1,0.3-2.1-0.4-2.1c-0.7,0-1.2,0.8-1.2,1.7c0,0.9-1.5,1.7-3.4,1.7c-2,0-3.2-0.7-2.8-1.6c0.4-0.9,0.4-1.7,0-1.7
		c-0.8,0-7.3,4.9-7.3,5.5c0,0.2,4.6,0.1,10.2-0.1c6.1-0.3,11.1,0.2,12.6,1.4c1,0.8,5.5,1.6,10.8,2.1v-5.7c-0.2-0.1-0.2-0.2-0.2-0.4
		C1439.1,118.4,1436.7,117.8,1433.4,117.6z"/>
	<path class="st0" d="M1145.9,30.7c4.3-1.2,2.7-4-1.8-3.1c-2,0.4-4,0.8-4.4,0.8c-0.5,0.1-0.8,0.7-0.8,1.5
		C1138.8,31.6,1141.6,31.9,1145.9,30.7z"/>
	<path class="st0" d="M793.8,38.9c0,0.7,1.2,1.6,2.5,2c1.4,0.4,2.7,0.8,2.9,0.9c0.2,0.1,0.2-0.6-0.1-1.7
		C798.7,37.9,793.8,36.8,793.8,38.9z"/>
	<path class="st0" d="M779.8,37.3c0.4,0.8,1.4,1.5,2.3,1.5c2.3,0,2-1.1-0.6-2.1C780.2,36.2,779.5,36.5,779.8,37.3z"/>
	<path class="st0" d="M1088.1,26.5c3.1,2.1,5.9,2.5,12.7,1.7c5.5-0.6,8.7-0.4,8.8,0.6c0,1.7,5,1.3,6.2-0.5c0.9-1.3,5.2,0.3,4.6,1.7
		v0c-0.8,2,12.8,1,14.2-1.1c1.1-1.7,0.9-2.1-1-2.1c-1.3,0-2.7-0.6-3-1.3c-0.3-0.7-4.4-1.3-9.1-1.2c-4.7,0.1-8.5-0.4-8.5-1.1
		c0-2.2-3.4-1.3-3.4,0.8c0,1.1-0.5,0.8-1.2-0.8c-0.6-1.6-2.4-2.9-3.9-2.9c-2.1,0-2.6,0.7-2,2.9c0.7,2.7,0.6,2.7-0.9,0
		c-1.4-2.6-1.9-2.6-4.7-0.5c-2.9,2.3-3.1,2.2-3.1-1.2c0-2-0.4-2.9-0.8-2c-0.5,0.9-1.6,1.9-2.5,2.2c-0.9,0.3-1.8,1.2-2,2
		c-0.2,0.8-1.2,1.1-2.3,0.7C1085,24.2,1085.9,25,1088.1,26.5z"/>
	<path class="st0" d="M773,37.2c-1.5,0.9-1.7,1.5-0.6,1.5c0.9,0,2.4-0.6,3.4-1.5C777.8,35.2,776.1,35.2,773,37.2z"/>
	<path class="st0" d="M404.9,51.6c0.6-0.6,0.8-1.7,0.5-2.6c-1-2.3-1.7-1.9-1.6,1C403.8,51.5,404.3,52.2,404.9,51.6z"/>
	<path class="st0" d="M394.9,59.1c0.7,0,0.9-0.7,0.5-1.7c-0.4-0.9-0.9-1.6-1.2-1.6c-0.3,0-0.5,0.7-0.5,1.7
		C393.7,58.4,394.2,59.1,394.9,59.1z"/>
	<path class="st0" d="M1428.6,97.1c-5.5-0.2-10.7-0.9-11.6-1.4c-0.9-0.5-4.5-1.4-8.1-1.9c-3.5-0.5-6.7-1.2-7-1.5
		c-0.3-0.3-4.6-0.9-9.6-1.5c-5-0.5-12.8-1.4-17.5-2c-4.7-0.6-10.2-1.2-12.4-1.5c-2.2-0.2-6.5-0.8-9.6-1.3
		c-19.2-2.9-32.3-4.3-45.7-4.8c-15.2-0.6-25.6-1.6-32.3-3.2c-2-0.5-7.5-1.2-12.4-1.7c-4.9-0.5-11.1-1.6-13.8-2.4
		c-2.8-0.9-20-1.8-38.3-2.1c-18.4-0.3-38.4-1.2-44.6-2.1c-6.2-0.9-14.8-1.5-19.2-1.4c-4.3,0.1-12.2-0.3-17.5-0.9
		c-5.3-0.6-18-1.3-28.2-1.5c-22.2-0.5-43.6-1.9-84-5.5c-16.2-1.4-28.1-2.7-59.2-6.3c-7.8-0.9-25.3-2.3-38.9-3.2
		c-13.6-0.8-29-2-34.1-2.5c-6.1-0.6-9.3-0.3-9.3,0.8c0,1,0.9,2.1,2,2.5c1.1,0.4-0.6,0.9-3.7,1.1c-17.7,1.2-29.4,1.2-49.6,0
		c-31.2-1.8-29.6-1.8-59.8-0.3c-14.9,0.8-38.8,1.3-53.2,1.3c-20-0.1-27.6,0.5-32.1,2.3c-3.5,1.4-14.1,3-25.7,3.7
		c-25.2,1.5-30.6,1.3-32.7-1.5c-1-1.3-4-2.4-6.8-2.5c-6.3-0.3-32.7,1.8-34.7,2.9c-0.8,0.4-9.2,0.8-18.6,0.9
		c-9.4,0.1-19.2,1-21.6,1.9c-2.4,1-8,2.1-12.3,2.4c-4.3,0.4-13.7,1.5-20.8,2.5c-7.1,1-17.8,2.2-23.7,2.7c-5.9,0.5-14.8,1.6-19.7,2.5
		c-72.2,13.2-70.6,13-72.5,9.8c-1.2-2.1-0.8-2.7,3-3.6c2.6-0.7,5.4-2.8,6.8-5.2c2.7-4.5,3.2-7.1,0.9-4.2c-2.1,2.5-3.2,0.5-1.8-3.3
		c0.9-2.6,0.7-3.1-1.5-3.3c-1.4-0.1-3-0.1-3.4,0c-0.5,0.1-0.8-0.6-0.9-1.7c0-1-1.2-3.4-2.6-5.4c-2.6-3.6-5.1-3.6-18.3-0.3
		c-1.9,0.5-8.4,2.1-14.6,3.6c-6.2,1.5-16.3,4.2-22.5,6c-13.4,3.8-16.1,4.5-29.3,7.4c-25.7,5.7-35.3,8.2-40,10.4
		c-2.8,1.3-6.7,2.4-8.8,2.4c-2,0-6.9,1.1-10.7,2.4c-3.8,1.3-11,3.6-16,5c-10.9,3.2-32.7,9.6-49.4,14.5c-10,3-12.8,3.3-14.9,1.6
		c-2.1-1.6-5.6-1.3-19,1.7c-9,2.1-16.9,3.3-17.4,2.8c-0.6-0.5-3.2-0.2-5.9,0.7c-9.5,3.2-26.4,6.7-37.5,7.8c-6.2,0.6-13,1.4-15.2,1.7
		c-14.3,2.4-26.2,2.9-26.9,1.2c-0.6-1.3-2.3-1.2-6.2,0.6c-3,1.3-11.3,3.2-18.5,4.1c-4.2,0.5-11.3,1.5-18.8,2.7v41.8
		c0.5,0.1,0.9,0.2,1.1,0.3c1.8,1,1.8,1.5-1.1,2.9v59.3c7.9-2.1,10.2-3.1,10.2-4.5c0-0.9-0.4-1.2-0.9-0.7c-0.5,0.5-1.6,0.1-2.5-0.7
		c-1.3-1.2-1.2-1.5,0.7-1.5c1.3,0,5.5-1.9,9.5-4.2c5.1-2.9,9.2-4.1,14-4c7.4,0.1,13.1,1.8,11.4,3.3c-2.4,2-12.8,5-16.4,4.6
		c-8.4-0.8-13.4,0.2-13.4,2.7c0,1.7,1.2,2.5,4,2.5c5.3,0,5,2.8-0.8,6.4c-3.8,2.4-11.5,6-11.5,5.4c0-0.1-1.8,0.7-3.9,1.6
		c0,0-0.1,0-0.1,0v21c6.2-0.9,12.7-1.4,16.6-1.3c5.6,0.1,16.2-0.2,23.7-0.8s15.8-0.4,18.6,0.3l5.1,1.2l-5.6,1.5
		c-3.1,0.8-6.6,1.6-7.9,1.7c-8.4,0.6-20.8,3.5-23.5,5.5c-2.6,2-6.6,2.3-19.4,1.8c-2.9-0.1-5.4-0.2-7.5-0.2v10.2h1439V183.3
		c-11-0.5-25.2-1.5-32.7-2.2c-8.1-0.8-15.9-1.5-17.4-1.6c-3.4-0.2-2.2-2.3,1.8-3.1c3.4-0.7,7.5-3.6,6.7-4.8
		c-0.3-0.4-3.3-1.2-6.6-1.7c-12-1.8-6.8-2.4,11.4-1.5c6.9,0.4,21.3,0.8,36.7,1.1V158c-6.2-0.4-12.6-0.7-19.3-1
		c-5.6-0.3-18.3-1.7-28.2-3.3s-23.1-3-29.3-3.3c-10.2-0.4-32.5-2.4-54.7-4.8c-4.7-0.5-9-1.4-9.6-1.9c-0.6-0.6-7-1.2-14.1-1.4
		c-10.3-0.3-13.2-0.9-14.3-3c-0.7-1.4-3.3-2.8-5.7-3.1c-2.4-0.2-5.3-1-6.6-1.7c-1.2-0.7-3-1.6-3.9-2c-0.9-0.4-10.5-1.4-21.4-2.3
		c-10.9-0.9-22.6-1.8-26-2.2c-12.1-1.2-27.9-2.4-50.5-3.9c-12.6-0.8-24-1.8-25.4-2.3s-11.9-1.6-23.4-2.5c-11.5-1-28-2.8-36.7-4.2
		c-8.7-1.4-17.6-2.4-19.8-2.4c-2.2,0-7.8-0.7-12.4-1.7l-8.5-1.8l5.1-1.4c2.8-0.8,10.7-1.4,17.6-1.4c10.7,0,12.7-0.4,13.3-2.8
		c0.6-2.5,2.4-2.7,17.3-1.7c9.1,0.6,25.8,2.1,36.9,3.3c11.2,1.3,25.1,2.7,31,3.1c5.9,0.4,14,1.3,18,1.9c4,0.6,11.7,1.2,16.9,1.2
		c11.2,0.2,36.3,3.4,41.1,5.3c1.8,0.7,5.4,0.8,8,0.2c5-1.1,7-1,18.6,0.8c13,2.1,21.3-0.1,16.9-4.5c-1.1-1.1,1.9-1.2,9-0.4
		c9.9,1.2,22.4,1.2,31.3,0.1c2.2-0.3,3.7-1.4,3.7-2.7c0-1.8,0.5-1.8,2.5-0.3c1.4,1.1,4.5,2.1,7.1,2.3s6.3,0.8,8.5,1.3
		c6.6,1.7,29.4,2.2,30,0.7c0.3-0.8,1.4-0.3,2.3,1.1c0.9,1.4,2.1,2.2,2.5,1.8c0.4-0.4,3.7-1.2,7.4-1.8c4.9-0.9,6.9-0.6,7.6,1
		c0.5,1.2,2.8,2.4,5.2,2.6c7.7,0.7,16.2,0.4,17.3-0.6c1.5-1.4,1.3-3.5-0.4-3.6c-4.6-0.3-23-2.1-30.2-3.1c-4.7-0.6-8.8-1-9.3-0.8
		c-1.8,0.7-36.4-3.1-37.5-4.1c-0.7-0.6-4.8-1.2-9.1-1.4c-18.7-0.7-42.1-3.4-50.8-5.9c-1.2-0.4-5.7-1.2-9.9-1.8
		c-4.2-0.6-7.6-1.7-7.6-2.3c0-1.3,27.2-0.8,31.1,0.5c6.9,2.4,16.2,3.3,29.3,2.8c20.7-0.7,35.7-0.6,36.5,0.1c0.4,0.3,4.2,1.1,8.6,1.7
		c10.8,1.5,13.4,1.9,17.4,3.2c2.6,0.8,3.6,0.4,4.1-1.4c0.3-1.4,1.2-2.2,2-1.9c0.7,0.3,4.1,1,7.5,1.5c3.4,0.5,11,1.6,16.9,2.6
		c14.7,2.3,22.7,2.7,33.3,1.3c1-0.1,1.8-0.2,2.7-0.3v-8.2C1436.8,97.5,1433.5,97.3,1428.6,97.1z M22.4,194c-1.9,0.7-2.3,0.5-1.5-0.7
		c0.6-1,1.8-1.4,2.7-1C24.5,192.6,24,193.4,22.4,194z M26.8,175.2c-1.5,0.1-4,0.6-5.3,1.2c-1.4,0.6-2.5,0.3-2.5-0.7
		c0-2.5,5.1-3.9,8.1-2.2l2.6,1.5L26.8,175.2z M45.4,173.4c-1.2,0.1-1.9-0.3-1.5-0.9c0.4-0.6,1.3-0.6,2.2-0.1
		C47,172.9,46.8,173.3,45.4,173.4z"/>
	<path class="st0" d="M168,106.5c1.3-0.1,1.6-0.5,0.7-1c-0.8-0.5-1.8-0.4-2.2,0.1C166.1,106.2,166.8,106.6,168,106.5z"/>
</g>
</svg>
